<?xml version="1.0" encoding="iso-8859-1"?>
<!-- Generator: Adobe Illustrator 16.0.0, SVG Export Plug-In . SVG Version: 6.00 Build 0)  -->
<!DOCTYPE svg PUBLIC "-//W3C//DTD SVG 1.1//EN" "http://www.w3.org/Graphics/SVG/1.1/DTD/svg11.dtd">
<svg version="1.1" id="Layer_1" xmlns="http://www.w3.org/2000/svg" xmlns:xlink="http://www.w3.org/1999/xlink" x="0px" y="0px"
	 width="25.329px" height="32px" viewBox="0 0 25.329 32" style="enable-background:new 0 0 25.329 32;" xml:space="preserve">
<g>
	<path d="M19.323,2.556h-6.651h-0.001h-6.65c0,0-1.015,2.021-2.408,2.204c-4.939,19.345,9.051,24.124,9.059,24.127h0.001
		c0.008-0.003,13.999-4.782,9.059-24.127C20.337,4.576,19.323,2.556,19.323,2.556z"/>
	<path d="M24.067,3.131l-0.133-0.512l-0.523-0.068c-0.995-0.128-1.97-1.614-2.232-2.125L20.96,0H4.382L4.164,0.427
		c-0.261,0.51-1.229,1.995-2.231,2.124L1.408,2.619L1.276,3.131c-5.982,23.032,11,28.751,11.174,28.802L12.676,32l0.226-0.069
		C13.074,31.878,30.005,25.988,24.067,3.131z M12.672,30.349c-2.047-0.793-14.905-6.633-9.996-26.371
		c1.286-0.436,2.217-1.721,2.641-2.412h14.71c0.424,0.691,1.355,1.977,2.641,2.412C27.576,23.717,14.718,29.556,12.672,30.349z"/>
</g>
<g>
</g>
<g>
</g>
<g>
</g>
<g>
</g>
<g>
</g>
<g>
</g>
<g>
</g>
<g>
</g>
<g>
</g>
<g>
</g>
<g>
</g>
<g>
</g>
<g>
</g>
<g>
</g>
<g>
</g>
</svg>
