<?xml version="1.0" encoding="UTF-8" standalone="no"?>
<svg width="40px" height="40px" viewBox="0 0 40 40" version="1.1" xmlns="http://www.w3.org/2000/svg" xmlns:xlink="http://www.w3.org/1999/xlink" xmlns:sketch="http://www.bohemiancoding.com/sketch/ns">
    <!-- Generator: Sketch 3.0.3 (7891) - http://www.bohemiancoding.com/sketch -->
    <title>Untitled 4</title>
    <desc>Created with Sketch.</desc>
    <defs></defs>
    <g id="Page-1" stroke="none" stroke-width="1" fill="none" fill-rule="evenodd" sketch:type="MSPage">
        <g id="weixin-circle" sketch:type="MSLayerGroup" fill="#000000">
            <path d="M20.004,0 C8.953,0 -0.005,8.958 -0.005,20.008 C-0.005,31.059 8.953,40.018 20.004,40.018 C31.054,40.018 40.012,31.059 40.012,20.008 C40.012,8.958 31.054,0 20.004,0 L20.004,0 Z M20.004,37.469 C10.36,37.469 2.543,29.652 2.543,20.008 C2.543,10.365 10.36,2.548 20.004,2.548 C29.647,2.548 37.464,10.365 37.464,20.008 C37.464,29.651 29.646,37.469 20.004,37.469 L20.004,37.469 Z" id="Shape" sketch:type="MSShapeGroup"></path>
            <path d="M19.821,10.441 C14.649,10.453 10.167,13.116 10.077,17.027 C10.117,19.949 12.703,22.174 16.103,23.116 C15.603,25.675 13.395,27.523 13.395,27.523 C13.413,27.523 13.529,27.531 13.731,27.531 L13.758,27.531 C14.993,27.531 19.237,27.204 22.76,23.305 C26.544,22.503 29.518,20.168 29.565,17.027 C29.476,13.116 24.991,10.453 19.821,10.441 L19.821,10.441 Z M22.182,21.832 L21.908,21.885 L21.728,22.094 C20.075,23.998 18.23,24.971 16.707,25.466 C17.478,24.455 17.752,23.348 17.811,22.616 L17.881,21.927 L17.189,21.779 C13.814,21.057 11.631,19.032 11.671,17.028 C11.669,15.759 12.464,14.532 13.937,13.57 C15.396,12.62 17.484,12.001 19.804,12.001 L19.822,12.001 C22.149,11.998 24.244,12.618 25.707,13.57 C27.179,14.532 27.974,15.759 27.972,17.028 C28.017,19.087 25.705,21.167 22.182,21.832 L22.182,21.832 Z" id="Shape" sketch:type="MSShapeGroup"></path>
            <path d="M32.732,20.456 C32.732,17.686 29.787,15.441 26.154,15.441 C22.521,15.441 19.577,17.686 19.577,20.456 C19.577,23.226 22.133,25.289 25.765,25.289 C26.037,25.289 29.159,27.454 29.163,27.429 C29.127,27.438 28.367,25.349 28.305,25.278 C31.055,24.676 32.732,22.745 32.732,20.456 L32.732,20.456 Z" id="Shape" sketch:type="MSShapeGroup"></path>
        </g>
    </g>
</svg>