<?xml version="1.0" encoding="UTF-8" standalone="no"?>
<svg
   xmlns:dc="http://purl.org/dc/elements/1.1/"
   xmlns:cc="http://creativecommons.org/ns#"
   xmlns:rdf="http://www.w3.org/1999/02/22-rdf-syntax-ns#"
   xmlns:svg="http://www.w3.org/2000/svg"
   xmlns="http://www.w3.org/2000/svg"
   xmlns:sodipodi="http://sodipodi.sourceforge.net/DTD/sodipodi-0.dtd"
   xmlns:inkscape="http://www.inkscape.org/namespaces/inkscape"
   width="240"
   height="300"
   id="svg2"
   version="1.1"
   inkscape:version="0.48.2 r9819"
   sodipodi:docname="logo.svg">
  <metadata
     id="metadata41">
    <rdf:RDF>
      <cc:Work
         rdf:about="">
        <dc:format>image/svg+xml</dc:format>
        <dc:type
           rdf:resource="http://purl.org/dc/dcmitype/StillImage" />
        <dc:title />
      </cc:Work>
    </rdf:RDF>
  </metadata>
  <defs
     id="defs39" />
  <sodipodi:namedview
     pagecolor="#ffffff"
     bordercolor="#666666"
     borderopacity="1"
     objecttolerance="10"
     gridtolerance="10"
     guidetolerance="10"
     inkscape:pageopacity="0"
     inkscape:pageshadow="2"
     inkscape:window-width="2560"
     inkscape:window-height="1392"
     id="namedview37"
     showgrid="false"
     inkscape:zoom="8.9001174"
     inkscape:cx="13.822152"
     inkscape:cy="240.63647"
     inkscape:window-x="0"
     inkscape:window-y="0"
     inkscape:window-maximized="1"
     inkscape:current-layer="svg2" />
  <g
     id="g4"
     transform="matrix(0.66262127,0,0,0.66262127,-63.403036,-63.1569)">
    <title
       id="title6">Layer 1</title>
    <g
       id="svg_1">
      <linearGradient
         gradientTransform="scale(1.0425367,0.95919888)"
         y2="1.3549173"
         x2="333.41708"
         y1="61.721615"
         x1="333.41708"
         id="SVGID_1_"
         gradientUnits="userSpaceOnUse">
        <stop
           stop-color="#D35015"
           offset="0"
           id="stop10" />
        <stop
           stop-color="#B51F22"
           offset="1"
           id="stop12" />
      </linearGradient>
      <path
         id="svg_2"
         d="m 97.192,149.558 v -45.956 c 0,-2.37099 0.779,-4.346 2.338,-5.925 1.538,-1.538 3.64,-2.307 6.309,-2.307 h 41.057 c 2.839,0 5.06,0.694 6.662,2.08099 1.687,1.496 2.53,3.609 2.53,6.342 v 37.56599 c 0,2.24101 -0.726,4.14201 -2.17799,5.70001 -1.55901,1.66499 -3.672,2.49699 -6.341,2.49699 h -5.476 v -5.89301 h 4.51599 c 0.89601,0 1.70801,-0.31999 2.43401,-0.95999 0.726,-0.64 1.088,-1.366 1.088,-2.179 l -0.032,-35.355 c 0,-2.625 -1.388,-3.939 -4.16299,-3.939 h -38.719 c -2.734,0 -4.09901,1.314 -4.09901,3.939 v 44.387 h -5.92599 v 0.002 l 0,0 z m 8.839,-8.839 v -6.88499 c 2.797,-2.30499 4.87901,-4.612 6.245,-6.917 -1.366,-3.075 -2.466,-5.968 -3.299,-8.679 -1.003,-3.351 -1.99699,-6.918 -2.979,-10.696 h 5.604 c 1.55901,6.042 2.776,10.366 3.651,12.969 0.896,-2.433 2.146,-6.756 3.748,-12.969 h 5.668 c -0.491,1.643 -1.282,4.504 -2.37,8.582 -1.153,4.228 -2.52,7.815 -4.10001,10.762 1.83601,2.519 3.981,4.89999 6.438,7.14099 v 6.69301 c -3.117,-1.83501 -6.224,-4.77 -9.319,-8.806 -1.495,1.985 -2.915,3.597 -4.26,4.836 -1.173,1.129 -2.849,2.45399 -5.027,3.96899 z m 21.617,-0.032 v -6.757 c 2.73299,-2.28499 4.83599,-4.644 6.309,-7.077 -1.666,-3.95 -2.82899,-7.015 -3.491,-9.19099 -0.576,-1.87901 -1.49501,-5.252 -2.75401,-10.12 h 5.604 c 1.089,4.462 2.295,8.87 3.62001,13.226 0.042,-0.14799 1.30099,-4.558 3.77899,-13.226 h 5.57201 c -0.87601,3.374 -1.623,6.117 -2.242,8.229 -1.089,3.737 -2.44499,7.44099 -4.067,11.114 1.60201,2.583 3.715,4.91999 6.341,7.01299 v 6.854 c -2.05,-1.30299 -4.04601,-2.94701 -5.989,-4.93401 -1.495,-1.515 -2.605,-2.81699 -3.33,-3.90599 -2.776,3.694 -5.89301,6.62 -9.352,8.77499 z"
         style="fill:url(#SVGID_1_)"
         inkscape:connector-curvature="0" />
      <linearGradient
         gradientTransform="scale(1.0428314,0.95892775)"
         y2="1.3554218"
         x2="395.77014"
         y1="61.73959"
         x1="395.77014"
         id="SVGID_2_"
         gradientUnits="userSpaceOnUse">
        <stop
           stop-color="#D35015"
           offset="0"
           id="stop16" />
        <stop
           stop-color="#B51F22"
           offset="1"
           id="stop18" />
      </linearGradient>
      <path
         id="svg_3"
         d="M 162.10699,149.84599 V 143.858 c 1.28201,-0.534 2.17801,-1.771 2.69,-3.715 0.384,-1.515 0.651,-3.49001 0.80101,-5.92401 l 0.993,-16.78099 h 5.73199 l -0.95999,16.55699 c -0.29901,5.38 -1.10101,9.15901 -2.40201,11.336 -1.28101,2.11401 -3.56599,3.619 -6.854,4.515 z m 0.19301,-35.548 v -5.924 h 15.373 v -5.636 H 162.3 v -5.926 h 29.87999 c 0.96001,0 1.569,-0.116 1.82501,-0.352 0.235,-0.192 0.40599,-0.577 0.513,-1.153 h 5.86 c -0.149,1.708 -0.49101,3.011 -1.024,3.908 -1.345,2.327 -3.502,3.491 -6.46901,3.491 l -9.28799,0.032 v 5.636 h 15.565 v 5.924 h -15.565 v 35.26 h -5.924 v -35.26 H 162.3 l 0,0 z m 27.254,3.14001 h 5.7 l 0.993,16.49199 c 0.192,3.18201 0.481,5.38 0.86501,6.597 0.362,1.04601 0.757,1.82701 1.185,2.339 0.27701,0.32001 0.757,0.65001 1.44101,0.993 v 5.95601 c -2.093,-0.618 -3.51201,-1.194 -4.26001,-1.729 -2.028,-1.47299 -3.42599,-3.748 -4.19499,-6.821 -0.32001,-1.282 -0.55501,-3.117 -0.705,-5.50999 l -1.024,-18.317 z m 14.98801,32.216 v -5.95601 l 7.07599,-0.064 c 1.067,-0.022 1.772,-0.12801 2.114,-0.32001 1.06601,-0.64 1.60201,-1.623 1.60201,-2.94699 l 0.063,-45.02701 h 6.021 v 44.83501 c 0,4.20599 -1.354,7.00299 -4.06599,8.39099 -1.558,0.791 -3.617,1.17401 -6.18201,1.153 l -6.62799,-0.065 z m 0,-9.416 V 97.70999 h 6.021 V 140.238 h -6.021 l 0,0 z"
         style="fill:url(#SVGID_2_)"
         inkscape:connector-curvature="0" />
    </g>
    <path
       id="svg_4"
       d="m 227.88901,149.87801 v -6.02 h 26.711 v -10.248 H 228.37 v -5.924 h 26.23001 v -8.13499 H 228.37 v -5.924 h 58.28702 v 5.924 h -26.134 v 8.13499 h 26.134 v 5.924 h -26.134 v 10.248 h 14.06 v -5.412 h 5.89398 l 0.031,5.412 h 6.66202 v 6.02 h -59.28101 l 0,0 z m 0.095,-39.103 v -4.548 c 0,-2.241 0.811,-4.142 2.43501,-5.7 1.57899,-1.515 3.56499,-2.273 5.957,-2.273 h 18.224 v -2.915 h 5.95499 v 2.915 h 16.59 c 2.155,0 3.75601,0.18 4.806,0.544 1.38702,0.47 2.59302,1.33401 3.616,2.593 1.11002,1.41 1.67801,2.777 1.69702,4.1 v 5.284 H 281.339 l -0.032,-3.49 c 0,-0.94 -0.42599,-1.763 -1.27899,-2.467 -0.51401,-0.448 -1.34802,-0.672 -2.5,-0.672 h -39.80702 c -1.431,0 -2.39999,0.384 -2.91399,1.15199 -0.60001,0.833 -0.89601,1.719 -0.89601,2.659 v 2.817 l -5.927,0.001 0,0 z"
       inkscape:connector-curvature="0"
       style="fill:#666666" />
    <g
       id="svg_5">
      <path
         id="svg_6"
         d="m 95.601,162.151 h 1.75 l 4.054,9.604 4.22,-9.604 h 0.309 l 4.248,9.604 4.132,-9.604 h 1.77 l -5.745,13.226 h -0.31499 l -4.229,-9.46899 -4.227,9.46899 h -0.317 l -5.65,-13.226 z"
         inkscape:connector-curvature="0"
         style="fill:#989898" />
      <path
         id="svg_7"
         d="m 131.25301,162.151 v 13.226 h -1.677 v -2.27299 c -0.713,0.86699 -1.51401,1.51999 -2.401,1.957 -0.88699,0.43701 -1.858,0.657 -2.911,0.657 -1.872,0 -3.471,-0.679 -4.795,-2.036 -1.325,-1.35701 -1.987,-3.009 -1.987,-4.95401 0,-1.90399 0.668,-3.53299 2.005,-4.886 1.337,-1.35399 2.946,-2.03 4.826,-2.03 1.086,0 2.06799,0.23001 2.948,0.692 0.88001,0.46199 1.651,1.155 2.31599,2.07899 V 162.151 h 1.67601 l 0,0 z m -6.801,1.30099 c -0.94701,0 -1.82101,0.233 -2.623,0.698 -0.802,0.466 -1.439,1.119 -1.913,1.961 -0.474,0.842 -0.71,1.73201 -0.71,2.67101 0,0.93201 0.239,1.82201 0.716,2.672 0.47701,0.85001 1.119,1.51201 1.924,1.98401 0.805,0.474 1.669,0.711 2.592,0.711 0.931,0 1.813,-0.235 2.647,-0.70399 0.833,-0.47 1.475,-1.10501 1.924,-1.90601 0.44899,-0.802 0.674,-1.70399 0.674,-2.70801 0,-1.52899 -0.504,-2.80899 -1.51199,-3.83699 -1.005,-1.02701 -2.246,-1.54201 -3.719,-1.54201 z"
         inkscape:connector-curvature="0"
         style="fill:#989898" />
      <path
         id="svg_8"
         d="m 135.08299,162.151 h 1.70201 v 2.371 c 0.681,-0.908 1.43399,-1.58701 2.261,-2.03601 0.827,-0.45 1.726,-0.67499 2.69899,-0.67499 0.98801,0 1.866,0.25099 2.63101,0.754 0.76599,0.502 1.33099,1.179 1.696,2.02899 0.36499,0.85201 0.547,2.17601 0.547,3.97601 v 6.80699 h -1.702 v -6.30901 c 0,-1.52299 -0.063,-2.541 -0.18901,-3.05099 -0.19699,-0.87599 -0.575,-1.534 -1.134,-1.976 -0.56,-0.44099 -1.289,-0.662 -2.18799,-0.662 -1.02901,0 -1.951,0.34 -2.76601,1.021 -0.815,0.681 -1.35201,1.52301 -1.61099,2.528 -0.16301,0.65601 -0.24301,1.856 -0.24301,3.599 v 4.85001 h -1.702 v -13.226 l -0.001,0 z"
         inkscape:connector-curvature="0"
         style="fill:#989898" />
      <path
         id="svg_9"
         d="m 161.66701,162.151 h 1.702 v 10.539 c 0,1.856 -0.162,3.213 -0.48601,4.07199 -0.446,1.216 -1.22,2.151 -2.32199,2.80801 -1.10199,0.65701 -2.427,0.98499 -3.97501,0.98499 -1.13499,0 -2.15399,-0.161 -3.05699,-0.48099 -0.90401,-0.321 -1.63901,-0.752 -2.207,-1.293 -0.56799,-0.541 -1.09001,-1.33101 -1.56801,-2.371 h 1.84801 c 0.50299,0.875 1.15199,1.52299 1.94699,1.94499 0.795,0.42101 1.78101,0.632 2.957,0.632 1.16,0 2.14,-0.216 2.93901,-0.64799 0.799,-0.43201 1.36899,-0.976 1.70999,-1.629 0.341,-0.65401 0.511,-1.71101 0.511,-3.16901 v -0.681 c -0.64101,0.811 -1.424,1.433 -2.349,1.866 -0.925,0.433 -1.90601,0.65001 -2.944,0.65001 -1.217,0 -2.36101,-0.302 -3.43201,-0.90501 -1.071,-0.60301 -1.89799,-1.416 -2.48199,-2.43799 -0.584,-1.02101 -0.87601,-2.144 -0.87601,-3.367 0,-1.223 0.304,-2.364 0.91301,-3.422 0.60901,-1.058 1.45,-1.894 2.52499,-2.51001 1.07499,-0.61601 2.20801,-0.924 3.401,-0.924 0.99001,0 1.91301,0.205 2.76801,0.61301 0.856,0.40999 1.681,1.084 2.47701,2.024 v -2.29601 l 0,0 z m -5.02101,1.30099 c -0.96399,0 -1.86,0.233 -2.687,0.69901 -0.826,0.466 -1.47501,1.11 -1.94499,1.933 -0.47,0.82201 -0.705,1.71201 -0.705,2.668 0,1.451 0.48599,2.64999 1.459,3.599 0.972,0.948 2.23199,1.422 3.78,1.422 1.564,0 2.82199,-0.47 3.774,-1.40999 0.952,-0.93901 1.42799,-2.17601 1.42799,-3.707 0,-0.99701 -0.21899,-1.88701 -0.65601,-2.66901 -0.43799,-0.78101 -1.058,-1.399 -1.86,-1.854 -0.80099,-0.453 -1.66399,-0.681 -2.588,-0.681 z"
         inkscape:connector-curvature="0"
         style="fill:#989898" />
      <path
         id="svg_10"
         d="m 166.75999,157.047 h 1.70201 v 18.33 h -1.70201 v -18.33 l 0,0 z"
         inkscape:connector-curvature="0"
         style="fill:#989898" />
      <path
         id="svg_11"
         d="m 172.588,156.70599 c 0.38701,0 0.718,0.138 0.992,0.41301 0.274,0.27499 0.412,0.608 0.412,0.99699 0,0.381 -0.13701,0.709 -0.412,0.98401 -0.274,0.27499 -0.605,0.41299 -0.992,0.41299 -0.379,0 -0.70599,-0.138 -0.98,-0.41299 -0.27401,-0.27499 -0.411,-0.604 -0.411,-0.98401 0,-0.38899 0.13699,-0.722 0.411,-0.99699 0.27401,-0.27499 0.59999,-0.41301 0.98,-0.41301 z m -0.845,5.44501 h 1.70201 v 13.226 H 171.743 v -13.226 l 0,0 z"
         inkscape:connector-curvature="0"
         style="fill:#989898" />
      <path
         id="svg_12"
         d="m 177.092,175.377 v -18.33 h 1.70201 v 7.37801 c 0.71199,-0.875 1.50999,-1.52901 2.392,-1.963 0.88201,-0.43399 1.84999,-0.65001 2.90199,-0.65001 1.87,0 3.467,0.679 4.791,2.03601 1.323,1.35699 1.985,3.004 1.985,4.94099 0,1.912 -0.668,3.545 -2.004,4.89799 -1.33501,1.354 -2.942,2.03 -4.821,2.03 -1.077,0 -2.052,-0.231 -2.92599,-0.69299 -0.875,-0.46201 -1.647,-1.15401 -2.319,-2.078 v 2.431 H 177.092 l 0,0 z m 6.80701,-1.30099 c 0.946,0 1.819,-0.23201 2.619,-0.69901 0.79999,-0.466 1.437,-1.12 1.90999,-1.963 0.47301,-0.843 0.709,-1.733 0.709,-2.674 0,-0.941 -0.239,-1.836 -0.715,-2.68701 -0.47699,-0.851 -1.118,-1.51399 -1.922,-1.987 -0.80499,-0.47499 -1.664,-0.711 -2.577,-0.711 -0.93001,0 -1.813,0.23601 -2.65001,0.711 -0.83699,0.474 -1.47899,1.112 -1.92799,1.914 -0.44901,0.80301 -0.673,1.70601 -0.673,2.711 0,1.53101 0.50301,2.813 1.51001,3.841 1.006,1.03 2.245,1.54401 3.717,1.54401 z"
         inkscape:connector-curvature="0"
         style="fill:#989898" />
      <path
         id="svg_13"
         d="m 207.14101,162.151 v 13.226 H 205.463 v -2.27299 c -0.713,0.86699 -1.51399,1.51999 -2.39999,1.957 -0.888,0.43799 -1.858,0.657 -2.912,0.657 -1.87199,0 -3.47101,-0.679 -4.795,-2.036 -1.325,-1.35701 -1.987,-3.009 -1.987,-4.95401 0,-1.90399 0.668,-3.53299 2.00499,-4.886 1.33701,-1.35399 2.94601,-2.03 4.826,-2.03 1.086,0 2.06801,0.23001 2.94701,0.692 0.87999,0.46201 1.65199,1.155 2.31599,2.07899 V 162.151 h 1.67801 l 0,0 z m -6.802,1.30099 c -0.94701,0 -1.821,0.233 -2.623,0.698 -0.802,0.466 -1.43901,1.119 -1.91301,1.961 -0.474,0.842 -0.70999,1.73201 -0.70999,2.67101 0,0.93201 0.239,1.82201 0.716,2.672 0.47699,0.85001 1.11899,1.51201 1.924,1.98401 0.80499,0.474 1.66899,0.711 2.592,0.711 0.931,0 1.813,-0.235 2.647,-0.70399 0.83299,-0.47 1.47501,-1.10501 1.924,-1.90601 0.44901,-0.802 0.67401,-1.70399 0.67401,-2.70801 0,-1.52899 -0.50401,-2.80899 -1.51201,-3.83699 -1.005,-1.02701 -2.245,-1.54201 -3.71899,-1.54201 z"
         inkscape:connector-curvature="0"
         style="fill:#989898" />
      <path
         id="svg_14"
         d="m 217.229,161.812 c 2.03799,0 3.72699,0.737 5.06599,2.21201 1.217,1.34599 1.826,2.938 1.826,4.77699 0,1.84801 -0.64301,3.46301 -1.93001,4.84401 -1.28699,1.38199 -2.94099,2.073 -4.963,2.073 -2.02899,0 -3.688,-0.69101 -4.974,-2.073 -1.286,-1.381 -1.931,-2.996 -1.931,-4.84401 0,-1.83099 0.60901,-3.42 1.827,-4.765 1.34001,-1.483 3.03401,-2.224 5.07901,-2.224 z m -0.006,1.66501 c -1.414,0 -2.631,0.52199 -3.646,1.56801 -1.01801,1.045 -1.52499,2.31 -1.52499,3.79199 0,0.957 0.23199,1.84799 0.69499,2.67499 0.463,0.826 1.09,1.46501 1.879,1.914 0.789,0.45001 1.65401,0.675 2.59801,0.675 0.944,0 1.81,-0.22499 2.599,-0.675 0.78799,-0.44899 1.41499,-1.088 1.87799,-1.914 0.464,-0.827 0.69501,-1.71799 0.69501,-2.67499 0,-1.48201 -0.50999,-2.74701 -1.53,-3.79199 -1.02202,-1.04602 -2.23601,-1.56801 -3.64301,-1.56801 z"
         inkscape:connector-curvature="0"
         style="fill:#989898" />
      <path
         id="svg_15"
         d="m 229.142,172.703 c 0.41299,0 0.767,0.146 1.058,0.438 0.29201,0.291 0.438,0.64799 0.438,1.069 0,0.41299 -0.146,0.76799 -0.438,1.06299 -0.291,0.29601 -0.645,0.444 -1.058,0.444 -0.413,0 -0.76599,-0.14799 -1.058,-0.444 -0.291,-0.29599 -0.438,-0.64999 -0.438,-1.06299 0,-0.42101 0.14601,-0.778 0.438,-1.069 0.29201,-0.29201 0.645,-0.438 1.058,-0.438 z"
         inkscape:connector-curvature="0"
         style="fill:#989898" />
      <path
         id="svg_16"
         d="m 246.998,164.89799 -1.35001,0.839 c -1.16499,-1.548 -2.756,-2.32101 -4.771,-2.32101 -1.61,0 -2.94701,0.51801 -4.01199,1.554 -1.06498,1.03599 -1.59801,2.29501 -1.59801,3.776 0,0.96301 0.245,1.87001 0.73401,2.72002 0.48999,0.84999 1.16199,1.50999 2.01599,1.979 0.854,0.46899 1.812,0.70399 2.871,0.70399 1.94299,0 3.52901,-0.774 4.75999,-2.32201 l 1.35001,0.888 c -0.632,0.95201 -1.48,1.69 -2.547,2.215 -1.065,0.52499 -2.27901,0.78799 -3.64101,0.78799 -2.09,0 -3.82401,-0.66499 -5.202,-1.99399 -1.37799,-1.329 -2.06599,-2.94501 -2.06599,-4.85001 0,-1.28 0.32199,-2.46999 0.96599,-3.56799 0.645,-1.09801 1.52901,-1.95399 2.65601,-2.57001 1.127,-0.61602 2.38699,-0.924 3.78101,-0.924 0.875,0 1.71899,0.134 2.53299,0.401 0.81401,0.267 1.506,0.61501 2.073,1.045 0.567,0.42999 1.05101,0.976 1.44701,1.64 z"
         inkscape:connector-curvature="0"
         style="fill:#989898" />
      <path
         id="svg_17"
         d="m 256.52701,161.812 c 2.03799,0 3.72699,0.737 5.06601,2.21201 1.21698,1.34599 1.82599,2.938 1.82599,4.77699 0,1.84801 -0.64301,3.46301 -1.92999,4.84401 -1.28702,1.38199 -2.94101,2.073 -4.96301,2.073 -2.02899,0 -3.68799,-0.69101 -4.97398,-2.073 -1.28601,-1.381 -1.931,-2.996 -1.931,-4.84401 0,-1.83099 0.60899,-3.42 1.827,-4.765 1.34099,-1.483 3.03398,-2.224 5.07899,-2.224 z m -0.006,1.66501 c -1.414,0 -2.631,0.52199 -3.646,1.56801 -1.01801,1.045 -1.52499,2.31 -1.52499,3.79199 0,0.957 0.23199,1.84799 0.69499,2.67499 0.463,0.826 1.09,1.46501 1.879,1.914 0.789,0.45001 1.65401,0.675 2.59801,0.675 0.944,0 1.81,-0.22499 2.599,-0.675 0.78799,-0.44899 1.41501,-1.088 1.87799,-1.914 0.46402,-0.827 0.69501,-1.71799 0.69501,-2.67499 0,-1.48201 -0.51001,-2.74701 -1.53,-3.79199 -1.021,-1.04602 -2.23502,-1.56801 -3.64301,-1.56801 z"
         inkscape:connector-curvature="0"
         style="fill:#989898" />
      <path
         id="svg_18"
         d="m 266.55701,162.151 h 1.70099 v 2.285 c 0.59201,-0.84201 1.20102,-1.45801 1.82501,-1.84801 0.85999,-0.51799 1.76498,-0.77699 2.71399,-0.77699 0.64099,0 1.25,0.12599 1.82501,0.377 0.57599,0.25099 1.047,0.58499 1.41199,1.00299 0.36401,0.41701 0.681,1.015 0.94901,1.793 0.565,-1.03699 1.272,-1.825 2.12201,-2.364 0.85001,-0.539 1.763,-0.80899 2.73999,-0.80899 0.914,0 1.72101,0.23 2.42001,0.692 0.699,0.462 1.21899,1.10599 1.55899,1.933 0.33899,0.827 0.509,2.067 0.509,3.72 v 7.22099 H 284.595 V 168.156 c 0,-1.418 -0.10101,-2.39301 -0.30301,-2.923 -0.202,-0.53101 -0.548,-0.95801 -1.03598,-1.282 -0.48798,-0.32399 -1.07202,-0.48601 -1.75,-0.48601 -0.82401,0 -1.578,0.243 -2.26001,0.729 -0.68399,0.485 -1.18201,1.134 -1.496,1.944 -0.315,0.811 -0.47299,2.164 -0.47299,4.06 v 5.179 h -1.702 v -6.771 c 0,-1.597 -0.099,-2.681 -0.298,-3.252 -0.198,-0.571 -0.54501,-1.028 -1.039,-1.373 -0.49399,-0.345 -1.082,-0.517 -1.763,-0.517 -0.78601,0 -1.521,0.23599 -2.20599,0.711 -0.686,0.474 -1.19101,1.112 -1.52002,1.914 -0.328,0.80299 -0.492,2.03 -0.492,3.68399 v 5.604 h -1.70099 v -13.226 l 10e-4,0 z"
         inkscape:connector-curvature="0"
         style="fill:#989898" />
    </g>
    <g
       id="svg_19" />
  </g>
</svg>
