<?xml version="1.0" encoding="UTF-8" standalone="no"?>
<svg
   xmlns:dc="http://purl.org/dc/elements/1.1/"
   xmlns:cc="http://creativecommons.org/ns#"
   xmlns:rdf="http://www.w3.org/1999/02/22-rdf-syntax-ns#"
   xmlns:svg="http://www.w3.org/2000/svg"
   xmlns="http://www.w3.org/2000/svg"
   xmlns:sodipodi="http://sodipodi.sourceforge.net/DTD/sodipodi-0.dtd"
   xmlns:inkscape="http://www.inkscape.org/namespaces/inkscape"
   version="1.1"
   id="图层_1"
   x="0px"
   y="0px"
   width="400px"
   height="300px"
   viewBox="0 0 400 300"
   enable-background="new 0 0 400 300"
   xml:space="preserve"
   inkscape:version="0.48.2 r9819"
   sodipodi:docname="logo.svg"><metadata
   id="metadata71"><rdf:RDF><cc:Work
       rdf:about=""><dc:format>image/svg+xml</dc:format><dc:type
         rdf:resource="http://purl.org/dc/dcmitype/StillImage" /><dc:title></dc:title></cc:Work></rdf:RDF></metadata><defs
   id="defs69" /><sodipodi:namedview
   pagecolor="#ffffff"
   bordercolor="#666666"
   borderopacity="1"
   objecttolerance="10"
   gridtolerance="10"
   guidetolerance="10"
   inkscape:pageopacity="0"
   inkscape:pageshadow="2"
   inkscape:window-width="1280"
   inkscape:window-height="774"
   id="namedview67"
   showgrid="false"
   inkscape:zoom="2.5936918"
   inkscape:cx="113.07634"
   inkscape:cy="252.16615"
   inkscape:window-x="559"
   inkscape:window-y="618"
   inkscape:window-maximized="1"
   inkscape:current-layer="g3" />
<g
   id="g3"
   transform="matrix(0.6626214,0,0,0.6626214,-62.59177,-33.93011)">
	
		<linearGradient
   id="SVGID_1_"
   gradientUnits="userSpaceOnUse"
   x1="347.59961"
   y1="59.203098"
   x2="347.59961"
   y2="1.2994"
   gradientTransform="matrix(1,0,0,-1,-221.54186,109.70053)">
		<stop
   offset="0"
   style="stop-color:#D35015"
   id="stop6" />
		<stop
   offset="1"
   style="stop-color:#B51F22"
   id="stop8" />
	</linearGradient>
	<path
   d="M 96.610143,105.91873 V 59.962734 c 0,-2.371 0.779,-4.346 2.338,-5.925 1.537997,-1.538 3.639997,-2.307 6.308997,-2.307 h 41.057 c 2.839,0 5.06,0.694 6.662,2.081 1.687,1.496 2.53,3.609 2.53,6.342 v 37.566 c 0,2.241 -0.726,4.141996 -2.178,5.699996 -1.559,1.665 -3.672,2.497 -6.341,2.497 h -5.476 v -5.893 h 4.516 c 0.896,0 1.708,-0.319996 2.434,-0.959996 0.726,-0.64 1.088,-1.366 1.088,-2.179 l -0.032,-35.355 c 0,-2.625 -1.388,-3.939 -4.163,-3.939 h -38.719 c -2.734,0 -4.099,1.314 -4.099,3.939 v 44.386996 h -5.925997 v 0.002 z m 8.838997,-8.838996 v -6.885 c 2.797,-2.305 4.879,-4.612 6.245,-6.917 -1.366,-3.075 -2.466,-5.968 -3.299,-8.679 -1.003,-3.351 -1.997,-6.918 -2.979,-10.696 h 5.604 c 1.559,6.042 2.776,10.366 3.651,12.969 0.896,-2.433 2.146,-6.756 3.748,-12.969 h 5.668 c -0.491,1.643 -1.282,4.504 -2.37,8.582 -1.153,4.228 -2.52,7.815 -4.1,10.762 1.836,2.519 3.981,4.9 6.438,7.141 v 6.693 c -3.117,-1.835 -6.224,-4.77 -9.319,-8.806 -1.495,1.985 -2.915,3.597 -4.26,4.836 -1.173,1.129 -2.849,2.454 -5.027,3.969 z m 21.617,-0.032 v -6.757 c 2.733,-2.285 4.836,-4.644 6.309,-7.077 -1.666,-3.95 -2.829,-7.015 -3.491,-9.191 -0.576,-1.879 -1.495,-5.252 -2.754,-10.12 h 5.604 c 1.089,4.462 2.295,8.87 3.62,13.226 0.042,-0.148 1.301,-4.558 3.779,-13.226 h 5.572 c -0.876,3.374 -1.623,6.117 -2.242,8.229 -1.089,3.737 -2.445,7.441 -4.067,11.114 1.602,2.583 3.715,4.92 6.341,7.013 v 6.854 c -2.05,-1.303 -4.046,-2.947 -5.989,-4.934 -1.495,-1.515 -2.605,-2.817 -3.33,-3.906 -2.776,3.694 -5.893,6.62 -9.352,8.775 z"
   id="path10"
   style="fill:url(#SVGID_1_)"
   inkscape:connector-curvature="0" />
	
		<linearGradient
   id="SVGID_2_"
   gradientUnits="userSpaceOnUse"
   x1="412.72171"
   y1="59.203602"
   x2="412.72171"
   y2="1.2995"
   gradientTransform="matrix(1,0,0,-1,-221.54186,109.70053)">
		<stop
   offset="0"
   style="stop-color:#D35015"
   id="stop13" />
		<stop
   offset="1"
   style="stop-color:#B51F22"
   id="stop15" />
	</linearGradient>
	<path
   d="m 161.52514,106.20673 v -5.988 c 1.282,-0.533996 2.178,-1.770996 2.69,-3.714996 0.384,-1.515 0.651,-3.49 0.801,-5.924 l 0.993,-16.781 h 5.732 l -0.96,16.557 c -0.299,5.38 -1.101,9.159 -2.402,11.335996 -1.281,2.114 -3.566,3.619 -6.854,4.515 z m 0.193,-35.547996 v -5.924 h 15.373 v -5.636 h -15.373 v -5.926 h 29.88 c 0.96,0 1.569,-0.116 1.825,-0.352 0.235,-0.192 0.406,-0.577 0.513,-1.153 h 5.86 c -0.149,1.708 -0.491,3.011 -1.024,3.908 -1.345,2.327 -3.502,3.491 -6.469,3.491 l -9.288,0.032 v 5.636 h 15.565 v 5.924 h -15.565 v 35.259996 h -5.924 V 70.658734 h -15.373 l 0,0 z m 27.254,3.14 h 5.7 l 0.993,16.492 c 0.192,3.182 0.481,5.38 0.865,6.597 0.362,1.046 0.757,1.827 1.185,2.339 0.277,0.32 0.757,0.65 1.441,0.992996 v 5.956 c -2.093,-0.618 -3.512,-1.194 -4.26,-1.729 -2.028,-1.473 -3.426,-3.748 -4.195,-6.820996 -0.32,-1.282 -0.555,-3.117 -0.705,-5.51 l -1.024,-18.317 z m 14.988,32.215996 v -5.956 l 7.076,-0.064 c 1.067,-0.022 1.772,-0.128 2.114,-0.32 1.066,-0.64 1.602,-1.623 1.602,-2.947 l 0.063,-45.027 h 6.021 v 44.835 c 0,4.205996 -1.354,7.002996 -4.066,8.390996 -1.558,0.791 -3.617,1.174 -6.182,1.153 l -6.628,-0.065 z m 0,-9.415996 v -42.528 h 6.021 v 42.528 h -6.021 z"
   id="path17"
   style="fill:url(#SVGID_2_)"
   inkscape:connector-curvature="0" />
</g>
<path
   d="m 88.026801,36.465948 v -3.98898 H 105.72608 V 25.686423 H 88.345522 V 21.761054 H 105.72608 V 16.370629 H 88.345522 V 12.44526 h 38.622218 v 3.925369 h -17.31695 v 5.390425 h 17.31695 v 3.925369 h -17.31695 v 6.790545 h 9.31646 V 28.89086 h 3.90549 l 0.0205,3.586108 h 4.41438 v 3.98898 H 88.026801 z m 0.06295,-25.910484 V 7.5418623 c 0,-1.484935 0.537386,-2.744578 1.613484,-3.776942 1.046279,-1.003872 2.362245,-1.506139 3.947235,-1.506139 h 12.07561 V 0.32724028 h 3.94591 V 2.2587813 h 10.99289 c 1.42795,0 2.48881,0.119272 3.18456,0.360466 0.91906,0.311432 1.71818,0.883937 2.39604,1.718178 0.73551,0.934296 1.11188,1.840099 1.12447,2.716747 v 3.5012917 h -3.92603 l -0.0212,-2.3125487 c 0,-0.622864 -0.28227,-1.168201 -0.84749,-1.634687 -0.34059,-0.296854 -0.89321,-0.445281 -1.65655,-0.445281 H 94.541695 c -0.948211,0 -1.590291,0.254446 -1.930879,0.763339 -0.397573,0.551964 -0.593709,1.139047 -0.593709,1.761911 v 1.8666037 l -3.927357,6.63e-4 0,0 z"
   id="path19"
   inkscape:connector-curvature="0"
   style="fill:#666666" />
<g
   enable-background="new    "
   id="g21"
   transform="matrix(0.6626214,0,0,0.6626214,-62.977321,-62.846422)">
	<path
   d="m 95.601,162.151 h 1.75 l 4.054,9.604 4.22,-9.604 h 0.309 l 4.248,9.604 4.132,-9.604 h 1.77 l -5.745,13.226 h -0.315 l -4.229,-9.469 -4.227,9.469 h -0.317 l -5.65,-13.226 z"
   id="path23"
   inkscape:connector-curvature="0"
   style="fill:#989898" />
	<path
   d="m 131.253,162.151 v 13.226 h -1.677 v -2.273 c -0.713,0.867 -1.514,1.52 -2.401,1.957 -0.887,0.437 -1.858,0.657 -2.911,0.657 -1.872,0 -3.471,-0.679 -4.795,-2.036 -1.325,-1.357 -1.987,-3.009 -1.987,-4.954 0,-1.904 0.668,-3.533 2.005,-4.886 1.337,-1.354 2.946,-2.03 4.826,-2.03 1.086,0 2.068,0.23 2.948,0.692 0.88,0.462 1.651,1.155 2.316,2.079 v -2.432 h 1.676 z m -6.801,1.301 c -0.947,0 -1.821,0.233 -2.623,0.698 -0.802,0.466 -1.439,1.119 -1.913,1.961 -0.474,0.842 -0.71,1.732 -0.71,2.671 0,0.932 0.239,1.822 0.716,2.672 0.477,0.85 1.119,1.512 1.924,1.984 0.805,0.474 1.669,0.711 2.592,0.711 0.931,0 1.813,-0.235 2.647,-0.704 0.833,-0.47 1.475,-1.105 1.924,-1.906 0.449,-0.802 0.674,-1.704 0.674,-2.708 0,-1.529 -0.504,-2.809 -1.512,-3.837 -1.005,-1.027 -2.246,-1.542 -3.719,-1.542 z"
   id="path25"
   inkscape:connector-curvature="0"
   style="fill:#989898" />
	<path
   d="m 135.083,162.151 h 1.702 v 2.371 c 0.681,-0.908 1.434,-1.587 2.261,-2.036 0.827,-0.45 1.726,-0.675 2.699,-0.675 0.988,0 1.866,0.251 2.631,0.754 0.766,0.502 1.331,1.179 1.696,2.029 0.365,0.852 0.547,2.176 0.547,3.976 v 6.807 h -1.702 v -6.309 c 0,-1.523 -0.063,-2.541 -0.189,-3.051 -0.197,-0.876 -0.575,-1.534 -1.134,-1.976 -0.56,-0.441 -1.289,-0.662 -2.188,-0.662 -1.029,0 -1.951,0.34 -2.766,1.021 -0.815,0.681 -1.352,1.523 -1.611,2.528 -0.163,0.656 -0.243,1.856 -0.243,3.599 v 4.85 h -1.702 v -13.226 z"
   id="path27"
   inkscape:connector-curvature="0"
   style="fill:#989898" />
	<path
   d="m 161.667,162.151 h 1.702 v 10.539 c 0,1.856 -0.162,3.213 -0.486,4.072 -0.446,1.216 -1.22,2.151 -2.322,2.808 -1.102,0.657 -2.427,0.985 -3.975,0.985 -1.135,0 -2.154,-0.161 -3.057,-0.481 -0.904,-0.321 -1.639,-0.752 -2.207,-1.293 -0.568,-0.541 -1.09,-1.331 -1.568,-2.371 h 1.848 c 0.503,0.875 1.152,1.523 1.947,1.945 0.795,0.421 1.781,0.632 2.957,0.632 1.16,0 2.14,-0.216 2.939,-0.648 0.799,-0.432 1.369,-0.976 1.71,-1.629 0.341,-0.654 0.511,-1.711 0.511,-3.169 v -0.681 c -0.641,0.811 -1.424,1.433 -2.349,1.866 -0.925,0.433 -1.906,0.65 -2.944,0.65 -1.217,0 -2.361,-0.302 -3.432,-0.905 -1.071,-0.603 -1.898,-1.416 -2.482,-2.438 -0.584,-1.021 -0.876,-2.144 -0.876,-3.367 0,-1.223 0.304,-2.364 0.913,-3.422 0.609,-1.058 1.45,-1.894 2.525,-2.51 1.075,-0.616 2.208,-0.924 3.401,-0.924 0.99,0 1.913,0.205 2.768,0.613 0.856,0.41 1.681,1.084 2.477,2.024 v -2.296 z m -5.021,1.301 c -0.964,0 -1.86,0.233 -2.687,0.699 -0.826,0.466 -1.475,1.11 -1.945,1.933 -0.47,0.822 -0.705,1.712 -0.705,2.668 0,1.451 0.486,2.65 1.459,3.599 0.972,0.948 2.232,1.422 3.78,1.422 1.564,0 2.822,-0.47 3.774,-1.41 0.952,-0.939 1.428,-2.176 1.428,-3.707 0,-0.997 -0.219,-1.887 -0.656,-2.669 -0.438,-0.781 -1.058,-1.399 -1.86,-1.854 -0.801,-0.453 -1.664,-0.681 -2.588,-0.681 z"
   id="path29"
   inkscape:connector-curvature="0"
   style="fill:#989898" />
	<path
   d="m 166.76,157.047 h 1.702 v 18.33 h -1.702 v -18.33 z"
   id="path31"
   inkscape:connector-curvature="0"
   style="fill:#989898" />
	<path
   d="m 172.588,156.706 c 0.387,0 0.718,0.138 0.992,0.413 0.274,0.275 0.412,0.608 0.412,0.997 0,0.381 -0.137,0.709 -0.412,0.984 -0.274,0.275 -0.605,0.413 -0.992,0.413 -0.379,0 -0.706,-0.138 -0.98,-0.413 -0.274,-0.275 -0.411,-0.604 -0.411,-0.984 0,-0.389 0.137,-0.722 0.411,-0.997 0.274,-0.275 0.6,-0.413 0.98,-0.413 z m -0.845,5.445 h 1.702 v 13.226 h -1.702 v -13.226 z"
   id="path33"
   inkscape:connector-curvature="0"
   style="fill:#989898" />
	<path
   d="m 177.092,175.377 v -18.33 h 1.702 v 7.378 c 0.712,-0.875 1.51,-1.529 2.392,-1.963 0.882,-0.434 1.85,-0.65 2.902,-0.65 1.87,0 3.467,0.679 4.791,2.036 1.323,1.357 1.985,3.004 1.985,4.941 0,1.912 -0.668,3.545 -2.004,4.898 -1.335,1.354 -2.942,2.03 -4.821,2.03 -1.077,0 -2.052,-0.231 -2.926,-0.693 -0.875,-0.462 -1.647,-1.154 -2.319,-2.078 v 2.431 h -1.702 z m 6.807,-1.301 c 0.946,0 1.819,-0.232 2.619,-0.699 0.8,-0.466 1.437,-1.12 1.91,-1.963 0.473,-0.843 0.709,-1.733 0.709,-2.674 0,-0.941 -0.239,-1.836 -0.715,-2.687 -0.477,-0.851 -1.118,-1.514 -1.922,-1.987 -0.805,-0.475 -1.664,-0.711 -2.577,-0.711 -0.93,0 -1.813,0.236 -2.65,0.711 -0.837,0.474 -1.479,1.112 -1.928,1.914 -0.449,0.803 -0.673,1.706 -0.673,2.711 0,1.531 0.503,2.813 1.51,3.841 1.006,1.03 2.245,1.544 3.717,1.544 z"
   id="path35"
   inkscape:connector-curvature="0"
   style="fill:#989898" />
	<path
   d="m 207.141,162.151 v 13.226 h -1.678 v -2.273 c -0.713,0.867 -1.514,1.52 -2.4,1.957 -0.888,0.438 -1.858,0.657 -2.912,0.657 -1.872,0 -3.471,-0.679 -4.795,-2.036 -1.325,-1.357 -1.987,-3.009 -1.987,-4.954 0,-1.904 0.668,-3.533 2.005,-4.886 1.337,-1.354 2.946,-2.03 4.826,-2.03 1.086,0 2.068,0.23 2.947,0.692 0.88,0.462 1.652,1.155 2.316,2.079 v -2.432 h 1.678 z m -6.802,1.301 c -0.947,0 -1.821,0.233 -2.623,0.698 -0.802,0.466 -1.439,1.119 -1.913,1.961 -0.474,0.842 -0.71,1.732 -0.71,2.671 0,0.932 0.239,1.822 0.716,2.672 0.477,0.85 1.119,1.512 1.924,1.984 0.805,0.474 1.669,0.711 2.592,0.711 0.931,0 1.813,-0.235 2.647,-0.704 0.833,-0.47 1.475,-1.105 1.924,-1.906 0.449,-0.802 0.674,-1.704 0.674,-2.708 0,-1.529 -0.504,-2.809 -1.512,-3.837 -1.005,-1.027 -2.245,-1.542 -3.719,-1.542 z"
   id="path37"
   inkscape:connector-curvature="0"
   style="fill:#989898" />
	<path
   d="m 217.229,161.812 c 2.038,0 3.727,0.737 5.066,2.212 1.217,1.346 1.826,2.938 1.826,4.777 0,1.848 -0.643,3.463 -1.93,4.844 -1.287,1.382 -2.941,2.073 -4.963,2.073 -2.029,0 -3.688,-0.691 -4.974,-2.073 -1.286,-1.381 -1.931,-2.996 -1.931,-4.844 0,-1.831 0.609,-3.42 1.827,-4.765 1.34,-1.483 3.034,-2.224 5.079,-2.224 z m -0.006,1.665 c -1.414,0 -2.631,0.522 -3.646,1.568 -1.018,1.045 -1.525,2.31 -1.525,3.792 0,0.957 0.232,1.848 0.695,2.675 0.463,0.826 1.09,1.465 1.879,1.914 0.789,0.45 1.654,0.675 2.598,0.675 0.944,0 1.81,-0.225 2.599,-0.675 0.788,-0.449 1.415,-1.088 1.878,-1.914 0.464,-0.827 0.695,-1.718 0.695,-2.675 0,-1.482 -0.51,-2.747 -1.53,-3.792 -1.022,-1.046 -2.236,-1.568 -3.643,-1.568 z"
   id="path39"
   inkscape:connector-curvature="0"
   style="fill:#989898" />
	<path
   d="m 229.142,172.703 c 0.413,0 0.767,0.146 1.058,0.438 0.292,0.291 0.438,0.648 0.438,1.069 0,0.413 -0.146,0.768 -0.438,1.063 -0.291,0.296 -0.645,0.444 -1.058,0.444 -0.413,0 -0.766,-0.148 -1.058,-0.444 -0.291,-0.296 -0.438,-0.65 -0.438,-1.063 0,-0.421 0.146,-0.778 0.438,-1.069 0.292,-0.292 0.645,-0.438 1.058,-0.438 z"
   id="path41"
   inkscape:connector-curvature="0"
   style="fill:#989898" />
	<path
   d="m 246.998,164.898 -1.35,0.839 c -1.165,-1.548 -2.756,-2.321 -4.771,-2.321 -1.61,0 -2.947,0.518 -4.012,1.554 -1.065,1.036 -1.598,2.295 -1.598,3.776 0,0.963 0.245,1.87 0.734,2.72 0.49,0.85 1.162,1.51 2.016,1.979 0.854,0.469 1.812,0.704 2.871,0.704 1.943,0 3.529,-0.774 4.76,-2.322 l 1.35,0.888 c -0.632,0.952 -1.48,1.69 -2.547,2.215 -1.065,0.525 -2.279,0.788 -3.641,0.788 -2.09,0 -3.824,-0.665 -5.202,-1.994 -1.378,-1.329 -2.066,-2.945 -2.066,-4.85 0,-1.28 0.322,-2.47 0.966,-3.568 0.645,-1.098 1.529,-1.954 2.656,-2.57 1.127,-0.616 2.387,-0.924 3.781,-0.924 0.875,0 1.719,0.134 2.533,0.401 0.814,0.267 1.506,0.615 2.073,1.045 0.567,0.43 1.051,0.976 1.447,1.64 z"
   id="path43"
   inkscape:connector-curvature="0"
   style="fill:#989898" />
	<path
   d="m 256.527,161.812 c 2.038,0 3.727,0.737 5.066,2.212 1.217,1.346 1.826,2.938 1.826,4.777 0,1.848 -0.643,3.463 -1.93,4.844 -1.287,1.382 -2.941,2.073 -4.963,2.073 -2.029,0 -3.688,-0.691 -4.974,-2.073 -1.286,-1.381 -1.931,-2.996 -1.931,-4.844 0,-1.831 0.609,-3.42 1.827,-4.765 1.341,-1.483 3.034,-2.224 5.079,-2.224 z m -0.006,1.665 c -1.414,0 -2.631,0.522 -3.646,1.568 -1.018,1.045 -1.525,2.31 -1.525,3.792 0,0.957 0.232,1.848 0.695,2.675 0.463,0.826 1.09,1.465 1.879,1.914 0.789,0.45 1.654,0.675 2.598,0.675 0.944,0 1.81,-0.225 2.599,-0.675 0.788,-0.449 1.415,-1.088 1.878,-1.914 0.464,-0.827 0.695,-1.718 0.695,-2.675 0,-1.482 -0.51,-2.747 -1.53,-3.792 -1.021,-1.046 -2.235,-1.568 -3.643,-1.568 z"
   id="path45"
   inkscape:connector-curvature="0"
   style="fill:#989898" />
	<path
   d="m 266.557,162.151 h 1.701 v 2.285 c 0.592,-0.842 1.201,-1.458 1.825,-1.848 0.86,-0.518 1.765,-0.777 2.714,-0.777 0.641,0 1.25,0.126 1.825,0.377 0.576,0.251 1.047,0.585 1.412,1.003 0.364,0.417 0.681,1.015 0.949,1.793 0.565,-1.037 1.272,-1.825 2.122,-2.364 0.85,-0.539 1.763,-0.809 2.74,-0.809 0.914,0 1.721,0.23 2.42,0.692 0.699,0.462 1.219,1.106 1.559,1.933 0.339,0.827 0.509,2.067 0.509,3.72 v 7.221 h -1.738 v -7.221 c 0,-1.418 -0.101,-2.393 -0.303,-2.923 -0.202,-0.531 -0.548,-0.958 -1.036,-1.282 -0.488,-0.324 -1.072,-0.486 -1.75,-0.486 -0.824,0 -1.578,0.243 -2.26,0.729 -0.684,0.485 -1.182,1.134 -1.496,1.944 -0.315,0.811 -0.473,2.164 -0.473,4.06 v 5.179 h -1.702 v -6.771 c 0,-1.597 -0.099,-2.681 -0.298,-3.252 -0.198,-0.571 -0.545,-1.028 -1.039,-1.373 -0.494,-0.345 -1.082,-0.517 -1.763,-0.517 -0.786,0 -1.521,0.236 -2.206,0.711 -0.686,0.474 -1.191,1.112 -1.52,1.914 -0.328,0.803 -0.492,2.03 -0.492,3.684 v 5.604 h -1.701 v -13.226 z"
   id="path47"
   inkscape:connector-curvature="0"
   style="fill:#989898" />
</g></svg>
