<?xml version="1.0" encoding="UTF-8" standalone="no"?>
<svg width="51px" height="52px" viewBox="0 0 51 52" version="1.1" xmlns="http://www.w3.org/2000/svg" xmlns:xlink="http://www.w3.org/1999/xlink" xmlns:sketch="http://www.bohemiancoding.com/sketch/ns">
    <!-- Generator: Sketch 3.0.3 (7891) - http://www.bohemiancoding.com/sketch -->
    <title>Untitled 4</title>
    <desc>Created with Sketch.</desc>
    <defs></defs>
    <g id="Page-1" stroke="none" stroke-width="1" fill="none" fill-rule="evenodd" sketch:type="MSPage">
        <path d="M48.6129564,44.536 C47.4969564,46.682 39.0719564,60.468 16.2069564,38.468 C-7.89104358,15.269 0.872956425,5.266 5.00795642,2.329 L5.00795642,2.321 C5.07395642,2.275 5.13995642,2.238 5.20595642,2.189 C5.32495642,2.111 5.43595642,2.041 5.54395642,1.97 C5.58895642,1.946 5.63795642,1.912 5.68395642,1.879 C6.27695642,1.517 6.67295642,1.348 6.67295642,1.348 L6.67295642,1.381 C9.57695642,0.132 12.7079564,0.655 13.8859564,3.185 L16.2719564,8.991 C17.6769564,12.007 16.0749564,16.411 12.6879564,18.833 L12.4159564,19.026 C16.0329564,25.436 21.9209564,32.403 31.4789564,37.747 L31.9369564,37.104 C34.3599564,33.721 38.7629564,32.12 41.7799564,33.52 L47.1599564,36.334 C50.0959564,37.706 50.8339564,41.216 48.6129564,44.536 L48.6129564,44.536 Z M42.3219564,7.705 L30.4819564,7.705 C30.0289564,7.705 29.6659564,8.072 29.6659564,8.521 C29.6659564,8.974 30.0289564,9.341 30.4819564,9.341 L42.3219564,9.341 C42.7709564,9.341 43.1419564,8.974 43.1419564,8.521 C43.1419564,8.072 42.7709564,7.705 42.3219564,7.705 L42.3219564,7.705 Z M42.3219564,12.579 L30.4819564,12.579 C30.0289564,12.579 29.6659564,12.946 29.6659564,13.395 C29.6659564,13.848 30.0289564,14.209 30.4819564,14.209 L42.3219564,14.209 C42.7709564,14.209 43.1419564,13.848 43.1419564,13.395 C43.1419564,12.947 42.7709564,12.579 42.3219564,12.579 L42.3219564,12.579 Z M49.1939564,10.618 C49.1939564,14.276 46.8909564,17.708 43.1629564,19.632 C40.4069564,25.157 34.1149564,25.321 33.3939564,25.321 L33.3939564,25.321 L33.2949564,25.321 C32.9369564,25.309 32.6319564,25.065 32.5319564,24.723 C32.4379564,24.381 32.5689564,24.014 32.8699564,23.817 C34.0449564,23.051 34.9789564,22.182 35.6679564,21.217 C28.9519564,20.901 23.6089564,16.266 23.6089564,10.617 C23.6089564,4.762 29.3479564,7.10542736e-15 36.4009564,7.10542736e-15 C43.4539564,7.10542736e-15 49.1939564,4.763 49.1939564,10.618 L49.1939564,10.618 Z M47.5619564,10.618 C47.5619564,5.665 42.5569564,1.636 36.4019564,1.636 C30.2469564,1.636 25.2419564,5.665 25.2419564,10.618 C25.2419564,15.569 30.2469564,19.602 36.4019564,19.602 C36.6249564,19.602 36.8429564,19.594 37.0609564,19.586 C37.0699564,19.582 37.0849564,19.582 37.0979564,19.582 C37.3699564,19.582 37.6249564,19.717 37.7779564,19.949 C37.9389564,20.187 37.9599564,20.492 37.8359564,20.752 C37.3989564,21.67 36.8019564,22.523 36.0529564,23.307 C37.9849564,22.787 40.4729564,21.563 41.8079564,18.684 C41.8859564,18.514 42.0219564,18.379 42.1869564,18.297 C45.5519564,16.646 47.5619564,13.779 47.5619564,10.618 L47.5619564,10.618 Z" id="Shape" fill="#000000" sketch:type="MSShapeGroup"></path>
    </g>
</svg>