<?xml version="1.0" encoding="UTF-8" standalone="no"?>
<svg width="40px" height="40px" viewBox="0 0 40 40" version="1.1" xmlns="http://www.w3.org/2000/svg" xmlns:xlink="http://www.w3.org/1999/xlink" xmlns:sketch="http://www.bohemiancoding.com/sketch/ns">
    <!-- Generator: Sketch 3.0.3 (7891) - http://www.bohemiancoding.com/sketch -->
    <title>Untitled 4</title>
    <desc>Created with Sketch.</desc>
    <defs></defs>
    <g id="Page-1" stroke="none" stroke-width="1" fill="none" fill-rule="evenodd" sketch:type="MSPage">
        <path d="M19.997,0 C8.953,0 0,8.959 0,20.011 C0,31.062 8.953,40.021 19.997,40.021 C31.041,40.021 39.994,31.062 39.994,20.011 C39.994,8.959 31.041,0 19.997,0 L19.997,0 Z M2.547,20.011 C2.547,10.366 10.36,2.548 19.998,2.548 C29.635,2.548 37.448,10.366 37.448,20.011 C37.448,29.654 29.635,37.473 19.998,37.473 C10.36,37.473 2.547,29.655 2.547,20.011 Z" id="Shape" fill="#000000" sketch:type="MSShapeGroup"></path>
        <path d="M18.507,20.6149574 C16.611,20.1209574 14.469,21.0659574 13.646,22.7369574 C12.807,24.4419574 13.619,26.3339574 15.534,26.9529574 C17.517,27.5929574 19.855,26.6119574 20.668,24.7719574 C21.469,22.9729574 20.468,21.1219574 18.507,20.6149574 L18.507,20.6149574 Z M17.059,24.9669574 C16.673,25.5809574 15.848,25.8509574 15.227,25.5679574 C14.615,25.2889574 14.434,24.5749574 14.819,23.9749574 C15.2,23.3769574 15.998,23.1109574 16.614,23.3709574 C17.238,23.6359574 17.437,24.3459574 17.059,24.9669574 L17.059,24.9669574 Z M18.328,23.3379574 C18.189,23.5759574 17.881,23.6909574 17.64,23.5909574 C17.403,23.4929574 17.328,23.2269574 17.463,22.9929574 C17.602,22.7599574 17.898,22.6449574 18.135,22.7399574 C18.375,22.8279574 18.461,23.0969574 18.328,23.3379574 L18.328,23.3379574 Z M30.421,12.1039574 C28.84,10.3509574 26.51,9.68195736 24.358,10.1399574 L24.357,10.1399574 C23.859,10.2459574 23.542,10.7369574 23.648,11.2339574 C23.754,11.7319574 24.244,12.0489574 24.742,11.9439574 C26.272,11.6189574 27.929,12.0939574 29.053,13.3399574 C30.175,14.5849574 30.48,16.2839574 29.999,17.7729574 L29.999,17.7739574 C29.842,18.2579574 30.107,18.7769574 30.593,18.9339574 C31.076,19.0899574 31.596,18.8259574 31.753,18.3419574 L31.753,18.3379574 C32.427,16.2429574 32.001,13.8549574 30.421,12.1039574 L30.421,12.1039574 Z M27.642,17.8429574 C28.059,17.9769574 28.506,17.7489574 28.641,17.3309574 C28.97,16.3109574 28.764,15.1479574 27.994,14.2949574 C27.224,13.4409574 26.089,13.1159574 25.041,13.3399574 C24.612,13.4309574 24.339,13.8529574 24.431,14.2819574 C24.523,14.7089574 24.945,14.9839574 25.371,14.8899574 L25.371,14.8909574 C25.884,14.7829574 26.439,14.9409574 26.815,15.3579574 C27.191,15.7749574 27.293,16.3429574 27.131,16.8429574 L27.132,16.8429574 C26.998,17.2599574 27.226,17.7089574 27.642,17.8429574 L27.642,17.8429574 Z M25.681,18.7739574 C26.065,17.8059574 26.105,16.9719574 25.688,16.3769574 C24.908,15.2609574 22.77,15.3199574 20.321,16.3469574 C20.321,16.3459574 19.551,16.6839574 19.749,16.0739574 C20.126,14.8619574 20.068,13.8459574 19.482,13.2609574 C18.153,11.9309574 14.619,13.3119574 11.588,16.3429574 C9.318,18.6139574 8,21.0219574 8,23.1029574 C8,27.0839574 13.103,29.5049574 18.094,29.5049574 C24.638,29.5049574 28.99,25.6999574 28.99,22.6799574 C28.991,20.8539574 27.455,19.8179574 26.075,19.3899574 C25.736,19.2869574 25.504,19.2189574 25.681,18.7739574 Z M18.108,28.0769574 C14.125,28.4699574 10.687,26.6679574 10.428,24.0519574 C10.169,21.4359574 13.189,18.9949574 17.172,18.6019574 C21.155,18.2069574 24.594,20.0089574 24.852,22.6239574 C25.111,25.2419574 22.092,27.6819574 18.108,28.0769574 L18.108,28.0769574 Z" id="Shape" fill="#000000" sketch:type="MSShapeGroup"></path>
    </g>
</svg>