<?xml version="1.0" encoding="UTF-8" standalone="no"?>
<svg width="200px" height="160px" viewBox="0 0 200 160" version="1.1" xmlns="http://www.w3.org/2000/svg" xmlns:xlink="http://www.w3.org/1999/xlink" xmlns:sketch="http://www.bohemiancoding.com/sketch/ns">
    <!-- Generator: Sketch 3.0.3 (7891) - http://www.bohemiancoding.com/sketch -->
    <title>weibo 2</title>
    <desc>Created with Sketch.</desc>
    <defs></defs>
    <g id="Page-1" stroke="none" stroke-width="1" fill="none" fill-rule="evenodd" sketch:type="MSPage">
        <g id="weibo" sketch:type="MSLayerGroup" fill="#000000">
            <path d="M87.3113402,86.4820513 C71.556701,82.4328205 53.7525773,90.1887179 46.9092784,103.901538 C39.9402062,117.885128 46.6783505,133.409231 62.5958763,138.484103 C79.0824742,143.737436 98.5154639,135.686154 105.270103,120.590769 C111.934021,105.835897 103.612371,90.6441026 87.3113402,86.4820513 L87.3113402,86.4820513 L87.3113402,86.4820513 Z M75.2804124,122.196923 C72.0783505,127.241026 65.2226804,129.452308 60.0597938,127.124103 C54.9670103,124.834872 53.4639175,118.972308 56.6680412,114.051282 C59.8309278,109.150769 66.457732,106.970256 71.5835052,109.091282 C76.7690722,111.277949 78.4247423,117.099487 75.2804124,122.196923 L75.2804124,122.196923 L75.2804124,122.196923 Z M85.828866,108.824615 C84.6701031,110.775385 82.1134021,111.718974 80.1072165,110.902564 C78.1360825,110.102564 77.5175258,107.915897 78.6391753,105.995897 C79.7938144,104.082051 82.2515464,103.144615 84.2206186,103.917949 C86.2164948,104.642051 86.9360825,106.853333 85.828866,108.824615 L85.828866,108.824615 L85.828866,108.824615 Z M150.218557,76.4369231 C147.402062,75.6 145.470103,75.0338462 146.948454,71.3784615 C150.140206,63.4441026 150.472165,56.5969231 147.008247,51.7128205 C140.517526,42.5476923 122.752577,43.0461538 102.393814,51.4666667 C102.393814,51.454359 96.0020619,54.2297436 97.6350515,49.2184615 C100.769072,39.2738462 100.296907,30.9415385 95.4226804,26.1333333 C84.3752577,15.2164103 55.0020619,26.5476923 29.8123711,51.4215385 C10.9484536,70.0574359 -0.00412371134,89.8092308 -0.00412371134,106.888205 C-0.00412371134,139.552821 42.4041237,159.415385 83.8907216,159.415385 C138.280412,159.415385 174.457732,128.198974 174.457732,103.417436 C174.457732,88.4451282 161.690722,79.9487179 150.218557,76.4369231 L150.218557,76.4369231 L150.218557,76.4369231 Z M84.0020619,147.706667 C50.8969072,150.935385 22.3195876,136.153846 20.1690722,114.678974 C18.0185567,93.214359 43.1216495,73.1917949 76.2247423,69.9548718 C109.334021,66.7241026 137.91134,81.505641 140.057732,102.970256 C142.204124,124.449231 117.11134,144.473846 84.0020619,147.706667 L84.0020619,147.706667 L84.0020619,147.706667 Z M186.336082,16.6502564 C173.202062,2.26871795 153.828866,-3.21641026 135.948454,0.539487179 L135.942268,0.539487179 C131.804124,1.41333333 129.16701,5.43589744 130.051546,9.51589744 C130.934021,13.5979487 135.002062,16.2092308 139.140206,15.3353846 C151.861856,12.6666667 165.628866,16.5702564 174.964948,26.7917949 C184.292784,37.0071795 186.824742,50.9394872 182.830928,63.1589744 L182.83299,63.1610256 C181.529897,67.1405128 183.734021,71.4010256 187.769072,72.6851282 C191.787629,73.9712821 196.105155,71.7969231 197.408247,67.825641 C197.408247,67.8194872 197.408247,67.8010256 197.410309,67.7969231 C203.014433,50.6133333 199.474227,31.0215385 186.336082,16.6502564 L186.336082,16.6502564 L186.336082,16.6502564 Z M163.247423,63.7476923 C166.71134,64.8451282 170.428866,62.9764103 171.54433,59.5487179 C174.284536,51.1794872 172.569072,41.6369231 166.164948,34.6338462 C159.771134,27.6307692 150.334021,24.9661538 141.618557,26.7979487 C138.057732,27.5487179 135.787629,31.0092308 136.552577,34.5312821 C137.313402,38.0369231 140.816495,40.2892308 144.369072,39.5261538 L144.369072,39.5364103 C148.628866,38.6420513 153.247423,39.9425641 156.371134,43.36 C159.498969,46.785641 160.340206,51.4502564 158.997938,55.5446154 L159.004124,55.5446154 C157.890722,58.9661538 159.785567,62.64 163.247423,63.7476923 L163.247423,63.7476923 L163.247423,63.7476923 Z" id="path-1" sketch:type="MSShapeGroup"></path>
        </g>
    </g>
</svg>