<?xml version="1.0" encoding="UTF-8" standalone="no"?>
<svg width="93px" height="78px" viewBox="0 0 93 78" version="1.1" xmlns="http://www.w3.org/2000/svg" xmlns:xlink="http://www.w3.org/1999/xlink" xmlns:sketch="http://www.bohemiancoding.com/sketch/ns">
    <!-- Generator: Sketch 3.0.3 (7891) - http://www.bohemiancoding.com/sketch -->
    <title>weixin 2</title>
    <desc>Created with Sketch.</desc>
    <defs>
        <path d="M77.6714986,66.1605843 C86.7283983,62.6864763 93,55.1682005 93,46.4536132 C93,34.4367503 81.0755707,24.6944264 66.368286,24.6944264 C65.5085156,24.6944264 64.6593295,24.7310731 63.8207277,24.7962228 C62.4309283,11.1945934 48.9302533,0.519 32.4724891,0.519 C15.0890062,0.519 0.998053097,12.4251084 0.998053097,27.1122948 C0.998053097,37.5712654 5.13325565,44.5268107 15.5254048,48.8714816 C17.4843135,49.6891104 11.1109397,68.3088958 10.683497,68.2128 C11.1915431,68.7421413 29.8028042,53.706404 32.4733032,53.706404 C35.3823559,53.706404 38.19615,53.3659968 40.8699057,52.741374 C44.1722057,61.692129 54.3363854,68.2128 66.368286,68.2128 C68.1309782,68.2128 81.6495651,78.1497586 83.3153703,77.8826448 C85.4704955,77.5389801 75.7370152,66.9032909 77.6714986,66.1605843 L77.6714986,66.1605843 Z M25.4241629,29.8388099 L14.8398681,29.8388099 L14.8398681,19.251983 L25.4241629,19.251983 L25.4241629,29.8388099 L25.4241629,29.8388099 Z M49.035282,29.8388099 L38.4509873,29.8388099 L38.4509873,19.251983 L49.035282,19.251983 L49.035282,29.8388099 L49.035282,29.8388099 Z M61.2479298,50.1980924 L51.4778116,50.1980924 L51.4778116,40.4256368 L61.2479298,40.4256368 L61.2479298,50.1980924 L61.2479298,50.1980924 Z M71.0180481,50.1980924 L71.0180481,40.4256368 L80.7881664,40.4256368 L80.7881664,50.1980924 L71.0180481,50.1980924 L71.0180481,50.1980924 Z" id="path-1"></path>
    </defs>
    <g id="Page-1" stroke="none" stroke-width="1" fill="none" fill-rule="evenodd" sketch:type="MSPage">
        <mask id="mask-2" sketch:name="weixin" fill="white">
            <use xlink:href="#path-1"></use>
        </mask>
        <use id="weixin" fill="#000000" sketch:type="MSShapeGroup" xlink:href="#path-1"></use>
    </g>
</svg>