<?xml version="1.0" standalone="no"?>
<!DOCTYPE svg PUBLIC "-//W3C//DTD SVG 1.1//EN" "http://www.w3.org/Graphics/SVG/1.1/DTD/svg11.dtd" >
<svg xmlns="http://www.w3.org/2000/svg">
<metadata>
Created by FontForge 20120731 at Tue Mar 22 11:10:58 2016
 By Ads
</metadata>
<defs>
<font id="iconfont" horiz-adv-x="1024" >
  <font-face 
    font-family="iconfont"
    font-weight="500"
    font-stretch="normal"
    units-per-em="1024"
    panose-1="2 0 6 3 0 0 0 0 0 0"
    ascent="896"
    descent="-128"
    x-height="792"
    bbox="-0.5 -224 1029.45 896.5"
    underline-thickness="50"
    underline-position="-100"
    unicode-range="U+0078-E66B"
  />
<missing-glyph horiz-adv-x="374" 
d="M34 0v682h272v-682h-272zM68 34h204v614h-204v-614z" />
    <glyph glyph-name=".notdef" horiz-adv-x="374" 
d="M34 0v682h272v-682h-272zM68 34h204v614h-204v-614z" />
    <glyph glyph-name=".null" horiz-adv-x="0" 
 />
    <glyph glyph-name="nonmarkingreturn" horiz-adv-x="341" 
 />
    <glyph glyph-name="x" unicode="x" horiz-adv-x="1001" 
d="M281 543q-27 -1 -53 -1h-83q-18 0 -36.5 -6t-32.5 -18.5t-23 -32t-9 -45.5v-76h912v41q0 16 -0.5 30t-0.5 18q0 13 -5 29t-17 29.5t-31.5 22.5t-49.5 9h-133v-97h-438v97zM955 310v-52q0 -23 0.5 -52t0.5 -58t-10.5 -47.5t-26 -30t-33 -16t-31.5 -4.5q-14 -1 -29.5 -0.5
t-29.5 0.5h-32l-45 128h-439l-44 -128h-29h-34q-20 0 -45 1q-25 0 -41 9.5t-25.5 23t-13.5 29.5t-4 30v167h911zM163 247q-12 0 -21 -8.5t-9 -21.5t9 -21.5t21 -8.5q13 0 22 8.5t9 21.5t-9 21.5t-22 8.5zM316 123q-8 -26 -14 -48q-5 -19 -10.5 -37t-7.5 -25t-3 -15t1 -14.5
t9.5 -10.5t21.5 -4h37h67h81h80h64h36q23 0 34 12t2 38q-5 13 -9.5 30.5t-9.5 34.5q-5 19 -11 39h-368zM336 498v228q0 11 2.5 23t10 21.5t20.5 15.5t34 6h188q31 0 51.5 -14.5t20.5 -52.5v-227h-327z" />
    <glyph glyph-name="uniE600" unicode="&#xe600;" 
d="M512 800q-104 0 -199 -40.5t-163.5 -109t-109 -163.5t-40.5 -199t40.5 -199t109 -163.5t163.5 -109t199 -40.5t199 40.5t163.5 109t109 163.5t40.5 199q0 139 -68.5 257t-186 186.5t-257.5 68.5zM512 -209q-101 0 -193 39.5t-158.5 106t-106 158.5t-39.5 193
q0 67 18 131.5t50 119t78 100.5t100.5 78t119 50t131.5 18q81 0 156.5 -25t137 -71t107.5 -107.5t71 -137t25 -156.5q0 -101 -39 -193t-105.5 -158.5t-159 -106t-193.5 -39.5zM350 282q4 14 13 34.5t21 42.5t23 37q-49 4 -104.5 -29.5t-84.5 -90.5q66 49 132 6zM301 134
l8 -32q50 12 98 60l-24 24q-41 -41 -82 -52zM443 127l-23 23q-49 -52 -60 -98l32 -7q10 38 51 82zM538 93q42 -67 -6 -131q57 29 90.5 84.5t29.5 103.5q-23 -16 -57.5 -33t-56.5 -24zM799 551q-57 4 -109 -7t-93.5 -33.5t-76 -52t-61 -65t-45 -71t-31.5 -72.5l123 -123
q46 16 88.5 40t84 61t71 81t45.5 105t11 129q0 5 -7 8zM591 289q-10 -9 -23.5 -9t-23.5 9q-6 7 -8.5 15.5t0 17t9 15t15 8.5t17 0t14.5 -9q4 -4 6.5 -8.5t3 -9.5t0 -10t-3 -10t-6.5 -9zM698 366q-16 -16 -38.5 -16t-38 15.5t-15.5 38t15.5 38t38 15.5t38.5 -15q6 -7 9.5 -15
t5 -16t0 -16t-5 -15.5t-9.5 -13.5zM418 47q-3 -31 -11 -41q-12 -14 -32.5 -9t-27.5 28q-15 -15 -35 -15t-33 13q-11 12 -11 31.5t14 34.5q-22 6 -27 27t8 33q2 2 4.5 3.5t5.5 3t5.5 2t6.5 1t5.5 1t7 1t6.5 0.5l-4 28q-9 0 -17 -0.5t-15 -2t-13.5 -4.5t-11.5 -7t-8.5 -8.5
t-6.5 -10t-5 -11.5t-2 -12q-2 -31 20 -54q-13 -39 9 -70q14 -20 37.5 -28t50.5 1q21 -23 54 -20q27 2 43.5 23t13.5 54z" />
    <glyph glyph-name="uniE601" unicode="&#xe601;" 
d="M512 800q-104 0 -199 -40.5t-163.5 -109t-109 -163.5t-40.5 -199t40.5 -199t109 -163.5t163.5 -109t199 -40.5t199 40.5t163.5 109t109 163.5t40.5 199q0 140 -68.5 257.5t-186 186t-257.5 68.5zM512 -209q-101 0 -193 39.5t-158.5 106t-106 158.5t-39.5 193
q0 67 18 131.5t50 119t78 100.5t100.5 78t119 50t131.5 18q81 0 156.5 -25t137 -71t107.5 -107.5t71 -137t25 -156.5q0 -101 -39 -193t-105.5 -158.5t-159 -106t-193.5 -39.5zM645 522q-60 10 -118 32l-12 5l-12 -5q-58 -23 -118 -32q-54 -8 -111 -1l-38 4v-42
q2 -252 77 -382q66 -113 193 -145l7 -2l8 2q127 32 193 145q36 62 56.5 156t22.5 226v42l-38 -4q-57 -5 -110 1zM701 251h-186v-219q-94 26 -143 110q-25 40 -43 108h186v227q64 -25 121 -31q44 -7 88 -4q-1 -29 -3 -54.5t-5 -49t-6.5 -45.5t-8.5 -42z" />
    <glyph glyph-name="uniE602" unicode="&#xe602;" 
d="M512 800q-104 0 -199 -40.5t-163.5 -109t-109 -163.5t-40.5 -199t40.5 -199t109 -163.5t163.5 -109t199 -40.5t199 40.5t163.5 109t109 163.5t40.5 199t-40.5 199t-109 163.5t-163.5 109t-199 40.5zM512 -209q-101 0 -193 39.5t-158.5 106t-106 158.5t-39.5 193
q0 67 18 131.5t50 119t78 100.5t100.5 78t119 50t131.5 18q81 0 156.5 -25t137 -71t107.5 -107.5t71 -137t25 -156.5q0 -101 -39.5 -193t-106 -158.5t-158.5 -106t-193 -39.5zM707 231h-101q5 10 5 23q0 18 -4.5 32.5t-8.5 20t-13 16.5q-5 7 -8 11t-5.5 12.5t-2.5 19.5
q0 18 16.5 38t33.5 31.5t32 17.5q12 5 12 18v95q0 3 -1 6t-3 5.5t-4.5 4.5t-5.5 3t-7 1h-253q-8 0 -14 -6t-6 -14v-95q0 -13 11 -18q26 -11 54 -36t28 -51q0 -24 -16 -43q-8 -9 -12.5 -15t-9 -20.5t-4.5 -33.5q0 -8 6 -23h-101q-8 0 -14.5 -6t-6.5 -15v-137q0 -5 3 -10
t7.5 -8t10.5 -3h13v-14q0 -16 15 -20q3 -1 5 -1h318q8 0 14 6t6 15v14h11q5 0 9.5 3t7.5 7.5t3 10.5v137q-1 9 -7 15t-13 6zM474 292q9 12 13 17.5t9.5 21t5.5 33.5q0 29 -20 57t-39 42t-39 25v68h224v-68q-98 -56 -98 -124q0 -12 1.5 -22t4 -17t6.5 -13.5t7.5 -10.5t7.5 -9
l7 -6q1 -2 4 -6.5t4 -8t2 -9.5t1 -13q0 -9 -19 -16t-40 -9q-20 1 -39 8t-19 17q-1 15 3 24t13 19zM686 93h-341v98h341v-98zM758 38h86v-19h-86v19zM186 38h73v-19h-73v19zM178 98l82 -37l8 16l-81 38zM222 148l38 -38l14 13l-38 39zM815 86l-8 18l-52 -27l7 -16z" />
    <glyph glyph-name="uniE603" unicode="&#xe603;" 
d="M982 618q-51 6 -67 6q-51 0 -100.5 -11t-94.5 -31q-21 44 -50.5 83t-66.5 72t-78 57l-13 6l-13 -6q-62 -36 -113 -91.5t-82 -120.5q-99 42 -195 42q-42 0 -67 -6l-23 -4v-22q3 -179 117.5 -315.5t285.5 -167.5v-240q0 -14 4.5 -27.5t12.5 -25t18.5 -19.5t24 -13t27.5 -5
q36 0 61 26t25 64v240q172 31 286.5 167.5t116.5 315.5v22zM512 739q15 -9 29.5 -20t27.5 -22.5t25.5 -24.5t24 -26.5t21.5 -28t19 -29.5t16 -31q-102 -62 -163 -151q-32 47 -74 86t-89 65q12 22 25 43t28.5 41t32.5 37.5t36.5 33t40.5 27.5zM74 570q6 0 19 1.5t19 1.5
q116 0 216 -58.5t158 -156.5q-48 -91 -57 -201q-155 30 -256 154q-92 114 -99 259zM515 147q-5 0 0 0h-9q-4 0 -9.5 0.5t-10.5 1t-9 1.5q5 82 38 154q34 -72 39 -154q-9 0 -22 -1.5t-17 -1.5zM512 -173q-11 0 -20 5t-13.5 14t-4.5 20v233q4 0 9.5 -0.5t9.5 -1t9.5 -1
t9.5 -0.5h14q4 0 11 1t13 2v-233q0 -7 -1.5 -13t-5 -10.5t-8 -8t-10.5 -5.5t-13 -2zM598 157q-4 101 -57 201q58 98 158 156.5t216 58.5q23 0 39 -3q-11 -166 -126 -286q-98 -100 -230 -127z" />
    <glyph glyph-name="uniE604" unicode="&#xe604;" horiz-adv-x="1030" 
d="M1029 176q-12 148 -106 221q17 4 26.5 6.5t23 7t24.5 8.5q4 2 7.5 6t5 9.5t-0.5 10.5q-2 7 -10 11t-15 2q-33 -13 -83 -23q-37 101 -144 208q-7 6 -16 7h-452q-3 0 -16 -7q-12 -13 -30.5 -33t-56.5 -74t-57 -101q-16 4 -42.5 12t-37.5 11q-8 2 -15.5 -1t-9.5 -12
q-3 -8 0.5 -16t12.5 -10q8 -2 21 -6.5t25.5 -8.5t23.5 -7q-39 -27 -69 -80.5t-37 -140.5q-9 -90 42 -141q16 -16 26 -19v-67q0 -7 5.5 -11.5t13.5 -4.5h99q8 0 13.5 4.5t5.5 11.5v48h615v-48q0 -7 5.5 -11.5t13.5 -4.5h99q2 0 4 1h4q2 1 3.5 2t3 2.5t2.5 3t1.5 3.5t0.5 4v67
q7 4 10 6.5t8 6t8 6.5q50 45 45 141zM302 605h432q28 -28 66 -79.5t59 -103.5q-145 -28 -339 -28q-97 0 -184 7t-159 21q21 54 58.5 103.5t66.5 79.5zM958 61q-28 -29 -73 -29h-736q-45 0 -74 29q-34 33 -29 112q3 36 11 66.5t18.5 51.5t22.5 37.5t24.5 26.5t22 16.5
t16.5 9.5l7 3q165 -32 349 -32q197 0 345 29q4 0 14.5 -5t27.5 -19.5t33 -36t29.5 -61.5t17.5 -89q5 -36 -2 -63t-24 -46zM257 176h-102q-9 0 -14 -5.5t-5 -13.5q0 -7 6 -13t13 -6h102q9 0 14.5 5.5t5.5 13.5t-5.5 13.5t-14.5 5.5zM648 176h-250q-9 0 -14 -5.5t-5 -13.5
q0 -7 6 -13t13 -6h250q18 1 19 19q0 8 -5 13.5t-14 5.5zM885 176h-103q-18 -1 -19 -19q0 -7 6 -13t13 -6h103q18 1 19 19q0 7 -6 13t-13 6z" />
    <glyph glyph-name="uniE605" unicode="&#xe605;" 
d="M871 395q9 0 17 8t8 17q0 7 -3.5 13t-9.5 9.5t-12 3.5h-22v67q0 13 -3 25.5t-9 23.5t-13.5 20.5t-17 17t-20.5 13.5t-23.5 9t-25.5 3h-456q-46 0 -79 -33.5t-33 -78.5v-456q0 -46 33 -79t79 -33h456q45 0 78.5 33t33.5 79v76h22q9 0 17 8t8 18q0 6 -3.5 12t-9.5 9.5
t-12 3.5h-22v208h22v3zM801 446h-23q-4 0 -9 -2.5t-8.5 -6t-5.5 -8t-2 -9.5q0 -9 8 -17t17 -8h23v-207h-23q-9 0 -17 -8t-8 -18t8 -18t17 -8h23v-76q0 -25 -17.5 -43t-43.5 -18h-456q-12 0 -23 4.5t-19.5 12.5t-13.5 19.5t-5 24.5v456q0 25 17.5 43t43.5 18h456q10 0 19 -3
t16.5 -8.5t13 -13t9 -17t3.5 -19.5v-70zM514 404q-48 0 -81.5 -33.5t-33.5 -81t33.5 -81t81 -33.5t81 33.5t33.5 81.5q-2 47 -35.5 80.5t-78.5 33.5zM514 226q-27 0 -45.5 18.5t-18.5 45t18.5 45t45 18.5t45 -18.5t18.5 -44.5q-2 -27 -20.5 -45.5t-42.5 -18.5zM826 800h-628
q-82 0 -140 -58t-58 -140v-628q0 -82 58 -140t140 -58h628q82 0 140 58t58 140v628q-2 82 -59.5 140t-138.5 58zM970 -23q0 -60 -42.5 -103.5t-104.5 -43.5h-628q-61 0 -104 42.5t-43 104.5v625q0 30 11.5 57t30.5 46.5t46.5 31.5t58.5 12h628q24 0 46 -7t40 -20.5t32 -31.5
t21.5 -40.5t7.5 -47.5v-625z" />
    <glyph glyph-name="uniE606" unicode="&#xe606;" horiz-adv-x="1028" 
d="M682 294h-32q-26 0 -43.5 -18.5t-17.5 -45.5v-89q0 -17 8.5 -32t22.5 -23.5t30 -8.5h32q26 0 43 18.5t17 45.5v89q0 18 -8.5 32.5t-22.5 23t-29 8.5zM701 141q0 -7 -6 -13t-13 -6h-32q-8 0 -14 6t-6 13v89q0 5 3 9.5t7.5 7.5t9.5 3h32q4 0 8.5 -3t7.5 -7.5t3 -9.5v-89z
M1005 -93h-131v707q0 27 -13 49t-35 34.5t-48 12.5h-445q-39 0 -67.5 -28.5t-28.5 -67.5v-19q-39 -2 -64.5 -29.5t-25.5 -66.5v-592h-125q-9 0 -15.5 -6.5t-6.5 -15.5q0 -7 3 -12t8 -8t11 -3h983q9 0 15.5 6.5t6.5 16.5q-2 9 -8.5 15.5t-13.5 6.5zM189 -93v592q0 11 4 20.5
t10.5 16.5t15 11.5t18.5 6.5v-647h-48zM832 -93h-550v707q0 6 1 12t3.5 11.5t6 10.5t8 8.5t9.5 6.5t11 4.5t12 1.5h445q14 0 25.5 -7.5t18.5 -20t7 -27.5v-707h3zM682 586h-32q-6 0 -11 -1t-9.5 -2.5t-8.5 -4t-8 -5.5t-7 -6.5t-6 -7.5t-5 -8t-3.5 -9t-2 -10t-0.5 -10v-90
q0 -17 8.5 -32t22.5 -23.5t30 -8.5h32q10 0 19.5 3.5t17 9t13 13.5t8 18t2.5 20v90q0 17 -8.5 31.5t-22.5 23.5t-29 9zM701 435q0 -14 -15 -18q-3 -1 -4 -1h-32q-3 0 -6 1t-5.5 3t-4.5 4l-2 6q-2 2 -2 5v90q0 7 6 13t14 6h32q7 0 13 -6t6 -13v-90zM458 294h-32
q-18 0 -32 -8.5t-21.5 -23t-7.5 -32.5v-89q0 -26 18 -45t43 -19h32q26 0 43 18.5t17 45.5v89q0 9 -2 17.5t-6 15.5t-10 13t-12.5 10t-14.5 6t-15 2zM474 141q0 -4 -2 -7.5t-4.5 -6t-6 -4t-7.5 -1.5h-32q-14 0 -18 14q-1 3 -1 5v89q0 4 2 7.5t4.5 6t6 4.5t6.5 2h32
q15 0 19 -15q0 -3 1 -5v-89zM458 586h-32q-7 0 -13 -1.5t-11.5 -4t-10.5 -6t-9 -8t-7 -9.5t-5.5 -10.5t-3.5 -12t-1 -12.5v-90q0 -26 18 -45t43 -19h32q26 0 43 18.5t17 45.5v90q0 10 -3 20t-9 17.5t-13.5 13.5t-16.5 9.5t-18 3.5zM474 435q0 -14 -15 -18q-3 -1 -5 -1h-32
q-14 0 -18 15q-1 2 -1 4v90q0 3 2 6.5t4.5 6.5t6 4.5t6.5 1.5h32q15 0 19 -15q0 -2 1 -4v-90z" />
    <glyph glyph-name="uniE607" unicode="&#xe607;" 
d="M677 635q20 23 34 48.5t21 55t3 57.5q-21 -1 -43.5 -7t-44 -16t-42 -23.5t-34.5 -29.5q-30 -30 -47 -73t-12 -85q80 -4 150 59q8 7 15 14zM816 259q0 36 12 69t27.5 53.5t35.5 38t29.5 24t15.5 9.5q-65 87 -201 102q-38 3 -81 -9t-79 -25.5t-52 -13.5q-18 0 -80.5 22
t-102.5 22q-70 0 -130.5 -34.5t-99.5 -93.5q-36 -56 -44.5 -128t6.5 -141t42.5 -131.5t64.5 -111.5q23 -30 38.5 -47.5t39 -39.5t48 -32t50.5 -9q30 2 82.5 21.5t100.5 19.5q43 0 95 -20.5t87 -20.5q19 0 36 4.5t32.5 14.5t28 20t26.5 26t23 28.5t23 31.5q24 32 43 68t26 55
t7 23q-1 0 -9 3t-22 10.5t-29.5 18.5t-31.5 28t-28.5 37t-20.5 48t-8 60z" />
    <glyph glyph-name="uniE608" unicode="&#xe608;" 
d="M369 624q8 0 13.5 -5t5.5 -12.5t-5.5 -13t-13.5 -5.5v36zM600 624q5 0 9 -2t6.5 -6.5t2.5 -9.5q0 -7 -5.5 -12.5t-12.5 -5.5v36zM146 475q-24 0 -41 -17t-17 -42v-252q0 -17 7.5 -30t21 -21t29.5 -8q25 0 42 17t17 42v252q0 16 -8.5 29.5t-22 21.5t-28.5 8zM647 712
l11 19l11 14l26 37q2 3 0.5 7t-4.5 7q-2 2 -4.5 1.5t-5 -1.5t-4.5 -3l-26 -41l-22 -36q-55 22 -113 22q-64 0 -114 -22l-22 36l-25 41q-8 7 -15 3q-6 -8 -4 -14l26 -37l11 -14l11 -19q-20 -10 -38 -22.5t-33.5 -27.5t-28 -32t-21.5 -35.5t-13.5 -39t-4.5 -40.5h541
q-2 62 -39.5 114.5t-99.5 82.5zM399 592q-8 0 -14.5 4t-11 11t-4.5 14q0 11 9.5 20t20.5 9q7 0 13.5 -4t11 -11t4.5 -14q-3 -12 -11 -20.5t-18 -8.5zM629 592q-11 0 -20 9t-9 20t9 20t20 9t20 -9t9 -20t-9 -20t-20 -9zM245 475h-4v-432q0 -16 9 -30.5t23 -23t31 -8.5h43
q0 -2 -1.5 -7.5t-1.5 -7.5v-124q0 -16 7.5 -29.5t21 -21.5t29.5 -8q25 0 42 17t17 42v124q0 11 -4 15h106q0 -2 -1 -5t-1.5 -5.5t-0.5 -4.5v-124q0 -16 7.5 -29.5t21 -21.5t29.5 -8q25 0 42 17t17 42v124q0 11 -4 15h44q16 0 30.5 8.5t23 23t8.5 30.5v432h-534zM881.5 475
q-24.5 0 -41.5 -17t-17 -42v-252q0 -25 17 -42t41.5 -17t41.5 17t17 42v252q0 25 -17 42t-41.5 17z" />
    <glyph glyph-name="uniE609" unicode="&#xe609;" horiz-adv-x="1025" 
d="M954 797h-112q-29 0 -50 -21t-21 -50v-876q0 -29 21 -50t50 -21h112q28 0 49 21t21 50v876q0 11 -2.5 20t-7 17t-11 14.5t-14.5 10.5t-17 6.5t-18 2.5zM570 518h-112q-19 0 -35.5 -9.5t-26 -25.5t-9.5 -35v-598q0 -29 21 -50t50 -21h112q28 0 49 21t21 50v598
q0 29 -21 49.5t-49 20.5zM182 314h-112q-18 0 -34.5 -9.5t-26 -26t-9.5 -35.5v-393q0 -29 21 -50t49 -21h112q9 0 16.5 2t14.5 5.5t13 8.5t11 11t8.5 13t5.5 14.5t2 16.5v393q0 31 -19.5 51t-51.5 20z" />
    <glyph glyph-name="uniE60A" unicode="&#xe60a;" 
d="M74 384q60 84 153.5 131.5t201.5 47.5q102 0 185 -41q14 -5 20 -23q1 -9 0.5 -14t-4.5 -15l-70 -102l448 42l-150 380l-58 -83q-7 -11 -21.5 -14.5t-26.5 1.5q-120 58 -237 58q-127 0 -240 -57t-182 -157q-73 -100 -83 -237l22 -7q9 46 42 90zM995 278q-26 -57 -45 -83
q-39 -56 -94.5 -96t-122 -61.5t-138.5 -21.5q-102 0 -185 42q-14 4 -20 22q-3 10 4 29l70 102l-448 -41l150 -381l58 83q7 11 21.5 14.5t26.5 -1.5q56 -27 115.5 -41t121.5 -14q84 0 163.5 25.5t146 74t112.5 115.5q73 100 83 237z" />
    <glyph glyph-name="uniE60B" unicode="&#xe60b;" 
d="M595 298q13 25 17 46t1 34.5t-12 22.5t-20 13t-24 5q-77 9 -151 -48q-61 -46 -64 -64q0 -13 10 -13q6 -1 26 18t44 37.5t39 15.5q3 0 6.5 -3t4 -9t-4.5 -14l-86 -160q-51 -85 -55 -134q-2 -26 12 -40.5t40 -17.5q33 -4 74 10t72.5 35.5t53.5 43.5t24 33q0 6 -3.5 11
t-6.5 5q-5 0 -24.5 -18.5t-42.5 -36t-35 -16.5q-9 2 -10 16q2 11 22 52zM634 592q-32 5 -58 -15.5t-29 -51.5q-2 -29 13.5 -49t44.5 -25q20 -3 39.5 4.5t32.5 24.5t14 38q1 15 -2.5 27.5t-10.5 22t-18.5 16t-25.5 8.5zM512 797q-83 0 -160.5 -25.5t-140.5 -72.5t-110 -110
t-72.5 -140.5t-25.5 -160.5t25.5 -160.5t72.5 -140.5t110 -110t140.5 -72.5t160.5 -25.5q104 0 198 40.5t162 108.5t108.5 162t40.5 198q-1 83 -27.5 160.5t-73.5 140.5t-109.5 110t-139.5 72.5t-159 25.5zM512 -128q-113 0 -210 56.5t-153 153t-56 209.5t56 210t153 153
t210 56q49 0 96 -11t88 -31.5t77.5 -49.5t65.5 -65.5t49.5 -77.5t31.5 -88t11 -96q-1 -115 -57.5 -211.5t-152.5 -152t-209 -55.5z" />
    <glyph glyph-name="uniE60C" unicode="&#xe60c;" 
d="M374 301h199v-42h-199v42zM720 438h112v-41h-112v41zM630 438h45v-41h-45v41zM138 0h-6q-2 0 -5 0.5t-5 1.5l-6 2l-4 2l-6 2l-4 4q-3 1 -5 3l-4 4q-19 27 -19 45v397q0 26 19 45q14 13 35 19v48q0 13 3 22q-53 -5 -86 -38q-39 -39 -39 -93v-397q0 -54 39 -93
q17 -17 42 -27.5t51 -10.5h51v-93h41l93 93h317q-32 38 -51 70h-451v-6zM374 566h458v-41h-458v41zM608 301h221v-42h-221v42zM979 701q-41 41 -96 41h-585q-55 0 -96 -41q-39 -39 -39 -96v-410q0 -52 39 -96q42 -41 96 -41h304l160 -218l64 22l-13 170l-71 -6l4 -45
l-96 131l-10 16h-339q-26 1 -45 19q-19 19 -19 45v410q0 30 19 44q20 19 45 20h585q26 0 45 -20q19 -19 19 -44v-410q0 -30 -19 -45q-19 -19 -45 -19h-67v-74h67q55 0 96 42q39 38 39 96v410q0 30 -11 56t-31 43zM374 438h90v-41h-90v41zM499 438h90v-41h-90v41z" />
    <glyph glyph-name="uniE60D" unicode="&#xe60d;" 
d="M330 304h169v-22h-169v22zM330 230h169v-22h-169v22zM330 160h169v-22h-169v22zM330 86h169v-22h-169v22zM144 675v-128h-141v-480q0 -86 36 -124.5t108 -38.5h762q43 0 77.5 35t34.5 80v656h-877zM144 67q0 -89 -35 -89q-32 0 -32 89v410h70v-410h-3zM947 19
q0 -7 -3 -15t-7.5 -14.5t-12 -11t-15.5 -4.5h-714q19 34 19 96v535h733v-586zM563 381h282v-263h-282v263zM355 502h442v-44h-442v44zM330 381h169v-23h-169v23z" />
    <glyph glyph-name="uniE60E" unicode="&#xe60e;" horiz-adv-x="1028" 
d="M944 512q-7 7 -13 10q-16 3 -48 3q-42 0 -84 -11t-63 -21l-16 5q-11 4 -46 17t-72 29q-50 20 -91.5 16t-78.5 -26q-95 7 -176 7q-64 22 -180 38h-6q-3 1 -6.5 0.5t-6.5 -2t-5.5 -3.5t-4 -5t-2.5 -6q-3 -8 -12.5 -67t-19.5 -153.5t-10 -163.5q0 -7 4.5 -13t11.5 -6
q26 -6 61 -6q18 0 39.5 0.5t35.5 1.5t15 1q12 0 19 13q0 1 3 9q2 5 3 8l3 9l4 12l38 -32q177 -147 208 -170q26 -19 61 -19h9q24 5 39 19q31 -13 67 -3q22 11 32 26q9 -2 17 -2t18 2t19 6q27 16 36 39q11 0 21 4t20 12q33 28 23 73l22 16q7 -6 10 -6q24 -10 92 -10
q36 0 71 3q3 0 16 7q6 6 6 16q-2 6 -13 76t-29 143t-41 104zM586 509q39 -18 73 -31t49.5 -18.5t17.5 -5.5q11 -19 27.5 -61t32 -85.5t27.5 -80.5l-26 -19q-34 50 -110 120.5t-130 106.5q-4 2 -8.5 2.5t-10.5 0.5l-10 -3q-19 -6 -32 -9h-6q-11 0 -16 -10
q-24 -34 -42.5 -47.5t-40.5 -6.5q-9 6 -10 12q-5 19 8.5 51t33.5 49q17 19 43 31.5t60.5 16t69.5 -12.5zM758 128q-8 -9 -19 -3q-8 7 -34 30.5t-61 55.5t-46 42q-17 11 -28 0q-7 -8 -6.5 -16t6.5 -13l134 -125q-3 -9 -16 -16q-21 -10 -32 0v0q-23 18 -67.5 57.5t-50.5 48.5
q-3 3 -7 5t-8 2t-8 -2t-6 -5q-4 -3 -5.5 -6.5t-1.5 -8t1.5 -8.5t5.5 -6q4 -6 22.5 -22.5t48.5 -43t38 -33.5q-8 -7 -13 -10q-22 -11 -45 7v0q-25 21 -48 44t-38 42q-5 7 -14.5 7t-14.5 -7q-6 -8 -6.5 -15.5t6.5 -13.5q51 -51 77 -73q-2 0 -3.5 -1t-3.5 -2t-3 -1
q-20 -5 -42 10q-39 30 -204 166l-52 45q48 150 61 247q21 0 34 -0.5t34.5 -1t37.5 -2.5q-25 -25 -42.5 -65.5t-8.5 -71.5q1 -7 4.5 -13.5t8.5 -12t11.5 -9.5t13.5 -7q70 -21 125 61q26 5 41 10q60 -41 137.5 -116t96.5 -112q4 -24 -10 -38z" />
    <glyph glyph-name="uniE60F" unicode="&#xe60f;" 
d="M1018 173q0 70 -42.5 130t-112.5 94.5t-149 34.5q-127 0 -215.5 -75.5t-88.5 -183.5t88.5 -183.5t215.5 -75.5q33 0 108 19l100 -55l-26 90q122 93 122 205zM618 243q-14 0 -25 11.5t-11 23.5q0 4 1.5 8t3.5 7.5t4.5 6.5t5.5 5.5t6.5 4.5t7 3t7.5 1q8 0 15.5 -2.5
t12.5 -6t9 -8t5.5 -9.5t1.5 -10q0 -9 -5.5 -17t-16 -13t-22.5 -5zM816 243q-9 0 -17.5 5.5t-13 13.5t-4.5 16q0 7 3 14t8 11.5t11.5 7.5t12.5 3q18 0 31.5 -11.5t13.5 -24.5q0 -14 -13 -24.5t-32 -10.5zM691 451q23 0 35 -3q-15 71 -67.5 128t-129.5 89.5t-164 32.5
q-97 0 -179 -40.5t-131 -110.5t-49 -153q0 -143 144 -240l-35 -109l125 64q5 -1 25 -5.5t26.5 -6t21.5 -4t27 -3t25 -0.5h32q-10 34 -10 73q0 59 24 112.5t64.5 92t97 61t118.5 22.5zM499 576q21 0 33 -12.5t12 -32.5q0 -7 -2 -14t-6 -12.5t-9.5 -9.5t-12.5 -6.5t-15 -2.5
q-9 0 -19 3.5t-17.5 9.5t-12.5 14.5t-5 17.5q0 21 15.5 33t38.5 12zM246 486q-12 0 -24.5 6t-21 16.5t-8.5 22.5q0 14 8.5 24.5t20.5 15.5t25 5q7 0 12.5 -1.5t10.5 -4.5t9 -7t7 -9t4.5 -10.5t1.5 -12.5q0 -32 -29 -42q-8 -2 -16 -3z" />
    <glyph glyph-name="uniE610" unicode="&#xe610;" horiz-adv-x="1025" 
d="M758 294q-8 2 -13.5 4t-8 5t-3 5.5t0.5 5.5l2 4q1 3 2 4l1 1q1 2 2.5 4t4.5 10t5 15.5t3 18.5t-0.5 21t-6.5 21.5t-14 21.5q-15 15 -41.5 20t-52.5 1.5t-50 -9.5t-39 -12l-16 -6q-32 -10 -37.5 0.5t3.5 37.5q2 6 2 10q0 17 -2.5 32t-12 31.5t-26 25t-47.5 8.5t-72 -14
q-39 -13 -81 -41t-73.5 -58t-57.5 -58t-40 -46l-13 -18q-24 -32 -40.5 -65t-23 -55.5t-9 -43.5t-2 -27.5t0.5 -9.5q6 -47 25.5 -85.5t50 -65t66.5 -46.5t79.5 -32.5t83 -19.5t82.5 -11q85 -8 178 13.5t173 72t113 119.5q17 35 20.5 65.5t-4.5 52.5t-21.5 39.5t-31 28.5
t-32.5 17.5t-27 7.5zM400 -64q-126 -5 -213.5 48.5t-87.5 137t87.5 143.5t213.5 65q41 1 80 -3.5t72 -14t60.5 -24.5t47 -34t30.5 -43t11 -51q2 -42 -21 -82.5t-63.5 -70.5t-97.5 -49.5t-119 -21.5zM323 246q-65 -29 -94 -84t-5 -108q22 -52 82.5 -71t125.5 7q65 29 94 84.5
t5 107.5q-21 56 -82 74.5t-126 -10.5zM326 35q-21 -2 -37.5 10.5t-16.5 31.5q0 31 31 48q10 5 20 6q28 2 44.5 -11t16.5 -34q-2 -19 -18 -33.5t-40 -17.5zM426 122q-4 -3 -8 -4t-8 -1t-7.5 2t-5.5 6q-3 2 -3.5 6.5t0.5 9.5t3.5 9t5.5 7q5 4 11 5t11 -1.5t7 -6.5
q5 -5 5.5 -11.5t-2.5 -12t-9 -8.5zM838 362q12 0 19 6t7 16v3q16 131 -89 152q-34 7 -65 2q-8 0 -13.5 -3t-8.5 -9t-3 -14q0 -25 25 -25q26 5 44 2.5t28.5 -10.5t16.5 -19t8 -23.5t2 -22.5t-2 -17l-1 -6q6 -13 14.5 -22.5t17.5 -9.5zM822 694q-14 4 -29.5 5t-29 0.5t-26 -2
t-22.5 -4t-17.5 -4t-12 -3t-3.5 -1.5q-10 -2 -16.5 -7.5t-9.5 -13.5t-3 -18q0 -16 12.5 -28.5t28.5 -12.5q1 0 2.5 0.5t6 1.5t8.5 2t10 1.5t12 0.5q8 0 23 1t38.5 -4.5t47 -14.5t48 -29.5t41.5 -48.5q9 -21 14 -41t5.5 -34t-1 -26.5t-4 -19t-4.5 -10.5h-1v-2t-0.5 -2.5
t-1.5 -3.5v-4l-2 -4v-6l-2 -4v-6q0 -7 2.5 -12t6 -9t9 -6.5t11.5 -3.5t13 -1q5 0 8.5 1t7 3t6 5t5.5 8.5t5.5 11.5t5.5 16q16 58 9 106.5t-26 86t-49 66t-61.5 45.5t-64.5 25z" />
    <glyph glyph-name="uniE611" unicode="&#xe611;" 
d="M736 -224l38 35l-454 477l454 474l-38 35l-483 -509z" />
    <glyph glyph-name="uniE612" unicode="&#xe612;" 
d="M288 -224l-38 35l454 477l-454 474l38 35l486 -509z" />
    <glyph glyph-name="uniE613" unicode="&#xe613;" 
d="M166 122h346v-346h-346v346zM166 800h346v-346h-346v346zM512 454h346v-345h-346v345z" />
    <glyph glyph-name="uniE614" unicode="&#xe614;" 
d="M512 626q-123 0 -267 -64q-166 -74 -220 -178q-22 -42 -22 -84q0 -35 14.5 -69t40 -63t59.5 -55.5t73.5 -47.5t82 -38.5t84.5 -29t81.5 -17.5t73.5 -6q54 0 121.5 15t135.5 44.5t124.5 68t92 91t35.5 107.5t-35.5 107.5t-92 91t-124.5 68t-135.5 44.5t-121.5 15zM800 127
q-69 -37 -148 -60t-140 -23q-63 0 -142.5 22.5t-145.5 60.5q-72 38 -111 84t-39 89t38.5 87.5t111.5 85.5q69 37 148 60t140 23q41 0 91 -10t101.5 -29t95.5 -44q36 -19 64 -40.5t47 -43.5t29 -44.5t10 -44.5q0 -85 -150 -173zM512 476q-74 0 -125 -51.5t-51 -124.5
q0 -74 51.5 -125t124.5 -51q74 0 125 51.5t51 124.5t-51 124.5t-125 51.5zM512 156q-58 0 -99.5 41.5t-41.5 99t41.5 99.5t99.5 42q38 0 70.5 -19t51.5 -51.5t19 -70.5t-19 -70.5t-51.5 -51.5t-70.5 -19zM851 585z" />
    <glyph glyph-name="uniE615" unicode="&#xe615;" 
d="M365 188q-2 2 -5.5 2.5t-7.5 0.5q-18 0 -29 -16l-29 -57q-4 -12 -0.5 -24.5t13.5 -17.5q12 -5 24.5 -1t17.5 14l29 57q5 12 1.5 24.5t-14.5 17.5zM170 265q-7 0 -12.5 -2.5t-10.5 -7.5l-38 -45q-6 -6 -7.5 -14t1.5 -16t9 -14q10 -10 22.5 -8.5t22.5 11.5l38 45q9 10 8 22
t-11 22q-13 7 -22 7zM531 188q-9 0 -17 -5t-13 -13t-5 -17v-109q0 -14 10.5 -24.5t25 -10.5t24.5 10.5t10 24.5v109q3 14 -7.5 24.5t-27.5 10.5zM723 178q-7 15 -21.5 19.5t-26.5 -3.5q-14 -7 -18.5 -21.5t2.5 -26.5l32 -64q7 -14 21.5 -18.5t26.5 2.5q13 8 18 22t-2 26z
M899 255q-9 12 -24 12.5t-27 -9.5q-8 -6 -11 -15t-1 -18.5t9 -17.5l48 -54q9 -12 24 -12.5t27 9.5q12 9 12.5 24t-9.5 27zM1021 566q-2 7 -4.5 12.5t-7.5 10t-11 5.5q-14 5 -28.5 -1.5t-19.5 -20.5q0 -3 -3 -6q-12 -38 -50.5 -76t-96.5 -68q-19 -11 -40 -21t-42.5 -18.5
t-43.5 -15.5t-44 -12t-43 -9t-40.5 -6t-37.5 -2q-63 0 -142.5 23t-148.5 61q-122 68 -148 144q0 3 -3 6q0 14 -13.5 20.5t-27.5 1.5q-9 -2 -14.5 -9.5t-8.5 -18.5v-10q0 -2 1.5 -6.5t1.5 -6.5q19 -59 78 -113t133.5 -89t153.5 -55.5t141 -20.5t141 20.5t153.5 55.5t133.5 89
t78 113q0 2 1.5 6.5t1.5 6.5v10z" />
    <glyph glyph-name="uniE616" unicode="&#xe616;" 
d="M710 797h-396q-21 0 -40.5 -8.5t-33.5 -22.5t-22.5 -33.5t-8.5 -40.5v-811q0 -28 14 -52.5t38.5 -38.5t52.5 -14h396q43 0 74 31t31 74v811q0 29 -14.5 53.5t-38.5 38t-52 13.5zM512 -179q-31 0 -52 14.5t-21 36.5q0 14 9.5 25.5t26.5 18.5t37 7q31 0 52 -15t21 -36
q0 -28 -35 -43q-18 -8 -38 -8zM732 -23h-437v686h437v-686z" />
    <glyph glyph-name="uniE617" unicode="&#xe617;" 
d="M912 563q-20 116 -112.5 184t-204.5 47q-44 -9 -84.5 -28t-74 -47t-56 -62t-31 -76.5t-0.5 -87.5q12 -63 38 -125l-268 -403q-18 -30 -13 -60l16 -103q2 -14 12.5 -21t22.5 -4l80 16q8 1 17.5 6.5t17.5 12t13 13.5l105 172l74 13l125 202q63 -10 134 3q72 14 120.5 68
t65 127.5t3.5 152.5zM781 483q-10 -13 -19 -21t-20 -8.5t-19.5 1t-22 10t-21.5 14.5t-25 19q-3 2 -4.5 3.5t-4.5 3.5t-5 4q-5 4 -18.5 13.5t-18.5 13t-16 12t-14.5 13.5t-9.5 13t-6.5 14.5t-1 15t3.5 17.5t11 19q31 46 83 55.5t96 -23.5q45 -33 54 -88t-22 -101z" />
    <glyph glyph-name="uniE618" unicode="&#xe618;" 
d="M995 698q-9 -4 -489 -173.5t-490 -172.5q-8 -3 -11.5 -8t-0.5 -10t12 -8q10 -4 63 -24.5t101 -39.5l47 -19l125 -51q602 442 608 448q4 3 9 1t5.5 -6t-1.5 -8q-7 -6 -435 -473l-26 -29l32 -19q259 -138 275 -148q12 -7 25.5 -1t16.5 21q3 9 42 179.5t78 340.5t40 174
q7 21 -10 26q-8 2 -16 0zM349 -109q0 -21 19 -6q13 13 157 141l-176 92v-227z" />
    <glyph glyph-name="uniE619" unicode="&#xe619;" 
d="M480 -112l-464 278l83 138l339 -205l442 589l128 -96z" />
    <glyph glyph-name="uniE61A" unicode="&#xe61a;" 
d="M234 26q-70 74 -93.5 171t2.5 194t97 169q45 45 98.5 72t112.5 37l-3 128q-176 -21 -298 -147q-96 -98 -131 -227.5t-2 -260t127 -229.5l-109 -109l343 -19v361zM646 768v-362l144 144q70 -74 93.5 -171t-2.5 -194t-97 -169q-88 -88 -211 -109l3 -128q176 21 298 147
q96 98 131 227.5t2 260t-127 229.5l109 109z" />
    <glyph glyph-name="uniE61B" unicode="&#xe61b;" 
d="M858 438h-109v84q0 131 -61 203t-179.5 72t-179 -72t-60.5 -203v-84h-119q-15 0 -29.5 -10.5t-22.5 -27t-8 -32.5v-467q0 -24 16.5 -47t40.5 -30l71 -22q64 -20 118 -20h349q15 0 37 3t43.5 7.5t37.5 9.5l71 22q6 2 12.5 5.5t12.5 8.5t11 10.5t9 12t6.5 13t4 13.5t1.5 14
v467q0 24 -23.5 47t-49.5 23zM390 544q0 63 32.5 97t86.5 34q35 0 61.5 -14.5t41.5 -44.5t15 -72v-109h-240v109h3z" />
    <glyph glyph-name="uniE61C" unicode="&#xe61c;" 
d="M794 118q-58 0 -103 -35l-294 176q0 4 0.5 9.5t1.5 10.5t1 9v4v4v4q0 2 -0.5 4.5t-1 4t-1 4t-0.5 4.5l294 176q15 -11 31 -19t34.5 -12t37.5 -4q45 0 84 22.5t62 62t23 84.5q0 70 -50 120t-119 50q-46 0 -85 -23t-62 -62t-23 -85v-9q0 -4 1 -9.5t2 -10.5l-294 -176
q-22 17 -48 26.5t-55 9.5q-45 0 -84 -23t-62 -62t-23 -85q0 -70 50 -120t119 -50q58 0 103 36l294 -176q0 -4 -0.5 -9.5t-1.5 -10.5t-1 -9q0 -70 50 -120t119.5 -50t119.5 50t50 120q3 69 -47 119t-122 50z" />
    <glyph glyph-name="uniE61D" unicode="&#xe61d;" 
d="M512 768q199 0 339.5 -140.5t140.5 -339.5t-140.5 -339.5t-339.5 -140.5t-339.5 140.5t-140.5 339.5q0 129 64 239.5t175 175.5t241 65zM512 800q-139 0 -256.5 -68t-186.5 -186t-69 -258q0 -138 69 -256t187 -187t256 -69q139 0 256.5 68t186.5 186t69 258
q0 138 -69 256t-187 187t-256 69zM512 198q94 0 175 -45t129 -124q-56 -66 -136 -103.5t-168 -37.5t-167 36.5t-137 104.5q48 79 129 124t175 45zM512 230q-109 0 -201.5 -56t-140.5 -148q61 -79 151 -124.5t191 -45.5t191 45.5t151 124.5q-12 22 -27.5 43t-33 40t-38 35
t-42.5 29.5t-46 24t-49 18t-52 11t-54 3.5zM512 522q24 0 45.5 -9.5t37.5 -25t25.5 -37.5t9.5 -47q0 -50 -34 -84t-84 -34t-84 34t-34 84t34.5 84.5t83.5 34.5zM512 554q-62 0 -106 -44t-44 -106.5t44 -106.5t106 -44t106 44t44 106t-44.5 106.5t-105.5 44.5z" />
    <glyph glyph-name="uniE61E" unicode="&#xe61e;" 
d="M1024 672h-1024l525 -781z" />
    <glyph glyph-name="uniE61F" unicode="&#xe61f;" 
d="M0 -109h1024l-525 781z" />
    <glyph glyph-name="uniE620" unicode="&#xe620;" horiz-adv-x="1025" 
d="M342 294zM298 293.5q0 18.5 13 31.5t31.5 13t31.5 -13t13 -31q0 -13 -6 -23t-16 -16t-23 -6q-18 0 -31 13t-13 31.5zM512 294zM467 293.5q0 18.5 13 31.5t32 13t32 -13t13 -31q0 -13 -6 -23t-16.5 -16t-22.5 -6q-19 0 -32 13t-13 31.5zM678 294zM634 293.5
q0 18.5 13 31.5t31.5 13t31.5 -13t13 -31.5t-13 -31.5t-31.5 -13t-31.5 13t-13 31.5zM205 178q-3 0 -5 0.5t-4 1.5t-4 2.5t-3 2.5l-167 163q-30 30 -19 74q7 19 23 32t35 16l230 32q10 2 18 -4t8 -16q2 -9 -4 -17t-15 -8l-231 -32q-14 0 -19 -16q-4 -15 6 -26l167 -163
q7 -7 7 -17.5t-7 -17.5q-7 -6 -16 -7zM240 -190q-12 0 -22 3t-20 10q-16 12 -23.5 30.5t-4.5 40.5l38 227q2 10 10.5 15.5t18.5 3.5t15.5 -10.5t3.5 -18.5l-38 -227q0 -18 9 -22q5 -5 12 -5.5t14 1.5l205 109q21 11 32 -9q9 -22 -10 -32l-205 -109q-25 -6 -35 -7zM784 -190
q-18 0 -32 10l-205 109q-20 10 -9 32q10 20 32 9l204 -108q17 -6 26 3q9 10 10 22l-39 227q-1 5 0 10t3.5 8.5t7 6.5t8.5 4q10 3 18.5 -3t10.5 -16l39 -227q2 -20 -5.5 -39.5t-23.5 -31.5q-21 -15 -45 -16zM819 178q-4 0 -8.5 2t-7.5 5q-7 7 -7 17.5t7 17.5l167 163
q11 11 6 26q-5 16 -19 16l-231 32q-10 2 -15.5 9t-3.5 16q3 11 10 16.5t16 3.5l230 -32q6 -1 12 -2.5t10.5 -4t9 -6t8.5 -7.5t7 -8.5t6 -9.5t5 -10q6 -20 1 -39.5t-20 -34.5l-167 -163q-7 -6 -16 -7zM656 508q-3 0 -6.5 1t-6.5 3t-4.5 4t-4.5 5l-103 208q-2 7 -8 10t-14 3
q-10 0 -23 -13l-102 -208q-10 -21 -32 -10q-20 10 -10 32l103 208q19 39 64 39q19 0 36.5 -11t27.5 -28l102 -208q10 -19 -9 -32q-5 -3 -10 -3z" />
    <glyph glyph-name="uniE621" unicode="&#xe621;" horiz-adv-x="1025" 
d="M916 602q14 0 27.5 -4.5t24 -12.5t18.5 -18.5t12.5 -23.5t4.5 -27v-457q0 -35 -25.5 -60.5t-61.5 -25.5h-808q-36 1 -61.5 26t-25.5 60v458q0 35 25.5 60.5t61.5 25.5h808v-1zM916 623h-808q-45 0 -76.5 -31t-31.5 -75v-457q0 -44 31.5 -75.5t76.5 -31.5h809
q45 0 76.5 31.5t31.5 75.5v457q-1 44 -32.5 75t-76.5 31zM167 372q0 -26 12.5 -47.5t34.5 -34t47 -12.5q39 0 66.5 27.5t27.5 66.5q0 25 -12.5 46.5t-34 34t-47.5 12.5q-39 0 -66.5 -27t-27.5 -66zM416 221q-23 0 -39.5 -16t-16.5 -39t16.5 -39t39.5 -16t39 16t16 39t-16 39
t-39 16zM415.5 124q-11.5 0 -21 5.5t-15 15.5t-5.5 21t5.5 21t15 15.5t21 5.5t21 -5.5t15 -15.5t5.5 -21t-5.5 -21t-15 -15.5t-21 -5.5zM416 231q-6 8 -14 15t-19 12.5t-21 9.5t-25 9q-2 -3 -7 -7t-23.5 -11t-41.5 -7q-11 0 -21 1.5t-17 3.5t-13 5t-10 5.5t-7 4.5t-4 4l-1 1
q-96 -34 -111 -134l-2 -32h300q-14 7 -22 23.5t-8 34.5q-2 0 0.5 14.5t18.5 30t48 17.5zM434 189l-24 -24l-11 12l-12 -12l23 -23l35 36zM722 404h-196q-8 0 -14 6t-6 14t5.5 13.5t14.5 5.5h196q8 0 14 -5.5t6 -13.5q-1 -9 -6.5 -14.5t-13.5 -5.5zM932 268h-406q-8 0 -14 6
t-6 14t5.5 14t14.5 6h406q8 0 13.5 -6t5.5 -14t-5.5 -14t-13.5 -6zM932 133h-406q-4 0 -7.5 1.5t-6.5 4t-4.5 6t-1.5 7.5q0 5 2.5 9.5t7 7.5t10.5 3h406q8 0 13.5 -6t5.5 -14q0 -2 -0.5 -4.5t-1.5 -4.5t-3 -4t-4 -3.5t-4.5 -2t-5.5 -0.5z" />
    <glyph glyph-name="uniE622" unicode="&#xe622;" 
d="M583 10l108 15l333 342q-1 4 -3 11t-11 24t-22.5 28t-29.5 18.5t-25 9.5l-10 2l-325 -342zM605 239.5q0 3.5 -1.5 6.5t-3.5 5t-5 3.5t-6 1.5h-418q-4 0 -7 -1.5t-5 -4t-3.5 -5t-1.5 -6.5q0 -6 5 -11t12 -5h418q3 0 6 1.5t5.5 3.5t3.5 5t1 6.5zM530 179h-359q-4 0 -7 -1
t-5 -2.5t-3.5 -5t-1.5 -7.5q0 -10 4.5 -13.5t12.5 -3.5h359q8 0 12 4t4 13q0 16 -16 16zM171 79h300q7 0 11.5 5t4.5 11q0 7 -4.5 11.5t-11.5 4.5h-300q-4 0 -7 -1t-5 -3.5t-3.5 -5.5t-1.5 -6q0 -6 5 -11t12 -5zM171 12h359q16 0 16 16.5t-16 16.5h-359q-17 0 -17 -16.5
t17 -16.5zM157 533h233v-233h-233v233zM800 -137q0 -7 -4 -12.5t-10.5 -8t-14.5 -2.5h-720q-23 2 -24 23v853q0 20 24 20h500v-187q0 -11 4.5 -20t12.5 -15t18.5 -9.5t21.5 -3.5h192v-131l27 29v104v14l-273 246h-503q-23 0 -37 -12.5t-14 -34.5v-854q0 -23 14.5 -36.5
t36.5 -13.5h720q24 0 40 14t16 36v261l-27 -28v-232zM579 706l191 -177h-162q-4 0 -7.5 0.5t-6.5 1.5t-5.5 3t-4.5 4t-3.5 5t-1.5 7v156z" />
    <glyph glyph-name="uniE623" unicode="&#xe623;" 
d="M561 221l-251 -146q-5 -3 -6.5 -8.5t1.5 -9.5q1 -3 4.5 -5t6.5 -2t7 2l250 145q5 2 6.5 7.5t-0.5 10.5q-6 12 -18 6zM643 36l167 95q-1 0 -16 19l-198 -114h-140l66 40q5 2 6.5 7.5t-1.5 9.5q-1 3 -3 4.5t-4.5 2t-5 0t-5.5 -1.5l-105 -62h-150l-47 80l598 345l50 -87
q12 5 23 8l-107 188q-20 35 -62 35q-9 0 -17.5 -2.5t-17.5 -7.5l-517 -299q-8 -5 -15 -11.5t-11.5 -14.5t-6.5 -16.5t-2 -17t2.5 -18t6.5 -17.5l97 -165h-119l-109 -192h930l-108 192h-179zM156 204l-5 7q-9 17 -4 36q2 9 8 16.5t14 12.5l517 300q10 6 24 6q27 0 41 -24
l4 -8zM66 -118l67 117h666l65 -117h-798zM172 732h325v-22h-325v22zM66 587h308v-23h-308v23zM27 438h183v-22h-183v22zM1009 291q-14 26 -39.5 40.5t-55.5 14.5t-55 -14q-39 -24 -51 -68t11 -83q10 -17 25 -29t33 -18.5t38 -6.5q10 0 19.5 1.5t18 5t16.5 7.5q39 22 52 67
q10 46 -12 83zM957 162q-19 -12 -43 -12q-23 0 -43.5 11.5t-31.5 30.5q-18 31 -8.5 65.5t39.5 52.5q20 12 44 12q11 0 22.5 -3t21 -8.5t17.5 -13.5t14 -18q18 -30 8.5 -64.5t-40.5 -52.5zM914 224l-38 9l-6 -23l61 -15l22 87l-23 6z" />
    <glyph glyph-name="uniE624" unicode="&#xe624;" 
d="M997 186q-14 14 -33 21.5t-43 7.5q-15 0 -31.5 -8t-28.5 -17.5t-35 -27.5q-51 -42 -74 -51q-6 20 -17 33q-6 6 -13.5 12t-15.5 10t-16.5 7t-18 5t-18.5 3.5t-18.5 2t-17.5 1t-17 0.5q-5 0 -10.5 -0.5t-9.5 -0.5h-10h-9h-5h-16h-2q-1 0 -2.5 0.5t-3 1.5t-3 1.5t-4 2
t-4 2.5t-4 2.5t-4 2.5t-4 3t-4.5 3q-17 11 -28.5 17.5t-34 17.5t-44.5 17.5t-54.5 12.5t-67.5 7v51q0 6 -3 12.5t-7.5 11t-10.5 7t-13 2.5h-209q-14 0 -23.5 -10t-9.5 -23v-375q0 -14 10 -23.5t23 -9.5h208q10 0 17.5 4.5t12 12t4.5 16.5v17q18 -7 77 -33q49 -24 78.5 -37
t76 -26.5t81.5 -13.5q39 -1 112 24t145 61.5t125.5 83t53.5 82.5q0 49 -27 77zM588 -118q-32 0 -76 13t-72.5 25.5t-76.5 35.5q-76 35 -98 40l-4 1v250v3h2q44 -1 81 -7.5t66 -18.5t44.5 -20.5t37.5 -23.5q13 -8 19 -11.5t14.5 -7t14.5 -3.5h16h6q4 0 9 0.5t9 0.5h10h10
q87 0 116 -32q12 -14 14 -34v-15l14 3q14 2 34 13.5t29.5 19t35.5 27.5q17 14 23 18.5t18.5 13.5t21 12t16.5 3q19 0 33 -5t25 -15q20 -21 20 -61q-1 -34 -80.5 -89t-178.5 -95.5t-153 -40.5zM657 594h125q12 0 23.5 5t20 13.5t13.5 20t5 24.5q0 25 -18.5 43.5t-43.5 18.5
h-125q-12 0 -24 -5t-20 -13.5t-13 -20t-5 -23.5q0 -26 18 -44.5t44 -18.5zM657 694h125q15 0 25.5 -10.5t10.5 -26t-10.5 -26t-25.5 -10.5h-125q-15 0 -26 10.5t-11 25.5q0 10 5 18.5t13.5 13.5t18.5 5zM450 428h124q26 0 44.5 18.5t18.5 43.5q0 13 -5 24.5t-13.5 20
t-20 13.5t-24.5 5h-124q-26 0 -44.5 -18.5t-18.5 -44.5t18.5 -44t44.5 -18zM450 528h124q16 0 26.5 -11t10.5 -26t-10.5 -26t-26.5 -11h-124q-8 0 -14.5 3t-11.5 8t-8 12t-3 14t2.5 14t7.5 12t12 8t15 3zM783 387h-126q-10 0 -19.5 -3t-17 -9t-13.5 -13.5t-9 -17t-3 -19.5
t3 -19.5t9 -17.5t13.5 -13.5t17 -9t19.5 -3.5h125q10 0 19.5 3.5t17 9t13.5 13.5t9 17.5t3 19.5q1 25 -17.5 43.5t-43.5 18.5zM783 287h-126q-15 0 -26 10.5t-11 26.5q0 10 5 18.5t13.5 13.5t18.5 5h125q15 0 25.5 -11t10.5 -26q1 -10 -4 -18.5t-13.5 -13.5t-17.5 -5z" />
    <glyph glyph-name="uniE625" unicode="&#xe625;" 
d="M512 800q-139 0 -257 -68.5t-186.5 -186.5t-68.5 -257t68.5 -257t186.5 -186.5t257 -68.5t257 68.5t186.5 186.5t68.5 257t-68.5 257t-186.5 186.5t-257 68.5zM512 -209q-81 0 -157 25t-137 71t-107 107t-71 137t-25 157q0 101 39.5 193t106 158.5t158.5 106t193 39.5
t193 -39t158.5 -105.5t106 -159t39.5 -193.5t-39.5 -193t-106 -158.5t-158.5 -106t-193 -39.5zM419 258q26 0 48.5 13.5t35.5 36.5t13 50q0 41 -28.5 70.5t-68.5 29.5t-68.5 -29t-28.5 -71q0 -41 28.5 -70.5t68.5 -29.5zM486 228l-66 -104l-62 107q-49 -20 -79 -69t-30 -121
q177 -69 343 0q0 70 -29.5 118t-76.5 69zM765 570h-245q-28 0 -47 -20q-9 -9 -14.5 -21.5t-5.5 -26.5v-7q8 -2 15.5 -5t14.5 -7v18q0 4 1 8t2 7t3.5 6t4.5 6q11 11 26 11h245q5 0 10 -1.5t9 -4t7 -5.5q5 -5 8 -12t3 -15v-141q0 -16 -11 -27q-5 -5 -12 -8t-14 -3h-149l-4 -3
l-38 -34l5 19l5 19h-33q-3 -13 -12 -31h7l-11 -44q2 -2 3 -2.5t3 -2t3 -2.5t3 -2t3 -3l3 -2l6 -3l69 62h139q13 0 25.5 5.5t21.5 14.5q9 10 14.5 22t5.5 26v140q0 28 -20 48q-22 21 -49 21zM541 431q0 -8 4 -14.5t10.5 -10.5t14.5 -4q6 0 11.5 2.5t9 6.5t6 9t2.5 11
q0 8 -4 15t-10.5 10.5t-14.5 3.5q-12 0 -20.5 -8.5t-8.5 -20.5zM623 431q0 -8 4 -14.5t10.5 -10.5t14.5 -4q6 0 11.5 2.5t9 6.5t6 9t2.5 11q0 8 -4 15t-10.5 10.5t-14.5 3.5q-12 0 -20.5 -8.5t-8.5 -20.5zM706 431q0 -8 3.5 -14.5t10.5 -10.5t15 -4q6 0 11 2.5t9 6.5t6.5 9
t2.5 11q0 8 -4 15t-10.5 10.5t-14.5 3.5q-12 0 -20.5 -8.5t-8.5 -20.5z" />
    <glyph glyph-name="uniE626" unicode="&#xe626;" 
d="M205 800h205v-205h-205v205zM410 595h204v-205h-204v205zM614 390h205v-204h-205v204zM410 186h204v-205h-204v205zM205 -19h205v-205h-205v205z" />
    <glyph glyph-name="uniE627" unicode="&#xe627;" 
d="M1011 570v0q-29 101 -112.5 165.5t-188.5 64.5h-409q-106 0 -189.5 -65t-105.5 -165q-6 -26 -6 -80v-407q0 -129 87 -218t214 -89h406q130 0 222 89t92 218v407q2 10 0 27.5t-4 26.5t-6 26zM301 752h406q84 0 152.5 -48t97.5 -125q-70 -101 -191 -159t-260.5 -58
t-260.5 58t-191 159q15 38 39.5 70t56.5 55t70.5 35.5t80.5 12.5zM976 83q0 -107 -78.5 -183t-187.5 -76h-409q-108 0 -180.5 74.5t-72.5 184.5v407v4q0 3 -0.5 5t-1 5t-1 5t-0.5 5v4q79 -96 202 -150t262 -54t262 54t205 150q0 -4 2 -14q1 -10 1 -14v-407h-3zM618 208h-42
l-70 -122l-71 122h-45l96 -147v-3h-83v-32h83v-80h39v80h80v32h-80v3z" />
    <glyph glyph-name="uniE628" unicode="&#xe628;" 
d="M859 452l30 29q19 20 19 46t-19 45.5t-45.5 19.5t-45.5 -20l-29 -28q-86 64 -192 81v47h16q18 0 32.5 8.5t23 23.5t8.5 32q0 27 -18.5 45.5t-45.5 18.5h-159q-11 0 -20.5 -3t-17.5 -9t-14 -14t-9 -18t-3 -20q0 -27 18.5 -45.5t45.5 -18.5h15v-47q-154 -24 -258 -143
t-104 -278q0 -115 57 -213.5t155.5 -156t214 -57.5t214 57.5t155.5 156t57 213.5q-2 137 -81 248zM512 -102q-126 0 -215 89.5t-89 215.5t89 215t215 89t215 -89t89 -215t-89 -215.5t-215 -89.5zM663 203l-114 30v152q0 19 -14 33t-33 14t-33 -14t-14 -33v-189q0 -32 30 -44
l6 -2l149 -38q3 -1 5.5 -1.5t5.5 -0.5q16 0 29 10t17 26q5 18 -5 34.5t-29 22.5z" />
    <glyph glyph-name="uniE629" unicode="&#xe629;" 
d="M512 800q-212 0 -362 -150t-150 -362t150 -362t362 -150t362 150t150 362t-150 362t-362 150zM512 -95q-104 0 -192.5 51.5t-140 140t-51.5 193t51.5 193t140 139.5t192.5 51t192.5 -51t140 -139.5t51.5 -193.5q0 -104 -51.5 -192.5t-140 -140t-192.5 -51.5zM476 289
l-217 -149l58 -85l262 180v337h-103v-283z" />
    <glyph glyph-name="uniE62A" unicode="&#xe62a;" horiz-adv-x="1026" 
d="M971 636h-74v-116q0 -38 -26.5 -64.5t-64 -26.5t-64.5 26.5t-27 64.5v116h-404v-116q0 -38 -26.5 -64.5t-64 -26.5t-64.5 26.5t-27 64.5v116h-74q-22 0 -37 -15.5t-15 -36.5v-694q0 -22 15.5 -37.5t36.5 -15.5h918q14 0 26.5 7.5t19 19.5t6.5 26v695q0 14 -7.5 25.5
t-20 18.5t-26.5 7zM922 -58q0 -22 -15.5 -37t-37.5 -15h-711q-15 0 -27 7t-19 19t-7 26v390q0 15 7.5 27t19.5 19t26 7h711q7 0 14 -2t13 -5.5t10.5 -8.5t8 -10.5t5.5 -12.5t2 -14v-390zM219 486q18 0 32 13t14 32v165q0 19 -13.5 32.5t-32.5 13.5q-18 0 -31.5 -13.5
t-13.5 -32.5v-165q0 -29 27 -41q9 -4 18 -4zM806 486q12 0 22.5 6t17 16.5t6.5 22.5v165q0 19 -13.5 32.5t-32.5 13.5q-12 0 -22 -6t-16.5 -16.5t-6.5 -23.5v-165q0 -6 1.5 -12t4.5 -11t7 -9t9 -7t11 -4.5t12 -1.5zM340 287h-98q-5 0 -9.5 -1.5t-8 -4.5t-6.5 -6.5t-4.5 -8
t-1.5 -9.5v-74q0 -6 2 -11.5t6 -9.5t10 -6.5t12 -2.5h98q12 0 21 8.5t9 21.5v74q0 13 -8.5 21.5t-21.5 8.5zM562 287h-98q-12 0 -21 -9t-9 -21v-74q0 -12 8.5 -21t21.5 -9h98q12 0 21 8.5t9 21.5v74q-1 8 -5 15t-11 11t-14 4zM782 287h-98q-12 0 -21 -9t-9 -21v-74
q0 -6 2.5 -11.5t6.5 -9.5t9.5 -6.5t11.5 -2.5h98q12 0 21 8.5t9 21.5v74q0 12 -9 21t-21 9zM340 110h-98q-6 0 -11.5 -2t-9.5 -6t-6.5 -9.5t-2.5 -12.5v-74q0 -12 8.5 -20.5t21.5 -8.5h98q12 0 21 8.5t9 20.5v74q0 13 -8.5 21.5t-21.5 8.5zM562 110h-98q-12 0 -21 -8.5
t-9 -21.5v-74q0 -4 1.5 -8.5t4 -8.5t6 -6.5t8.5 -4t10 -1.5h98q12 0 21 8.5t9 20.5v74q-1 9 -5 15.5t-11 10.5t-14 4zM782 110h-98q-12 0 -21 -8.5t-9 -21.5v-74q0 -12 9 -20.5t21 -8.5h98q12 0 21 8.5t9 20.5v74q0 13 -9 21.5t-21 8.5z" />
    <glyph glyph-name="uniE62B" unicode="&#xe62b;" 
d="M666 -128h-306q-97 0 -180 48t-131 130.5t-48 179.5v308q0 97 48 179.5t131 130.5t180 48h306q72 0 138.5 -28.5t114.5 -76.5t76.5 -114.5t28.5 -138.5v-306q0 -98 -48 -181t-130.5 -131t-179.5 -48zM360 850q-130 0 -222 -92t-92 -222v-306q0 -130 92 -222t222 -92h306
q85 0 157.5 42t114.5 114.5t42 157.5v308q0 130 -92 222t-222 92h-306v-2zM895 324q0 22 -5 43t-13.5 40t-21.5 36t-29 31.5t-35 24.5l-5 3l-2 -3q-6 -7 -12 -12t-13 -9l-7 -6l9 -4q42 -19 66.5 -57.5t24.5 -84.5q0 -27 -67 -43q-37 108 -136 161l-5 1l-3 -3q-4 -5 -9.5 -10
t-14.5 -12l-7 -6l9 -4q64 -31 101.5 -91.5t37.5 -130.5q0 -13 -10.5 -24.5t-24.5 -18.5t-29 -11l-64 126l14 -148q-31 -6 -65 -10t-67 -4q-32 0 -67 3t-61 9l16 150l-66 -132q-29 10 -48.5 26.5t-19.5 31.5q-1 70 36.5 130t102.5 91l9 4l-7 6q-17 14 -24 22l-3 3l-5 -1
q-99 -53 -136 -161q-21 5 -36 11.5t-23 14.5t-8 17q0 45 25 84t66 58l9 4l-7 6q-9 6 -25 21l-2 3l-5 -3q-48 -26 -76 -73t-28 -102q0 -28 26 -50t74 -33q-4 -26 -4 -53q0 -43 43 -74t106.5 -44.5t139 -13.5t139 13.5t106.5 44.5t43 74q0 25 -4 53q97 29 97 86zM329 471h4
q2 0 4.5 0.5t4 0.5t5.5 0.5t4 1.5l7 1l-2 6q-1 2 -3.5 6.5t-3.5 7.5t-2.5 7t-2.5 7l-3 4h-4q-1 0 -3.5 -0.5t-3.5 -0.5q-26 0 -44.5 18.5t-18.5 44t18.5 44t44.5 18.5q8 0 21 -4l5 -2l2 5q9 16 17 27l5 5l-6 3q-19 9 -43 9q-43 0 -74 -31t-31 -74q-1 -28 13 -52t38 -38
t52 -14zM668 636l3 -5l5 2q1 1 3 1.5t3.5 1t3.5 0.5t4 0.5t4 0.5h3q25 0 43.5 -18.5t18.5 -44t-18.5 -44t-43.5 -18.5l-7 1l-6 2l-1 -4q-2 -7 -4.5 -13.5t-7.5 -16.5l-3 -6l8 -1q14 -3 22 -3q29 0 53 14t38.5 38t14.5 53q0 21 -8.5 40.5t-22.5 34t-33.5 22.5t-41.5 8
q-10 0 -20.5 -2t-20.5 -6l-6 -3l5 -6q1 -8 12 -28zM512 418q61 0 103.5 43t42.5 104q0 40 -19.5 73.5t-53 53t-73.5 19.5q-61 0 -103.5 -43t-42.5 -103.5t42.5 -103.5t103.5 -43zM408 565q0 43 30.5 73t73.5 30t73.5 -30.5t30.5 -73t-30.5 -73t-73.5 -30.5q-28 -1 -52 13
t-38 38t-14 53z" />
    <glyph glyph-name="uniE62C" unicode="&#xe62c;" 
d="M666 -128h-306q-97 0 -180 48t-131 130.5t-48 179.5v308q0 97 48 179.5t131 130.5t180 48h306q72 0 138.5 -28.5t114.5 -76.5t76.5 -114.5t28.5 -138.5v-306q0 -98 -48 -181t-130.5 -131t-179.5 -48zM360 850q-130 0 -222 -92t-92 -222v-306q0 -130 92 -222t222 -92h306
q85 0 157.5 42t114.5 114.5t42 157.5v308q0 130 -92 222t-222 92h-306v-2zM718 620l-48 26l-158 -266l-3 7l-153 259l-49 -26l104 -172h-77v-51h108l43 -71h-121v-53h122v-152h53v152h122v53h-121l42 71h109v51h-77z" />
    <glyph glyph-name="uniE62D" unicode="&#xe62d;" 
d="M664 -128h-306q-97 0 -179.5 48t-130.5 130.5t-48 179.5v308q0 97 48 179.5t130.5 130.5t179.5 48h306q73 0 139.5 -28.5t114.5 -76.5t76.5 -114.5t28.5 -138.5v-306q0 -98 -47.5 -181t-130.5 -131t-181 -48zM358 850q-130 0 -222 -92t-92 -222v-306q0 -130 92 -222
t222 -92h306q86 0 158 42t114 114.5t42 157.5v308q0 130 -92 222t-222 92h-306v-2zM346 464q-5 0 -10 -2t-8.5 -4.5t-6 -6.5t-4 -8.5t-1.5 -8.5q0 -8 4 -15t11 -11t15 -4q12 0 20.5 8.5t8.5 21.5q2 12 -7.5 21t-21.5 9zM892 472q0 14 -10 23.5t-24 9.5q-6 0 -9 -2
q-16 41 -45.5 76.5t-69.5 61.5t-85 40t-107 14q-70 0 -114 -15q-48 -16 -95 -49q-8 4 -16.5 6.5t-17 4t-17 1t-16 -2t-14.5 -4.5t-13 -7l-17 -13l41 -56q-9 -12 -16.5 -26t-13 -28t-10.5 -30h-13q-21 0 -36.5 -15t-15.5 -37v-135q0 -22 15.5 -37.5t36.5 -15.5h64
q23 -30 69 -62v-62q0 -11 4.5 -20t13 -14t19.5 -5h58q5 0 9.5 1t9 4t7.5 6.5t5.5 8t4 9.5t1.5 10v7q67 -11 125 -1v-8q0 -12 5 -21t13.5 -14t18.5 -5h58q15 0 26 11.5t11 28.5v56q44 27 75 64.5t48 82t17 91.5q0 10 -3 33q22 12 23 35zM688 114h-48v58l-26 -6
q-76 -18 -156 2l-26 7v-58h-48v64l3 15l-13 7q-42 27 -74 67l-6 9h-85q-4 0 -7.5 3.5t-3.5 7.5v135q1 10 11 12h46l2 15q10 50 46 97l10 13l-31 41h1q19 0 38 -13l13 -8l12 8q43 35 101 53q56 11 93 11q19 0 46.5 -3.5t40.5 -6.5q88 -24 143 -90.5t55 -146.5
q0 -63 -34.5 -118.5t-95.5 -90.5l-11 -6zM677 556q-32 17 -68 26q-17 8 -69 8q-41 0 -71 -10q-4 -1 -8 -2.5t-8.5 -2.5t-8.5 -2.5t-8.5 -3t-8.5 -3.5t-8 -3.5t-8 -3.5q-8 -4 -10.5 -12t2 -15.5t12.5 -10t15 1.5q12 7 25.5 11.5t28 8t29 5t29.5 1.5q64 0 116 -28q6 -3 10 -3
t7.5 1t6.5 4t5 6q4 6 1 16l-4 3q-2 3 -3.5 5t-3.5 3z" />
    <glyph glyph-name="uniE62E" unicode="&#xe62e;" 
d="M512 896q-138 0 -256 -69t-187 -187t-69 -256t69 -256t187 -187t256 -69t256 69t187 187t69 256t-69 256t-187 187t-256 69zM512 -77q-94 0 -179.5 36.5t-147 98t-98 147t-36.5 179.5t36.5 179.5t98 147t147 98t179.5 36.5t179.5 -36.5t147 -98t98 -147t36.5 -179.5
q0 -54 -12 -106t-34.5 -97.5t-54 -85.5t-71.5 -71.5t-85.5 -54t-97.5 -34.5t-106 -12zM614 594l-102 -102l-102 102q-8 8 -18.5 8t-18 -8t-7.5 -18t8 -18l97 -97h-67q-4 0 -8 -1.5t-7 -3.5t-5.5 -5t-3.5 -7t-1 -9q0 -2 0.5 -4.5t1 -4.5t1.5 -4l2 -4l4 -2q1 -2 3 -3l4 -2
q2 -1 5 -1h4h82v-67h-82q-11 0 -18 -7t-7 -18.5t7 -18.5t18 -7h82v-97q0 -6 2 -11t5.5 -8t8 -5t10.5 -2q8 0 13.5 3t9 9t3.5 14v97h82q11 0 18 7t7 18.5t-7 18.5t-18 7h-82v67h82q11 0 18 7t7 18.5t-7 18.5t-18 7h-67l97 97q8 8 8 18t-8 18q-3 3 -6.5 5t-7.5 2.5t-7.5 0
t-7.5 -2.5t-7 -5z" />
    <glyph glyph-name="uniE62F" unicode="&#xe62f;" 
d="M891 896h-758q-15 0 -30 -3.5t-28 -10.5t-24.5 -16t-20.5 -20.5t-16 -24.5t-10.5 -28t-3.5 -30v-758q0 -54 39.5 -93.5t93.5 -39.5h758q54 0 93.5 39.5t39.5 93.5v758q0 18 -5 35t-13.5 31.5t-21 27t-27 21t-31.5 13.5t-35 5zM133 845h758q34 0 58 -24t24 -58v-46h-922
v46q0 34 24 58t58 24zM891 -77h-758q-34 0 -58 24t-24 58v661h922v-661q0 -34 -24 -58t-58 -24zM225 435q0 -25 18 -43t44 -18q10 0 19 3t17 8.5t13.5 13t8.5 17t3 19.5q0 26 -18 44t-43 18q-17 0 -31 -8.5t-22.5 -22.5t-8.5 -31zM225 169q0 -25 18 -43t44 -18
q12 0 23.5 4.5t19.5 13t13 19.5t5 24q0 25 -18 43t-43.5 18t-43.5 -18t-18 -43zM451 435q0 -25 18 -43t43 -18q17 0 31 8t22 22.5t8 30.5q0 26 -18 44t-43 18q-10 0 -19.5 -3.5t-17 -9t-13 -13t-8.5 -17t-3 -19.5zM451 169q0 -17 8 -31t22 -22t31 -8q25 0 43 18t18 43
t-18 43t-43 18t-43 -18t-18 -43zM681 435q0 -25 18 -43t43 -18q17 0 31 8t22.5 22.5t8.5 30.5q0 26 -18 44t-44 18q-16 0 -30.5 -8.5t-22.5 -22.5t-8 -31zM681 169q0 -17 8 -31t22.5 -22t30.5 -8q26 0 44 18t18 43t-18 43t-44 18q-16 0 -30.5 -8t-22.5 -22t-8 -31z" />
    <glyph glyph-name="uniE630" unicode="&#xe630;" 
d="M891 773h-753q-56 0 -94.5 -39t-38.5 -94v-512q0 -57 39.5 -95t93.5 -38h753q57 0 95 39t38 94v512q0 12 -2 23.5t-6.5 22t-10 20.5t-13 19t-16.5 16.5t-19 13t-20.5 10t-22 6.5t-23.5 2zM133 722h753q34 0 58 -23.5t24 -58.5v-113h-917v113q4 35 27.5 58.5t54.5 23.5z
M891 46h-753q-22 0 -41 11t-30 29.5t-11 41.5v343h917v-343q-4 -35 -27.5 -58.5t-54.5 -23.5zM174 297h72v-108h-72v108zM317 297h72v-108h-72v108zM466 297h72v-108h-72v108z" />
    <glyph glyph-name="uniE631" unicode="&#xe631;" 
d="M891 870h-635q-35 0 -66 -18t-49 -49t-18 -66v-36h-41q-35 0 -58.5 -23.5t-23.5 -57.5v-36q0 -23 11 -42t29.5 -29.5t41.5 -10.5h41v-41h-41q-14 0 -26.5 -4t-22.5 -11.5t-17.5 -17.5t-11.5 -23t-4 -26v-36q0 -23 11 -41.5t29.5 -29.5t41.5 -11h41v-41h-41
q-35 0 -58.5 -23.5t-23.5 -58.5v-36q0 -34 23.5 -58t58.5 -24h41q8 -50 45.5 -83.5t87.5 -33.5h635q54 0 93.5 39.5t39.5 93.5v701q0 14 -3 27t-8 24.5t-12.5 22.5t-16.5 20t-19.5 16.5t-22.5 12.5t-25 7.5t-26 2.5zM123 553h-41q-4 0 -7.5 1t-6 2.5t-5 3.5t-4 5t-2.5 6.5
t-1 7.5v35q0 8 3.5 14t9 9t13.5 3h41v-87zM123 312h-41q-6 0 -10.5 2t-8 5.5t-5.5 8t-2 10.5v36q0 7 3.5 13t9 9t13.5 3h41v-87zM123 67h-41q-12 0 -19 7t-7 18v36q0 12 7 19t19 7h41v-87zM968 36q0 -35 -24 -58.5t-58 -23.5h-630q-35 0 -58.5 23.5t-23.5 58.5v701
q0 35 23.5 58.5t58.5 23.5h635q34 0 58 -23.5t24 -58.5v-701h-5zM369 573h435v-46h-435v46zM369 404h435v-46h-435v46zM369 236h435v-47h-435v47z" />
    <glyph glyph-name="uniE632" unicode="&#xe632;" 
d="M486 -31l-56 87q-8 8 -18 11t-18 0q-19 -19 -10 -36l20 -36q-130 35 -213 143t-83 246q0 89 35 167.5t100 135t151 81.5q11 4 15.5 14t0.5 22q-4 11 -14 15t-22 0q-146 -46 -234.5 -165.5t-88.5 -269.5q0 -156 95.5 -279t242.5 -161l-31 -21q-18 -19 -10 -36
q5 -10 21 -10q10 0 15 5l87 57q25 6 16 28q0 2 -1 2zM630 824l30 21q19 19 11 36q-5 5 -11.5 8t-13 3.5t-11.5 -1.5l-87 -56q-19 -19 -10 -36l56 -87q5 -11 20 -11q11 1 16 6q19 18 10 35l-20 36q131 -35 216.5 -143.5t85.5 -245.5q0 -135 -81 -243t-211 -146
q-21 -7 -21 -36q11 -20 26 -20h5q146 42 237 164t91 276q0 39 -6.5 77t-18.5 73t-29.5 68t-40 62t-49.5 54t-57.5 45.5t-65 36t-71.5 24.5zM625 379h-215q-8 0 -14 3t-9 9t-3 13.5t3 13.5t9 9t14 3h220q11 0 18 -7t7 -19q-12 -25 -30 -25zM625 261h-215q-8 0 -14 3t-9 9
t-3 13.5t3 13.5t9 9t14 3h220q11 0 18 -7t7 -18q-8 -26 -30 -26zM517 133q-11 0 -18 7t-7 19v261q0 7 3 13t9 9t13 3q12 0 19 -7t7 -18v-261q0 -9 -7.5 -17.5t-18.5 -8.5zM522 394q-10 0 -20 10l-123 123q-8 8 -8 18.5t8 18t18 7.5t18 -8l123 -123q7 -7 7 -17.5t-7 -18.5
q0 -3 -5.5 -6.5t-10.5 -3.5zM512 394q-10 0 -20 10q-8 8 -8 18.5t8 17.5l122 123q8 8 18.5 8t17.5 -8q5 -5 7 -11.5t0 -13t-7 -11.5l-123 -123q0 -3 -5.5 -6.5t-9.5 -3.5z" />
    <glyph glyph-name="uniE633" unicode="&#xe633;" 
d="M282 584h460v-57h-460v57zM297 302h56v-97h-56v97zM415 302h56v-148h-56v148zM563 302h57v-97h-57v97zM712 302h56v-148h-56v148zM963 486q27 8 44 29.5t17 47.5v82q0 38 -18.5 68.5t-49 47.5t-65.5 17h-753q-56 0 -94.5 -39t-38.5 -94v-82q0 -26 17 -47.5t45 -29.5
q34 -11 55 -39t21 -63t-21 -63t-55 -39q-28 -8 -45 -29.5t-17 -47.5v-82q0 -57 39.5 -95t93.5 -38h753q57 0 95 39t38 94v82q0 26 -17 47.5t-44 29.5q-35 11 -56 39t-21 63q4 35 25 63t52 39zM947 230q7 -3 10.5 -5t7 -7.5t3.5 -12.5v-82q0 -35 -24 -58.5t-58 -23.5h-753
q-23 0 -41.5 11t-29.5 29.5t-11 41.5v82q0 11 6.5 18t14.5 7q50 16 81 58t31 96t-31 96t-81 58q-7 3 -10.5 5t-7 7.5t-3.5 12.5v82q0 23 11 41.5t29.5 29.5t41.5 11h753q34 0 58 -23.5t24 -58.5v-82q0 -11 -6.5 -18t-14.5 -7q-50 -16 -81 -58t-31 -96t31 -96t81 -58z" />
    <glyph glyph-name="uniE634" unicode="&#xe634;" horiz-adv-x="1025" 
d="M942 625h-174q41 49 41 107q0 66 -48 115t-116 49q-27 0 -53.5 -9.5t-46.5 -25.5t-33 -37q-48 72 -133 72q-66 0 -115 -48t-49 -116q0 -58 41 -107h-174q-35 0 -58.5 -24t-23.5 -58v-190h77v-348q0 -57 39 -95t94 -38h604q57 0 95 39t38 94v348h77v190q0 8 -1.5 16.5
t-4.5 15.5t-7.5 13.5t-10 12t-12 10t-14 7.5t-15.5 5t-17 2zM645 840q46 0 77 -31t31 -77q0 -41 -29 -72t-69 -35h-15q-28 2 -50 17t-34.5 38.5t-12.5 51.5q-2 23 6 43t22 34t33.5 22.5t40.5 8.5zM271 732q0 30 14 55t39 39t55 14q46 0 76.5 -31t30.5 -77q0 -41 -29 -72
t-68 -35h-15q-46 3 -74.5 33.5t-28.5 73.5zM56 410v138q0 11 7 18t19 7h404v-163h-430zM128 5v348h353v-430h-276q-45 6 -67 45q-10 19 -10 37zM814 -72h-276v430h353v-348q4 -34 -19 -58t-58 -24zM968 410h-430v163h404q12 0 19 -7t7 -18v-138z" />
    <glyph glyph-name="uniE635" unicode="&#xe635;" 
d="M486 701h57v-112h-57v112zM707 425h112v-56h-112v56zM205 425h112v-56h-112v56zM711 635l40 -40l-80 -80l-40 40zM311 158l-40 40l80 79l40 -39zM708 155l-80 80l40 40l80 -80zM356 514l-80 80l40 39l79 -79zM512 896q-138 0 -256 -69t-187 -187t-69 -256t69 -256
t187 -187t256 -69t256 69t187 187t69 256t-69 256t-187 187t-256 69zM471 312q-41 25 -41 72q0 23 11 41.5t29.5 29.5t41.5 11q35 0 58.5 -23.5t23.5 -58.5q-1 -42 -41 -67l-10 -10v-112q0 -20 -21 -29q-5 -2 -10 -2q-12 0 -21.5 9.5t-9.5 21.5v112zM538 -72v190
q23 8 39.5 29t16.5 48v87q51 42 51 107q0 38 -18 68.5t-48.5 47.5t-66.5 17q-54 0 -93.5 -39.5t-39.5 -93.5q0 -20 6.5 -40t18 -37.5t26.5 -29.5v-82q0 -26 16.5 -47.5t39.5 -29.5v-190q-118 8 -217 71t-156 165t-57 220q0 74 23 143.5t65.5 125.5t98.5 98.5t125.5 65.5
t143.5 23q62 0 121 -16.5t109 -46t92 -71.5t71.5 -92t46 -109t16.5 -121q0 -176 -116 -306q-110 -126 -275 -151q-20 -2 -39 -4z" />
    <glyph glyph-name="uniE636" unicode="&#xe636;" 
d="M840 604h-11q-11 123 -102.5 207.5t-214.5 84.5t-214.5 -84.5t-102.5 -207.5h-11q-37 0 -68 -18t-48 -48.5t-17 -66.5v-466q0 -37 18.5 -68t49 -48t65.5 -17h656q37 0 68 18.5t48 49t17 65.5v466q4 54 -36 93.5t-97 39.5zM512 840q100 0 175 -68t86 -168h-522
q11 100 86 168t175 68zM922 5q0 -34 -24 -58t-58 -24h-656q-34 0 -58 24t-24 58v466q0 35 24 58.5t58 23.5h656q13 0 25.5 -4t23 -11.5t17.5 -17.5t11.5 -22.5t4.5 -26.5v-466zM584 241q30 31 30 66q0 28 -13.5 50.5t-35.5 34.5t-48 12q-41 0 -69 -28.5t-28 -68.5
q1 -43 31 -66l-67 -113q-9 -17 0 -26q9 -14 26 -15h225q4 0 7.5 1t7 3t6.5 5t4 6q9 17 0 26zM445 138l57 92q9 30 -10 36q-13 9 -19.5 18t-6.5 23q0 19 13.5 32.5t32.5 13.5t32.5 -13.5t13.5 -32.5q-1 -24 -26 -41q-7 -2 -10 -9t-3 -14t3 -13l57 -92h-134z" />
    <glyph glyph-name="uniE637" unicode="&#xe637;" 
d="M512 -31q-31 1 -56 26l-133 102h-185q-54 0 -93.5 40t-39.5 93v430q0 57 39.5 95.5t93.5 38.5h753q54 0 93.5 -40t39.5 -94v-430q0 -37 -18.5 -68t-49 -48t-65.5 -17h-190l-133 -102q-25 -26 -56 -26zM133 742q-34 0 -58 -23.5t-24 -58.5v-430q0 -34 24 -58t58 -24h195
q10 0 15 -5l143 -107q25 -23 41 0l144 112q3 4 6.5 5t8.5 1h200q34 0 58 23.5t24 58.5v430q0 34 -24 58t-58 24h-753v-6zM241 445.5q0 -23.5 16.5 -40t39.5 -16.5t39.5 16.5t16.5 40t-16.5 40t-39.5 16.5t-39.5 -16.5t-16.5 -40zM456 451q0 -24 16.5 -40.5t39.5 -16.5
t39.5 16.5t16.5 40t-16.5 40t-39.5 16.5q-15 0 -28 -7.5t-20.5 -20.5t-7.5 -28zM671 451q0 -12 4.5 -22.5t12 -18t18 -12t21.5 -4.5q23 0 39.5 16.5t16.5 40.5q0 7 -2 14.5t-5.5 13.5t-8.5 11.5t-11.5 9t-13.5 5.5t-15 2q-23 0 -39.5 -16.5t-16.5 -39.5z" />
    <glyph glyph-name="uniE638" unicode="&#xe638;" 
d="M840 870h-656l-184 -215v-757h1024v757zM814 814l143 -164h-297v164h154zM604 814v-322h-138v322h138zM210 814h205v-164h-343zM56 -46v645h359v-159h245v159h313v-645h-917zM609 276h292v-56h-292v56zM512 118h389v-57h-389v57z" />
    <glyph glyph-name="uniE639" unicode="&#xe639;" horiz-adv-x="1025" 
d="M548 804h389v-56h-389v56zM548 640h389v-51h-389v51zM747.5 -77q-115.5 0 -196 80.5t-80.5 196t80.5 196t196 80.5t196 -80.5t80.5 -196t-80.5 -196t-196 -80.5zM747.5 425q-92.5 0 -159 -66.5t-66.5 -158.5t66.5 -159t159 -67t159 67t66.5 159t-66.5 158.5t-159 66.5z
M261 174h-31q-46 0 -138 15q-31 5 -48 9t-21 6.5t-8 5.5q-8 8 -11 40t3.5 69.5t23.5 54.5q6 7 14.5 13t20.5 11.5t22 9t25.5 9t24.5 8.5l16 5q9 2 12.5 10t3.5 14l-1 7q-4 12 -9.5 24t-11.5 21.5t-11 15.5t-9 10q0 1 -8.5 7t-15.5 14.5t-12 19.5q-2 7 -3 13t-1 11t1 11.5
t2 9.5t3.5 9t2.5 8q0 107 51 159q47 46 123 46q152 0 174 -200v-5q17 -33 6 -62q-15 -35 -36 -46q-7 -7 -12.5 -15t-10 -24t1.5 -32q0 -3 4 -5.5t9.5 -5.5t7.5 -5q1 0 2 -1q11 -8 18 -13t15.5 -17t10.5 -25v-195l-110 -11zM56 251q4 -1 22.5 -4.5t33 -5.5t36 -5t44 -4.5
t44.5 -1.5q50 0 100 3t79 8v138q-16 15 -26 20q-15 10 -27 21.5t-19 24.5q-4 15 -4.5 30.5t3 28t9.5 25t13 22t15 17.5h5q1 2 4.5 4.5t5.5 4.5t3.5 5t1.5 7q2 3 2 6t-1 5.5t-2.5 4.5t-2.5 3l-1 1v11q0 10 -5 20q-11 148 -118 148q-51 0 -82 -30q-14 -15 -24.5 -45t-10.5 -78
v-15l-6 -6q0 -2 -1 -6t-2.5 -8t-1.5 -6l11 -15h5q18 -15 36 -41.5t25 -61.5q5 -27 -7 -54t-44 -38q-2 0 -5 -1.5t-7 -2.5t-9 -1q-69 -18 -81 -36q-8 -10 -11 -27.5t-2.5 -34t2.5 -30.5zM727 56l-118 118l36 36l82 -77l159 159l41 -36z" />
    <glyph glyph-name="uniE63A" unicode="&#xe63a;" 
d="M757 839q32 0 60.5 -8.5t51.5 -24t41.5 -37.5t31 -48.5t19 -57t6.5 -63.5v-438q0 -101 -57 -167t-153 -66h-438q-66 0 -126 30.5t-98 85t-38 117.5v438q0 48 22.5 92.5t59 76.5t84 51t96.5 19h421h17zM757 896h-438q-82 0 -155.5 -40.5t-118.5 -109t-45 -146.5v-438
q0 -80 45 -147.5t118 -105t156 -37.5h438q118 0 192.5 82.5t74.5 207.5v438q0 80 -33 147t-95 108t-139 41zM228 723l69 -97l-46 -33l-69 98zM209 512l112 -97l-38 -43l-111 97zM279 265l51 -24l-96 -200l-52 25zM411 749l52 -25l-100 -210l-51 24zM398 668h455v-56h-455v56
zM796 668h57v-625h-57v625zM569 100h284v-57h-284v57zM494 588l46 -34l-101 -138l-46 34zM455 498h285v-57h-285v57zM546 498h57v-342h-57v342zM398 384h342v-57h-342v57zM398 270h57v-114h-57v114zM398 213h342v-57h-342v57zM683 270h57v-114h-57v114z" />
    <glyph glyph-name="uniE63B" unicode="&#xe63b;" 
d="M757 839q32 0 60.5 -8.5t51.5 -24t41.5 -37.5t31 -48.5t19 -57t6.5 -63.5v-438q0 -101 -57 -167t-153 -66h-438q-66 0 -126 30.5t-98 85t-38 117.5v438q0 48 22.5 92.5t59 76.5t84 51t96.5 19h421h17zM757 896h-438q-82 0 -155.5 -40.5t-118.5 -109t-45 -146.5v-438
q0 -80 45 -147.5t118 -105t156 -37.5h438q118 0 192.5 82.5t74.5 207.5v438q0 80 -33 147t-95 108t-139 41zM199 617h285v-57h-285v57zM324 724l53 -21l-132 -327l-53 21zM193 395h285v-57h-285v57zM341 498h57v-438h-57v438zM495 273l9 -56l-303 -47l-9 56zM512 617h324
v-57h-324v57zM627 721l55 -16l-103 -367l-55 16zM523 356h308v-57h-308v57zM791 331l43 -38l-140 -158l-43 38zM564 233l210 -137l-32 -48l-209 138zM478 486h381v-56h-381v56z" />
    <glyph glyph-name="uniE63C" unicode="&#xe63c;" 
d="M1024 722l-174 174l-338 -338l-338 338l-174 -174l338 -338l-338 -338l174 -174l338 338l338 -338l174 174l-338 338z" />
    <glyph glyph-name="uniE63D" unicode="&#xe63d;" 
d="M894 766l-512 -512l-252 260l-130 -130l382 -382l642 633z" />
    <glyph glyph-name="uniE63E" unicode="&#xe63e;" 
d="M512 896q-140 0 -257.5 -68.5t-186 -186t-68.5 -257.5t68.5 -257.5t186 -186t257.5 -68.5t257.5 68.5t186 186t68.5 257.5t-68.5 257.5t-186 186t-257.5 68.5zM712 254l-65 -65l-130 130l-131 -130l-65 65l130 130l-130 130l65 65l131 -130l130 130l65 -65l-130 -130z
" />
    <glyph glyph-name="uniE63F" unicode="&#xe63f;" 
d="M757 896h-438q-82 0 -155.5 -40.5t-118.5 -109t-45 -146.5v-438q0 -80 45 -147.5t118 -105t156 -37.5h438q118 0 192.5 82.5t74.5 207.5v438q0 60 -19.5 114t-54 94t-85 64t-108.5 24zM228 724l69 -98l-46 -33l-69 98zM209 512l112 -97l-37 -43l-112 97zM234 41l-52 25
l97 200l51 -25zM455 156h-57v114h57v-57h91v114h-148v57h148v57h-89l-18 -25l-46 34l101 138l46 -34l-41 -56h241v-57h-137v-57h137v-57h-137v-114h80v57h57v-114h-285zM853 612v-569h-284v57h227v512h-387l-46 -98l-51 24l99 211l52 -25l-27 -55h417v-57z" />
    <glyph glyph-name="uniE640" unicode="&#xe640;" 
d="M757 812h-438q-82 0 -155.5 -40.5t-118.5 -109t-45 -146.5v-438q0 -80 45 -147.5t118 -105t156 -37.5h438q118 0 192.5 82.5t74.5 207.5v438q0 60 -19.5 114t-54 94t-85 64t-108.5 24zM398 116v-140h-57v132l-141 -22l-8 56l149 23v89h-148v57h3l-4 2l66 163h-59v57h82
l43 107l53 -21l-35 -86h142v-57h-165l-66 -165h88v103h57v-103h80v-57h-80v-80l97 15l9 -56zM859 346h-255l-21 -74h247v-57h-3l7 -6l-133 -150l73 -47l-32 -48l-209 138l31 47l89 -58l110 124h-240v57h1l21 74h-67v56h83l21 74h-70v57h86l29 104l55 -16l-25 -88h179v-57
h-195l-21 -74h239v-56z" />
    <glyph glyph-name="uniE641" unicode="&#xe641;" 
d="M509 893q-83 0 -161 -25.5t-140.5 -72.5t-109.5 -110t-72.5 -140.5t-25.5 -160.5q0 -69 18 -135t51 -122t80 -103t102.5 -79.5t121.5 -51t136 -18.5q83 0 160.5 25.5t140 72.5t109.5 110t73 140.5t26 160.5t-26 161t-73.5 140t-110 109.5t-140 73t-159.5 25.5zM509 -32
q-85 0 -162.5 33.5t-134 89.5t-89.5 133.5t-33 162.5q0 113 56 210t153 153t210 56q85 0 162.5 -33t133.5 -89.5t89.5 -134t33.5 -162.5q-1 -86 -34.5 -163.5t-89.5 -133.5t-133 -89t-162 -33zM784 592q-29 0 -49.5 -21t-20.5 -49q0 -20 3 -26l-122 -147q-6 3 -25 3h-4h-4
h-4l-4 -2q-2 0 -4 -1l-73 83q2 4 2.5 8.5t0.5 10.5q0 12 -3.5 22.5t-10 19t-15.5 15t-19.5 10.5t-21.5 4q-19 0 -35.5 -9.5t-26 -26t-9.5 -35.5v-7q0 -3 1 -7.5t2 -7.5l-80 -93q-6 3 -22 3q-14 0 -27 -5.5t-22.5 -15t-15 -22.5t-5.5 -27q0 -19 9.5 -35.5t25.5 -26t35 -9.5
q29 0 49.5 21t20.5 50q0 16 -3 22l83 93q7 -3 23 -3h9q3 0 7.5 0.5t8.5 2.5l71 -83q-2 -4 -2.5 -10t-0.5 -16q0 -19 9.5 -35t25.5 -25.5t35 -9.5q29 0 49.5 20.5t20.5 49.5q0 13 -3 19l125 154q4 -2 8.5 -2.5t10.5 -0.5q29 0 50 20.5t21 49.5q0 40 -36 64q-19 13 -38 13z
" />
    <glyph glyph-name="uniE642" unicode="&#xe642;" 
d="M288 384q-99 0 -176.5 27.5t-101.5 68.5q-10 -14 -10 -32q0 -53 84 -90.5t204 -37.5t204 37.5t84 90.5q0 5 -1 10.5t-3.5 11t-5.5 10.5q-27 -42 -103 -69t-175 -27zM288 192q-99 0 -176.5 27.5t-101.5 68.5q-10 -14 -10 -32q0 -53 84 -90.5t204 -37.5t204 37.5t84 90.5
q0 5 -1 10.5t-3.5 11t-5.5 10.5q-27 -42 -103 -69t-175 -27zM288 0q-99 0 -176.5 27.5t-101.5 68.5q-10 -14 -10 -32q0 -53 84 -90.5t204 -37.5t204 37.5t84 90.5q-1 18 -10 32q-27 -42 -103 -69t-175 -27zM288 768q-120 0 -204 -37.5t-84 -90.5t84 -90.5t204 -37.5
t204 37.5t84 90.5t-85 90.5t-203 37.5zM736 448q-29 0 -62.5 2t-33.5 4v-64q0 -2 33.5 -4t62.5 -2q120 0 204 37.5t84 90.5q0 5 -1 10.5t-3.5 11t-5.5 10.5q-27 -42 -103 -69t-175 -27zM736 256q-29 0 -62.5 2t-33.5 4v-64q0 -2 33.5 -4t62.5 -2q120 0 204 37.5t84 90.5
q0 5 -1 10.5t-3.5 11t-5.5 10.5q-27 -42 -103 -69t-175 -27zM736 576q120 0 204 37.5t84 90.5t-84 90.5t-204 37.5q-126 0 -221 -45q59 -27 92 -64.5t33 -82.5q-1 -28 -16 -54q53 -10 112 -10zM736 64q-29 0 -62.5 2t-33.5 4v-64q0 -2 33.5 -4t62.5 -2q120 0 204 37.5
t84 90.5q-1 18 -10 32q-17 -27 -57 -49t-97.5 -34.5t-123.5 -12.5z" />
    <glyph glyph-name="uniE643" unicode="&#xe643;" 
d="M393 794q-4 3 -7.5 6t-7.5 5l-8 4q-4 2 -8 3t-8.5 1.5t-8.5 0.5t-10.5 -1.5t-10.5 -1.5h-3q-10 -7 -24 -21l-277 -276q-20 -21 -20 -48t20 -44q21 -21 48.5 -21t47.5 21l167 167v-567q0 -27 19.5 -46t45.5 -19t45.5 20t19.5 45v720q0 31 -20 52zM1004 350
q-21 20 -48.5 20t-47.5 -20l-171 -171v567q0 27 -19 46t-46 19q-25 0 -44.5 -20t-19.5 -45v-727q0 -28 19 -46.5t45 -18.5q28 0 48 20l280 280q23 21 23.5 48.5t-19.5 47.5z" />
    <glyph glyph-name="uniE644" unicode="&#xe644;" 
d="M55 708h914q23 0 39 16t16 39t-16 38.5t-39 15.5h-914q-23 -2 -39 -18t-16 -36q0 -23 16 -39t39 -16zM969 439h-914q-23 0 -39 -16t-16 -39t16 -39t39 -16h914q23 0 39 16t16 39t-16 39t-39 16zM969 60h-914q-23 0 -39 -16t-16 -39t16 -38.5t39 -15.5h914q23 0 39 15.5
t16 38.5t-16 39t-39 16z" />
    <glyph glyph-name="uniE645" unicode="&#xe645;" horiz-adv-x="1028" 
d="M0 763h109v-109h-109v109zM0 435h109v-109h-109v109zM0 114h109v-109h-109v109zM324 654h649q23 0 38.5 15.5t15.5 38.5t-15.5 39t-38.5 16h-649q-23 0 -38.5 -16t-15.5 -39t15.5 -38.5t38.5 -15.5zM969 435h-648q-23 0 -39 -15.5t-16 -38.5t16 -39t39 -16h648
q23 0 39 16t16 39t-16 38.5t-39 15.5zM969 114h-648q-11 0 -21.5 -4t-17.5 -11.5t-11.5 -17.5t-4.5 -21q0 -23 16 -39t39 -16h648q23 0 39 16t16 39t-16 38.5t-39 15.5z" />
    <glyph glyph-name="uniE646" unicode="&#xe646;" 
d="M973 896h-922q-20 0 -35.5 -15.5t-15.5 -35.5v-922q0 -20 15.5 -35.5t35.5 -15.5h922q20 0 35.5 15.5t15.5 35.5v922q0 20 -15.5 35.5t-35.5 15.5zM973 -77h-922v922h922v-922zM205 691h102v-102h-102v102zM461 691h102v-102h-102v102zM717 691h102v-102h-102v102z
M205 435h102v-102h-102v102zM461 435h102v-102h-102v102zM717 435h102v-102h-102v102zM205 179h102v-102h-102v102zM461 179h102v-102h-102v102zM717 179h102v-102h-102v102z" />
    <glyph glyph-name="uniE647" unicode="&#xe647;" 
d="M922 589h-820q-42 0 -72 -30t-30 -73v-307h1024v307q0 21 -8 40t-22 33t-33 22t-39 8zM632 315q-2 -3 -5 -4.5t-6 -2.5t-7 -1q-5 0 -9.5 2t-8.5 6l-84 84l-84 -84q-8 -8 -18.5 -8t-18 8t-7.5 18t8 18l102 102q8 8 18 8t18 -8l102 -102q8 -8 8 -18t-8 -18z" />
    <glyph glyph-name="uniE648" unicode="&#xe648;" 
d="M922 589h-820q-42 0 -72 -30t-30 -73v-307h1024v307q0 21 -8 40t-22 33t-33 22t-39 8zM632 417l-102 -102q-8 -8 -18 -8t-18 8l-102 102q-8 8 -8 18t7.5 18t18 8t18.5 -8l84 -84l84 84q4 4 9 6t9.5 2t9.5 -2t8 -6q8 -8 8 -18t-8 -18z" />
    <glyph glyph-name="uniE649" unicode="&#xe649;" 
d="M579 399v190q0 17 -9.5 32.5t-24.5 24.5t-33 9q-29 0 -49 -19.5t-20 -46.5v-210q-1 -11 1.5 -22t8 -19t13.5 -13l179 -115q2 -1 5 -2t4.5 -2t4.5 -2l5 -2q1 0 4 -0.5t5 -1t5 -0.5h6h7q4 0 7.5 1t7.5 2t7 2.5t6.5 3.5t6 4.5t5 5.5t4.5 6q12 22 13 41q0 32 -24 44zM512 896
q-138 0 -256 -69t-187 -187t-69 -256t69 -256t187 -187t256 -69t256 69t187 187t69 256t-69 256t-187 187t-256 69zM512 -54q-119 0 -220 59t-159.5 159.5t-58.5 219.5t58.5 219.5t159.5 159.5t220 59q120 0 220.5 -58.5t159 -159t58.5 -220.5t-58.5 -220.5t-159 -159
t-220.5 -58.5z" />
    <glyph glyph-name="uniE64A" unicode="&#xe64a;" 
d="M961 735q-2 14 -12 23.5t-23 9.5q-105 0 -204.5 31.5t-139.5 55.5t-50 33q-6 5 -13.5 7t-15.5 0t-14 -7l-10 -6q-10 -7 -28 -17.5t-43 -23.5t-59 -25.5t-71.5 -23t-84.5 -17.5t-95 -7q-13 0 -23 -9.5t-12 -23.5q0 -1 -3 -40.5t-5.5 -94.5t-4 -118.5t1.5 -126t11 -103.5
q6 -33 37.5 -74.5t77.5 -81.5t93.5 -75.5t98 -68t77.5 -49t45 -26.5q10 -5 17 -5q8 0 18 5q24 13 59 34.5t101 66.5t119.5 88t98.5 94.5t54 91.5q8 40 11 102t2 125.5t-3.5 118.5t-5 95.5t-2.5 41.5zM890 268q-4 -24 -31.5 -57t-67 -66.5t-89.5 -70.5t-97 -68t-93 -57
q-79 45 -159 101t-145.5 117t-73.5 98q-22 104 -2 432q45 2 90 9t82.5 17.5t69.5 22t59.5 25t45.5 23.5t33 20q25 -16 56 -31.5t80 -35.5t113 -33.5t131 -16.5q19 -319 -2 -429zM576 508l-72 140l-69 -140l-155 -23l112 -110l-26 -158l138 74l141 -74l-26 158l113 110z" />
    <glyph glyph-name="uniE64B" unicode="&#xe64b;" 
d="M512 832q184 0 316 -132t132 -316t-132 -316t-316 -132t-316 132t-132 316t132 316t316 132zM512 896q-138 0 -256 -69t-187 -187t-69 -256t69 -256t187 -187t256 -69t256 69t187 187t69 256t-69 256t-187 187t-256 69zM740 612l-305 -305l-151 154l-77 -77l228 -228
l382 376z" />
    <glyph glyph-name="uniE64C" unicode="&#xe64c;" 
d="M512 896q-138 0 -256 -69t-187 -187t-69 -256t69 -256t187 -187t256 -69t256 69t187 187t69 256t-69 256t-187 187t-256 69zM433 84l-274 274l94 95l182 -187l369 369l92 -97z" />
    <glyph glyph-name="uniE64D" unicode="&#xe64d;" 
d="M512 896q-138 0 -256 -69t-187 -187t-69 -256t69 -256t187 -187t256 -69t256 69t187 187t69 256t-69 256t-187 187t-256 69zM799 474q34 0 59 -25t25 -59.5t-25 -59.5t-59.5 -25t-59.5 25t-25 59q-1 17 5.5 32.5t18 27t27.5 18.5t34 7zM512 599q62 0 106.5 -44t44.5 -107
q0 -40 -20 -75t-55 -55.5t-76 -20.5q-63 0 -107 44t-44 107t44.5 107t106.5 44zM225.5 474q34.5 0 59.5 -25t25 -59.5t-25 -59.5t-59.5 -25t-59.5 25t-25 59.5t25 59.5t59.5 25zM108 212q50 47 115 47q16 0 31.5 -3.5t29 -9t28.5 -13.5q-79 -57 -112 -156q-63 63 -92 135z
M512 -54q-152 0 -271 95q23 93 98.5 152.5t172.5 59.5t172.5 -59.5t98.5 -152.5q-114 -95 -271 -95zM824 77q-15 47 -44 86.5t-68 69.5q42 26 89 26q65 0 115 -47q-29 -72 -92 -135z" />
    <glyph glyph-name="uniE64E" unicode="&#xe64e;" 
d="M512 896q-138 0 -256 -69t-187 -187t-69 -256t69 -256t187 -187t256 -69t256 69t187 187t69 256t-69 256t-187 187t-256 69zM637 274q9 0 16.5 -4.5t11.5 -11.5t3 -15q0 -9 -4 -16t-11 -11t-16 -4h-76v-46q0 -19 -13.5 -32.5t-32.5 -13.5q-13 0 -23.5 6.5t-17 17
t-6.5 22.5v46h-76q-7 0 -12.5 2.5t-9.5 6.5t-6.5 10t-2.5 12q0 14 8.5 22.5t22.5 8.5h76v31h-76q-14 0 -22.5 8.5t-8.5 22t8.5 22t22.5 8.5h71l-94 164q-4 6 -5.5 12t-1.5 12t1.5 12t4.5 11t7.5 9.5t11.5 7.5q12 6 24 6t22.5 -6.5t17.5 -17.5l61 -115l67 120q9 17 27.5 22.5
t36.5 -4.5q11 -6 17.5 -17t6.5 -23t-7 -24l-94 -166h71q9 0 16 -4t11 -11t4 -16q0 -7 -2 -12.5t-6 -9.5t-10 -6.5t-13 -2.5h-76v-31h76v-2z" />
    <glyph glyph-name="uniE64F" unicode="&#xe64f;" 
d="M698 896h-465v-1024h465q39 0 66 27.5t27 65.5v838q0 15 -4.5 29t-13 25.5t-20 20.5t-26 13.5t-29.5 4.5zM575 307q7 -7 7 -16t-7 -16q-3 -3 -6.5 -5t-6.5 -2.5t-6.5 0t-7 2.5t-6.5 5l-93 93q-7 7 -7 16t7 16l93 93q7 7 16.5 7t16.5 -7q3 -3 5 -7.5t2 -8.5q0 -9 -7 -16
l-77 -77z" />
    <glyph glyph-name="uniE650" unicode="&#xe650;" 
d="M354 817v-275h-275v275h275zM394 857h-355v-355h355v355zM354 226v-275h-275v275h275zM394 266h-355v-355h355v355zM945 817v-275h-275v275h275zM985 857h-355v-355h355v355zM39 384h197v-39h-197v39zM709 384h276v-39h-276v39zM473 857h39v-119h-39v119zM512 345h-197
v39h158v276h39v-315zM985 -89h-355v40h315v315h40v-355zM512 187h276v-39h-237v-237h-39v276z" />
    <glyph glyph-name="uniE651" unicode="&#xe651;" 
d="M701 817q7 0 12.5 -0.5t13.5 -1.5l-437 -434q-8 -8 -11 -16l-54 -183q-3 -10 -0.5 -20.5t10.5 -18.5q11 -11 27 -11q6 0 11 1l183 54q9 3 17 10l456 457q8 -21 12 -43t4 -45v-363q0 -105 -73.5 -178.5t-177.5 -73.5h-364q-104 0 -177.5 73.5t-73.5 178.5v363
q0 104 73.5 177.5t177.5 73.5h379h-8zM694 857h-364q-120 0 -205.5 -85.5t-85.5 -205.5v-363q0 -120 85.5 -206t205.5 -86h364q120 0 205.5 86t85.5 206v363q0 83 -45 154l-495 -495l-183 -54l54 182l483 483q-25 10 -51.5 15.5t-53.5 5.5v0zM512 187h315v-39h-315v39z" />
    <glyph glyph-name="uniE652" unicode="&#xe652;" 
d="M945 148l-433 417l-433 -417l-28 28l461 444l461 -444z" />
    <glyph glyph-name="uniE653" unicode="&#xe653;" 
d="M699 778q29 0 57 -6t53.5 -17.5t48.5 -28t42.5 -36.5t35 -44t26 -51t16.5 -56.5t6 -59.5v-34q0 -123 -83.5 -210.5t-201.5 -87.5h-5q-62 -7 -122 -44q-28 -18 -99 -72v77q0 17 -12 28.5t-28 11.5h-108q-119 0 -198.5 81t-79.5 202v33q0 62 22.5 120t60 100.5t89 68
t106.5 25.5h374zM699 817h-374q-52 0 -101 -18.5t-88 -52.5t-68 -78t-45 -96.5t-16 -107.5v-33q0 -139 92 -231t226 -92h108v-157q116 91 160 119q23 14 49.5 23.5t41.5 12.5l15 2q87 0 162 45.5t118.5 123t43.5 168.5v34q0 68 -25.5 130.5t-69 108t-104 72.5t-125.5 27v0z
M276 581h315v-39h-315v39zM276 384h472v-39h-472v39z" />
    <glyph glyph-name="uniE654" unicode="&#xe654;" 
d="M273 521h478v-35h-478v35zM273 350h478v-34h-478v34zM273 179h273v-34h-273v34zM751 794h-34v32q0 15 -10.5 25.5t-25.5 10.5h-338q-14 0 -25 -10.5t-11 -25.5v-32h-34q-28 0 -53 -11t-43.5 -29t-29 -43.5t-10.5 -52.5v-615q0 -57 40 -97t96 -40h361l253 255v497
q0 18 -4.5 36t-13.5 32.5t-21.5 27t-27.5 21.5t-32.5 14t-36.5 5zM649 -29v88q0 23 11 43t31 31.5t43 11.5h87zM341 828h342v-103h-342v103zM171 43v615q0 42 30 71.5t72 29.5h34v-33q0 -14 10.5 -24.5t25.5 -10.5h338q15 0 25.5 10.5t10.5 24.5v33h34q42 0 72 -29.5
t30 -71.5v-479h-119q-49 0 -84.5 -35.5t-35.5 -84.5v-119h-341q-28 0 -51.5 14t-37 37.5t-13.5 51.5z" />
    <glyph glyph-name="uniE655" unicode="&#xe655;" 
d="M478 486h341v-34h-341v34zM478 350h341v-34h-341v34zM478 213h239v-34h-239v34zM837 657h-188v171q0 9 -4.5 17t-11.5 12.5t-16 4.5h-482q-13 0 -23 -10t-10 -24v-597q0 -17 7 -33t18.5 -27.5t27.5 -18.5t33 -7h119v34h-51q14 9 17 52v340q0 21 15.5 36t36.5 15
q17 0 30.5 -10t18.5 -27q0 -1 0.5 -2.5t0.5 -2.5v-9v-596l69 -69l68 60l77 -60l66 58l62 -58l57 53l46 -53l102 69v596q0 18 -7 33.5t-18 27t-26.5 18.5t-33.5 7zM240 571v-340q0 -7 -2 -13.5t-5.5 -12.5t-8 -10.5t-10.5 -8t-12.5 -5t-13.5 -1.5q-21 0 -36 15t-15 36v597
h477v-171h-48h-95h-107h-43q-16 -1 -31.5 -8t-26 -18.5t-17 -27t-6.5 -32.5zM887 -10l-65 -33l-45 51l-61 -55l-61 56l-67 -59l-77 59l-64 -56l-37 37v581q0 17 -5 34.5t-12 17.5h444q21 0 35.5 -15t14.5 -37v-581z" />
    <glyph glyph-name="uniE656" unicode="&#xe656;" 
d="M640 282q4 0 8 2t6.5 6t2.5 9q0 7 -5 12t-12 5h-94v102h94q4 0 8 2.5t6.5 6.5t2.5 8q0 7 -5 12t-12 5h-92l115 116q5 5 5 12t-5 12t-12 5t-12 -5l-110 -111l-112 111q-5 5 -12 5t-12 -5t-5 -12t5 -12l117 -116h-94q-7 0 -12 -5t-5 -12t5 -12t12 -5h96v-102h-96
q-7 0 -12 -5t-5 -12t5 -12t12 -5h96v-99q0 -3 1.5 -6t3.5 -5.5t5.5 -4t6.5 -1.5q7 0 12 5t5 12v99h94zM616 704q-4 0 -8 2t-6 6l-57 87q-2 4 -2.5 8.5t1.5 8.5t6 6l87 57q15 9 24 -5q4 -6 2.5 -13t-7.5 -11l-73 -47l47 -72q4 -6 2.5 -13t-7.5 -11q-4 -3 -9 -3zM375 -114
q-4 0 -8 2.5t-6 5.5q-4 6 -2.5 13t7.5 11l73 47l-47 73q-4 5 -2.5 12t7.5 11q14 9 23 -5l56 -87q2 -3 2.5 -6.5t0 -6.5t-2.5 -6t-5 -4l-86 -57q-5 -3 -10 -3zM462 -56h-2q-110 13 -200 74.5t-141 158.5t-51 208q0 147 86.5 264t227.5 160q7 2 13 -1t8.5 -10t-1 -13t-10.5 -8
q-130 -40 -210 -148t-80 -244q0 -156 103.5 -272.5t258.5 -134.5q5 -1 8.5 -3.5t5.5 -7t1 -8.5q0 -3 -1.5 -6t-4 -5t-5.5 -3t-6 -1zM632 -42q-6 0 -10.5 3.5t-6.5 8.5q-2 7 1.5 13t10.5 8q130 38 212.5 148t82.5 246q0 156 -104.5 273t-259.5 134q-7 1 -11.5 6.5t-4 12.5
t6 11.5t13.5 3.5q110 -13 200.5 -74.5t142 -158.5t51.5 -208q0 -147 -89 -266t-230 -160q-3 -1 -5 -1z" />
    <glyph glyph-name="uniE657" unicode="&#xe657;" 
d="M504 521h-61q-7 0 -12 -5t-5 -12.5t5 -12.5t12 -5h69v-68h-69q-8 0 -13 -5t-5 -12t5 -12t13 -5h69v-76q0 -4 1.5 -7t3.5 -5.5t5.5 -3.5t6.5 -1q7 0 12 5t5 12v76h70q2 0 5 1t5 2.5t3.5 3.5t2.5 4.5t1 5.5q0 7 -5 12t-12 5h-70v68h70q4 0 8 2.5t6.5 6.5t2.5 8.5t-2.5 8.5
t-6.5 6.5t-8 2.5h-62l83 81q5 5 5 12.5t-5 12.5t-12.5 5t-12.5 -5l-83 -84l-83 84q-5 5 -12 5t-12 -5q-2 -2 -3.5 -4.5t-2 -5t0 -5.5t2 -5.5t3.5 -4.5zM922 213h-103v546q0 21 -8 40t-21.5 33t-32.5 22t-40 8h-410q-42 0 -72 -30t-30 -73v-546h-103q-28 0 -48 -20t-20 -48
v-171q0 -28 20 -48t48 -20h820q28 0 48 20t20 48v171q0 28 -20 48t-48 20zM307 828h410q28 0 48 -20t20 -48v-683h-546v683q0 28 20 48t48 20zM956 -26q0 -14 -10 -24t-24 -10h-820q-14 0 -24 10t-10 24v171q0 14 10 24t24 10h103v-102h-68v-34h750v34h-68v102h103
q14 0 24 -10t10 -24v-171z" />
    <glyph glyph-name="uniE658" unicode="&#xe658;" 
d="M520 247h61q5 0 9 2.5t6 6.5t2 9q0 7 -5 12t-12 5h-69v68h69q8 0 13 5t5 12q0 5 -2.5 8.5t-6.5 6t-9 2.5h-69v76q0 7 -5 12t-12 5t-12 -5t-5 -12v-76h-70q-7 0 -12 -5t-5 -12t5 -12t12 -5h70v-68h-70q-7 0 -12 -5t-5 -12.5t5 -12.5t12 -5h62l-83 -81l-2 -4l-2 -4
q-1 -2 -1 -4.5t1 -4.5l2 -4l2 -4q3 -2 6 -3.5t6.5 -1.5t6.5 1.5t6 3.5l83 84l83 -84q5 -5 12 -5t12 5t5 12.5t-5 12.5zM102 555h103v-546q0 -43 30 -73t72 -30h410q42 0 72 30t30 73v546h103q28 0 48 20t20 48v171q0 28 -20 48t-48 20h-820q-28 0 -48 -20t-20 -48v-171
q0 -28 20 -48t48 -20zM717 -60h-410q-28 0 -48 20t-20 48v683h546v-683q0 -28 -20 -48t-48 -20zM68 794q0 9 4.5 17t12.5 12.5t17 4.5h820q9 0 17 -4.5t12.5 -12.5t4.5 -17v-171q0 -9 -4.5 -17t-12.5 -12.5t-17 -4.5h-103v102h68v34h-750v-34h68v-102h-103q-7 0 -13 2.5
t-10.5 7t-7.5 11t-3 13.5v171z" />
    <glyph glyph-name="uniE659" unicode="&#xe659;" 
d="M882 725h-740q-46 0 -77 -35t-31 -94v-466q0 -31 32.5 -59t75.5 -28h740q43 0 75.5 28t32.5 59v466q0 83 -57 116q-24 13 -51 13zM142 691h740q30 0 52 -21.5t22 -52.5v-62h-888v62q0 15 6 29t16 23.5t23.5 15.5t28.5 6zM956 521v-103h-888v103h888zM882 77h-740
q-15 0 -28.5 6t-23.5 15.5t-16 23.5t-6 29v233h888v-233q0 -31 -22 -52.5t-52 -21.5zM580 213h69v-34h-69v34zM683 213h68v-34h-68v34zM785 213h68v-34h-68v34z" />
    <glyph glyph-name="uniE65A" unicode="&#xe65a;" 
d="M683 862h-342q-127 0 -217 -90t-90 -217v-342q0 -127 90 -217t217 -90h342q127 0 217 90t90 217v342q0 127 -91 218q-90 89 -216 89zM341 828h342q85 0 154.5 -48.5t99.5 -126.5q-94 -113 -240 -161q-22 26 -50.5 45.5t-63 30.5t-70.5 11q-55 0 -103 -23.5t-82 -63.5
q-146 49 -241 162q30 77 99.5 125.5t154.5 48.5zM717 340q0 -85 -60 -145t-144.5 -60t-144.5 60t-60 145q0 61 34 112q5 8 10.5 15t12.5 14q61 64 148 64t147 -64q14 -14 24 -29q16 -25 24.5 -53.5t8.5 -58.5zM956 213q0 -113 -80 -193t-193 -80h-342q-113 0 -193 80
t-80 193v342q0 15 2 30.5t5 30.5q47 -51 106 -90t127 -63q-34 -57 -34 -123q0 -99 70 -169t169 -70t169 70t70 169q0 66 -35 122q68 24 127 63t105 89q2 -7 3 -14t2 -14.5t1.5 -15.5t0.5 -15v-342zM595 457l-83 -84l-83 84q-3 2 -6 3.5t-6.5 1.5t-6.5 -1.5t-5 -3.5
q-5 -5 -5.5 -12t4.5 -12l91 -92v-25h-70q-7 0 -12 -5t-5 -12t5 -12t12 -5h70v-76q0 -7 5 -12t12 -5t12 5t5 12v76h69q5 0 9 2.5t6.5 6t2.5 8.5q0 7 -5 12t-13 5h-69v26l90 91q4 3 5 7.5t0 8.5t-5 8q-5 5 -12 5t-12 -5z" />
    <glyph glyph-name="uniE65B" unicode="&#xe65b;" 
d="M717 828q48 0 92.5 -19t76.5 -51t51 -76.5t19 -92.5v-410q0 -99 -70.5 -169t-168.5 -70h-410q-99 0 -169 70t-70 169v410q0 99 70 169t169 70h410zM717 862h-410q-113 0 -193 -80t-80 -193v-410q0 -113 80 -193t193 -80h410q113 0 193 80t80 193v410q0 113 -80 193
t-193 80v0zM260 694l58 -82l-28 -20l-58 82zM243 493l95 -83l-22 -25l-95 82zM312 270l30 -16l-81 -151l-30 16zM442 718l29 -19l-116 -180l-28 18zM475 560l28 -18l-72 -113l-29 18zM408 657h377v-34h-377v34zM751 623h34v-477h-34v477zM549 145h236v-34h-236v34zM451 521
h232v-35h-232v35zM546 505h34v-289h-34v289zM417 384h266v-34h-266v34zM410 315h34v-102h-34v102zM411 247h270v-34h-270v34zM649 315h34v-102h-34v102z" />
    <glyph glyph-name="uniE65C" unicode="&#xe65c;" 
d="M307 555h410v-34h-410v34zM341 316h34v-69h-34v69zM444 316h34v-137h-34v137zM580 316h34v-69h-34v69zM683 316h34v-137h-34v137zM954 503q16 4 26 17.5t10 29.5v80q0 40 -28 67.5t-67 27.5h-766q-13 0 -25 -3.5t-22.5 -9.5t-19.5 -14.5t-15 -19t-9.5 -23t-3.5 -25.5v-80
q0 -16 10 -29.5t26 -17.5q38 -12 63 -44.5t25 -74.5t-25 -74.5t-63 -44.5q-11 -3 -19 -10t-12.5 -16.5t-4.5 -20.5v-80q0 -40 28 -67.5t67 -27.5h766q39 0 67 27.5t28 67.5v80q0 16 -10 29.5t-26 17.5q-25 8 -45 25.5t-31.5 42t-11.5 51.5q0 42 25 74.5t63 44.5zM832 384
q0 -34 14.5 -65t40 -53.5t57.5 -32.5q6 -2 9 -6t3 -9v-80q0 -25 -18 -43t-43 -18h-766q-25 0 -43 18t-18 43v80q0 11 12 15q49 15 80.5 57t31.5 94t-31.5 94t-80.5 57q-12 4 -12 15v80q0 17 8.5 31t22.5 22t30 8h766q25 0 43 -18t18 -43v-80q0 -3 -1.5 -6t-4 -5.5t-6.5 -3.5
q-49 -15 -80.5 -57t-31.5 -94z" />
    <glyph glyph-name="uniE65D" unicode="&#xe65d;" 
d="M886 718q-4 0 -11.5 1t-11.5 2q-21 2 -36 4.5t-30 5.5q-62 13 -122.5 42t-127.5 75q-22 14 -34.5 14t-33.5 -14q-173 -119 -335 -129q-24 -1 -35.5 -13t-11.5 -37v-83v-235q0 -44 10 -84q25 -102 108 -185q111 -111 279 -173l17 -3h5l6 2q2 0 5 0.5t5 1.5q7 4 20 9
q57 25 86 40q140 75 215 178q67 90 72 187q0 7 0.5 14.5t0.5 13.5v15v1l1 131v43v130q0 40 -41 46zM892 369v-2q0 -27 -1 -39l-1 -1v-1q-3 -87 -65 -169q-70 -96 -202 -167q-28 -14 -83 -39q-7 -3 -12 -5t-9 -4l-8 -2q-1 0 -7 2q-160 59 -265 164q-77 77 -99 169
q-9 36 -9 77q-1 51 0 156v26v26v26v83q0 14 2 14q4 2 14 2q170 11 352 135q10 7 14 8h1q0 -1 1.5 -1.5t3 -1.5t4 -2t4.5 -3q136 -94 263 -123q26 -5 68 -10q5 -1 13 -2h2q4 0 6 -1h1h2q5 -1 7.5 -2.5t3 -3t0.5 -6.5v-173zM737 350h-159q-3 18 -3 38q0 30 8 56.5t19 46.5
q18 27 18 60q0 44 -30.5 75t-74.5 31t-74.5 -31t-30.5 -75q0 -12 2.5 -24t8.5 -23q1 -3 2 -4q25 -52 25 -112q0 -20 -2 -38h-159q-6 0 -10 -4.5t-4 -9.5v-108q0 -6 4 -10.5t10 -4.5h55v-55q0 -6 4.5 -9.5t9.5 -3.5h312q13 0 15 13v55h54q6 0 10 4.5t4 10.5v108q0 5 -4 9.5
t-10 4.5zM717 247h-68v-68h-274v68h-68v69h170l3 30q1 3 1 7t0.5 7.5t0.5 7.5v8q0 3 0.5 6t0.5 6q0 68 -30 127v1l-1 1l-1 2q-7 16 -7 32q0 19 9.5 36t26 26.5t35.5 9.5q30 0 50.5 -21t20.5 -51q0 -22 -12 -41l-2 -2l-1 -1q-11 -23 -20.5 -53.5t-9.5 -65.5q0 -6 0.5 -13
t1 -15t1.5 -15l4 -29h169v-69zM874 719q-55 4 -109 19t-107 42t-113 68q-20 14 -33 14q-7 0 -14.5 -3.5t-18.5 -10.5q-89 -61 -168.5 -92.5t-162.5 -36.5q-24 -1 -35.5 -13t-11.5 -37v-318q0 -14 1 -27.5t3 -28t6 -28.5q26 -107 103 -185q111 -111 279 -173l6 -1
q2 -1 5.5 -1.5t6.5 -0.5h1v0h1q6 0 18 3q168 62 279 173q76 76 102 185q10 40 10 84v318q0 12 -3 21.5t-8.5 15.5t-14.5 9.5t-22 3.5zM887 351q0 -40 -9 -76q-23 -100 -92 -169q-106 -105 -266 -164q-5 -2 -7 -2h-2q-2 0 -7 2q-161 59 -266 164q-70 71 -94 169
q-4 18 -6.5 37t-2.5 39v318l2 14v0l13 2q167 11 348 135q6 4 9.5 5.5t4.5 2.5q4 -2 14 -8q62 -43 118.5 -71t113 -44t114.5 -20l13 -3q2 0 2 -13v-318z" />
    <glyph glyph-name="uniE65E" unicode="&#xe65e;" 
d="M512 145q97 0 180 48t131 130.5t48 180.5q0 58 -18 113t-51.5 99t-77.5 77.5t-99 51.5t-113 18q-97 0 -180 -48t-131 -131t-48 -180.5t48 -180t131 -130.5t180 -48zM293 265q90 19 151 91q31 -16 66 -16q7 0 14.5 0.5t14.5 2t13 3.5l14 6q6 2 13 5q6 -7 13.5 -15
t18.5 -17t23.5 -17.5t27 -17t32.5 -15t37 -10.5q-93 -86 -219 -86t-219 86zM510 374q-56 0 -90.5 44.5t-34.5 116.5q0 31 5.5 57t18 50.5t38.5 39t63 14.5t62.5 -14.5t38.5 -39t18 -50.5t5 -57q0 -72 -34 -116.5t-90 -44.5zM512 829q88 0 163 -43.5t118.5 -118.5t43.5 -163
q0 -119 -77 -209q-91 11 -153 82q61 55 61 158q0 51 -12 89t-34 61t-50 34t-62 11q-71 0 -115 -48t-44 -147q0 -105 65 -160q-63 -70 -152 -80q-77 90 -77 209q0 88 43.5 163t118.5 118.5t163 43.5zM761 43h-498q-7 0 -12 -5t-5 -12t5 -12t12 -5h498q7 0 12 5t5 12
q0 4 -2.5 8t-6.5 6.5t-8 2.5zM666 -60h-306q-7 0 -12 -5t-5 -12t5 -12t12 -5h306q4 0 8 2.5t6.5 6.5t2.5 8t-1.5 7t-4 5.5t-5.5 3.5t-6 1z" />
    <glyph glyph-name="uniE65F" unicode="&#xe65f;" 
d="M884 725q30 0 51 -21t21 -51v-402q0 -30 -21 -51t-51 -21h-210l-9 -7l-136 -120l-2 -2l-2 -1q-3 -4 -6.5 -5t-7.5 -1q-2 0 -4.5 0.5t-4.5 2t-4 2.5l-2 2l-2 2l-141 120l-9 7h-204q-30 0 -51 21t-21 51v402q0 20 10 36.5t26.5 26t35.5 9.5h744zM884 759h-744
q-17 0 -33.5 -5t-29.5 -15t-22.5 -23t-15 -29t-5.5 -34v-402q0 -17 5.5 -33t15.5 -29t23 -23t29 -15.5t33 -5.5h193l141 -121q5 -5 11 -8.5t12.5 -5t13.5 -1.5q23 0 39 16l136 120h198q44 0 75 31t31 75v402q0 18 -5.5 34t-15 29t-23 23t-29.5 15t-33 5zM273 452
q0 -9 4.5 -17t12.5 -12.5t17 -4.5q14 0 24 10t10 24q0 10 -4.5 17.5t-12.5 12t-17 4.5q-14 0 -24 -10t-10 -24zM478 452q0 -9 4.5 -17t12.5 -12.5t17 -4.5q14 0 24 10t10 24q0 10 -4.5 17.5t-12.5 12t-17 4.5q-14 0 -24 -10t-10 -24zM683 452q0 -14 10 -24t24 -10t24 10
t10 24q0 10 -4.5 17.5t-12.5 12t-17 4.5q-14 0 -24 -10t-10 -24z" />
    <glyph glyph-name="uniE660" unicode="&#xe660;" 
d="M731 896h-438q-122 0 -207.5 -85.5t-85.5 -207.5v-438q0 -80 39 -147.5t106.5 -106.5t147.5 -39h438q122 0 207.5 85.5t85.5 207.5v438q0 122 -85.5 207.5t-207.5 85.5zM967 165q0 -64 -31.5 -118.5t-86 -86t-118.5 -31.5h-438q-98 0 -167 69t-69 167v438q0 98 69 167
t167 69h438q98 0 167 -69t69 -167v-438zM203 725l65 -85l-45 -34l-65 85zM200 509l112 -96l-38 -43l-112 96zM223 41l-51 25l95 198l52 -25zM401 668l32 55l-50 28l-103 -178l49 -28l41 70v-3h426v-512h-227v-57h284v625h-57h-395zM683 156h57v114h-57v-57h-114v114h171v57
h-171v57h171v57h-301l36 48l-46 34l-94 -128l46 -34l17 24v-1h114v-57h-171v-57h171v-114h-114v57h-57v-114h228h114z" />
    <glyph glyph-name="uniE661" unicode="&#xe661;" 
d="M294 13q-95 0 -168.5 26.5t-97.5 67.5q-10 -25 -10 -32q0 -52 80.5 -87.5t196.5 -35.5q75 0 138.5 16t100.5 44.5t37 62.5v4q0 2 -0.5 3.5t-1 3.5t-1.5 4t-1.5 3.5t-1.5 4t-1.5 3.5t-2.5 4q-22 -40 -96 -66t-171 -26zM730 569q56 0 107 10t88.5 26.5t59 39t21.5 48.5
q0 52 -80.5 87.5t-195.5 35.5q-128 0 -213 -44q27 -13 48.5 -28.5t37.5 -33.5t24.5 -38t8.5 -41q0 -26 -15 -52q8 -2 17 -3.5t17.5 -2.5t17.5 -1.5t18.5 -1t18.5 -1t20 -0.5zM730 260q-18 0 -39 1t-38 3t-17 4v-62q0 -7 94 -7q115 0 195.5 35.5t80.5 87.5q0 7 -2.5 13.5
t-7.5 16.5q-24 -40 -98 -66t-168 -26zM730 446q-18 0 -39 0.5t-38 2.5t-17 4v-62q0 -7 94 -7q115 0 195.5 36t80.5 88q0 6 -2.5 13t-7.5 16q-24 -39 -98 -65t-168 -26zM730 75q-30 0 -62 2t-32 5v-61q0 -8 94 -8q115 0 195.5 36t80.5 88v5q0 2 -1 4l-2 6q-1 2 -2 5t-2 4.5
t-3 5.5q-24 -40 -98 -66t-168 -26zM294 199q-63 0 -119 12t-95 33.5t-55 48.5q-1 -5 -3 -11.5t-3 -11.5t-1 -10q0 -34 37 -62t100.5 -44.5t139 -16.5t139 16.5t100.5 44.5t37 62q0 11 -10 30q-22 -39 -96 -65t-171 -26zM294 384q-95 0 -168.5 26.5t-97.5 67.5
q-10 -25 -10 -32q0 -52 80.5 -88t196.5 -36q75 0 138.5 16.5t100.5 45t37 62.5q0 10 -10 29q-22 -39 -96 -65t-171 -26zM17 627q1 51 82.5 87t195.5 36q76 0 140 -16.5t101.5 -45t37.5 -62t-37.5 -62t-101.5 -45t-140 -16.5q-114 0 -195.5 36t-82.5 87v1z" />
    <glyph glyph-name="uniE662" unicode="&#xe662;" 
d="M384 896h256v-1024h-256v1024zM0 512h1024v-256h-1024v256z" />
    <glyph glyph-name="uniE663" unicode="&#xe663;" 
d="M499 717l525 -653h-1024z" />
    <glyph glyph-name="uniE664" unicode="&#xe664;" 
d="M0 717h1024l-525 -653z" />
    <glyph glyph-name="uniE665" unicode="&#xe665;" 
d="M512 820q84 0 165 -34t138 -92q23 -23 42.5 -50t35 -57t26.5 -62.5t17 -66.5t6 -68q0 -139 -87 -257q-19 -25 -40 -46q-57 -58 -138 -92.5t-165 -34.5t-165 34.5t-138.5 92.5t-92 138.5t-34.5 164.5q0 140 87 257q19 26 40 47q54 63 133.5 94.5t169.5 31.5zM512 896
q-96 0 -187.5 -38.5t-166.5 -113.5q-100 -99 -135 -229.5t0 -261t135 -229.5q25 -25 52.5 -46.5t56 -38t59 -29.5t61 -21.5t62 -12.5t63.5 -4q96 0 187.5 38.5t166.5 113.5q100 99 135 229.5t0 261t-135 229.5q-75 75 -166.5 113.5t-187.5 38.5zM335 157l-53 53l411 412
l53 -54zM279 567l53 54l411 -411l-53 -54z" />
    <glyph glyph-name="uniE666" unicode="&#xe666;" 
d="M872 744q-99 100 -229.5 135t-261 0t-230 -134.5t-134.5 -230t0 -261t135 -229.5q74 -75 169 -113.5t191 -38.5t191 38.5t169 113.5q100 99 135.5 232t0 264t-135.5 224zM139 327v127h759v-127h-759z" />
    <glyph glyph-name="uniE667" unicode="&#xe667;" 
d="M877 744q-100 100 -230 135t-260.5 0t-230 -134.5t-135 -230t0 -261t134.5 -229.5q75 -75 170 -113.5t191 -38.5t190.5 38.5t169.5 113.5q93 99 126.5 232t0 264t-126.5 224zM574 327v-316h-127v316h-316v127h316v316h127v-316h316v-127h-316z" />
    <glyph glyph-name="uniE668" unicode="&#xe668;" 
d="M512 896q-138 0 -256 -69t-187 -187t-69 -256t69 -256t187 -187t256 -69t256 69t187 187t69 256t-69 256t-187 187t-256 69zM576 64h-128v115h128v-115zM576 256h-128v448h128v-448z" />
    <glyph glyph-name="uniE669" unicode="&#xe669;" 
d="M512 896q-138 0 -256 -69t-187 -187t-69 -256t69 -256t187 -187t256 -69t256 69t187 187t69 256t-69 256t-187 187t-256 69zM422 115l-268 269l89 90l179 -180l359 359l89 -90z" />
    <glyph glyph-name="uniE66A" unicode="&#xe66a;" 
d="M512 896q-138 0 -256 -69t-187 -187t-69 -256t69 -256t187 -187t256 -69t256 69t187 187t69 256t-69 256t-187 187t-256 69zM269 358l320 320l89 -89l-320 -320h-89v89zM768 128h-512v64h512v-64z" />
    <glyph glyph-name="uniE66B" unicode="&#xe66b;" 
d="M683 862h-342q-128 0 -217.5 -89.5t-89.5 -217.5v-342q0 -128 89.5 -217.5t217.5 -89.5h342q128 0 217.5 89.5t89.5 217.5v342q0 36 -8 70.5t-23 65t-36 57t-47.5 47.5t-57 36t-65 23t-70.5 8zM956 247q0 -84 -41 -154.5t-111.5 -111.5t-154.5 -41h-274
q-128 0 -217.5 89.5t-89.5 217.5v274q0 128 89.5 217.5t217.5 89.5h274q62 0 119 -24.5t98 -65.5t65.5 -98t24.5 -119v-274zM171 623h682v-137v-34q-20 0 -39.5 -8t-32.5 -24t-13 -36q0 -10 3 -19t9 -16.5t14 -14t17.5 -10.5t20 -6t21.5 -2v-34v-137h-682v147q0 5 4 9t9 4
q15 0 29 6.5t24 16.5t16 24t6 29q0 30 -22 52.5t-53 22.5q-2 0 -4.5 1t-4.5 3t-3 4.5t-1 4.5v154zM819 589h-614v-103q38 -5 61.5 -34t23.5 -68q0 -25 -10.5 -46.5t-30 -36t-44.5 -19.5v-103h614v103q-37 5 -57.5 32.5t-20.5 69.5q0 28 8.5 49.5t26.5 35.5t43 17v103z
M375 521h35v-69h-35v69zM375 418h35v-68h-35v68zM375 316h35v-69h-35v69zM614 521h35v-69h-35v69zM614 418h35v-68h-35v68zM614 316h35v-69h-35v69z" />
  </font>
</defs>
</svg>
